<?xml version="1.0" standalone="no"?>
<!DOCTYPE svg PUBLIC "-//W3C//DTD SVG 1.1//EN" "http://www.w3.org/Graphics/SVG/1.1/DTD/svg11.dtd" >
<svg>
<metadata>
Created by FontForge 20090914 at Thu Aug 16 16:21:14 2012
 By www-data
Copyright (c) 1993, 2001, 2003, 2004 Linotype Library GmbH, www.linotype.com. All rights reserved. This software may not be reproduced, used, displayed, modified, disclosed or transferred without the express written approval of Linotype Library GmbH.Dialog is a trademark of Franco Luin. This typeface is original artwork of Franco Luin. The design may be protected in certain jurisdictions.
</metadata>
<defs>
<font id="Dialog-SemiBold" horiz-adv-x="585" >
  <font-face 
    font-family="Dialog SemiBold"
    font-weight="400"
    font-stretch="normal"
    units-per-em="1000"
    panose-1="0 0 6 0 0 0 0 0 0 0"
    ascent="800"
    descent="-200"
    x-height="503"
    cap-height="640"
    bbox="-66.999 -235 967.999 863"
    underline-thickness="20"
    underline-position="-123"
    unicode-range="U+0020-U+F002"
  />
<missing-glyph horiz-adv-x="500" 
d="M63 0v765h375v-765h-375zM125 63h250v640h-250v-640z" />
    <glyph glyph-name=".notdef" horiz-adv-x="500" 
d="M63 0v765h375v-765h-375zM125 63h250v640h-250v-640z" />
    <glyph glyph-name="space" unicode=" " horiz-adv-x="203" 
 />
    <glyph glyph-name="exclam" unicode="!" horiz-adv-x="241" 
d="M187 640l-26 -441h-81l-25 441h132zM197 58c0 -20.667 -7.33301 -38.167 -22 -52.5s-32.334 -21.5 -53.001 -21.5s-38.5 7.16699 -53.5 21.5s-22.5 31.833 -22.5 52.5s7.5 38.167 22.5 52.5s32.833 21.5 53.5 21.5s38.334 -7.16699 53.001 -21.5s22 -31.833 22 -52.5z
" />
    <glyph glyph-name="quotedbl" unicode="&#x22;" horiz-adv-x="377" 
d="M331 662l-17 -230h-81l-17 230h115zM158 662l-16 -230h-81l-17 230h114z" />
    <glyph glyph-name="numbersign" unicode="#" horiz-adv-x="668" 
d="M642 475l-9 -55h-131l-44 -162h156l-9 -54h-162l-61 -215h-58l62 215h-175l-62 -215h-58l62 215h-129l9 54h135l45 162h-161l8 55h167l63 216h57l-63 -216h175l63 216h57l-63 -216h126zM445 420h-175l-45 -162h176z" />
    <glyph glyph-name="dollar" unicode="$" horiz-adv-x="480" 
d="M461 183c0 -55.333 -20.334 -101.337 -61.001 -138.004c-38 -33.333 -85.667 -53 -143 -59v-62h-37l1 61c-77.333 1.33301 -144.333 17.666 -201 48.999l-1 97c22.667 -15.333 54.834 -28.666 96.501 -39.999s76.5 -16.666 104.5 -15.999v187
c-62.667 26.667 -106.667 51.334 -132 74.001c-40.667 35.333 -61 80 -61 134c0 50.667 19.667 93.334 59 128.001c36.667 32.667 81.334 51.334 134.001 56.001v43h37v-42c55.333 -2.66699 109.666 -19 162.999 -49l-1 -67c-28 15.333 -72 23 -132 23
c-13.333 0 -23.333 -0.333008 -30 -1v-171c4 -1.33301 9.33301 -3.66602 16 -6.99902c56.667 -24.667 98.667 -49.334 126 -74.001c41.333 -36 62 -78 62 -126zM219.999 406.996v147c-45.333 -14 -68 -39 -68 -75c0 -26.667 22.667 -50.667 68 -72zM335.999 157.996
c0 38 -26.333 68 -79 90v-169c52.667 12 79 38.333 79 79z" />
    <glyph glyph-name="percent" unicode="%" horiz-adv-x="737" 
d="M317 485c0 -48 -11.333 -87 -34 -117c-25.333 -33.333 -61.333 -50 -108 -50s-83 16.667 -109 50c-22.667 30 -34 69 -34 117c0 49.333 11.333 88 34 116c24.667 31.333 61 47 109 47c94.667 0 142 -54.333 142 -163zM632 645l-464 -663l-68 15l464 662zM703 158
c0 -48 -11.333 -86.667 -34 -116c-25.333 -33.333 -61.333 -50 -108 -50s-82.667 16.333 -108 49c-23.333 30 -35 69 -35 117c0 49.333 11.333 88.333 34 117c24.667 31.333 61 47 109 47c94.667 0 142 -54.667 142 -164zM228 485c0 61.333 -17.667 92 -53 92
c-36 0 -54 -30.667 -54 -92c0 -64.667 18 -97 54 -97c35.333 0 53 32.333 53 97zM614 158c0 60.667 -17.667 91 -53 91s-53 -30.333 -53 -91c0 -64 17.667 -96 53 -96s53 32 53 96z" />
    <glyph glyph-name="ampersand" unicode="&#x26;" horiz-adv-x="626" 
d="M597 0l-152.999 0.00292969c-12.667 14 -23 26.667 -31 38c-57.333 -36 -119.666 -54 -186.999 -54c-56.667 0 -104.667 16.333 -144 49c-42.667 34.667 -64 79.667 -64 135c0 82.667 49 147.667 147 195c-41.333 50 -62 99 -62 147c0 46.667 19 83.667 57 111
c33.333 23.333 74.333 35 123 35c45.333 0 84 -10.667 116 -32c37.333 -24.667 56 -58.334 56 -101.001c0 -68.667 -47 -124.334 -141 -167.001l70 -97c27.333 -36 52.666 -66.667 75.999 -92c13.333 12 32 30.667 56 56l46 -29
c-14.667 -26.667 -35.334 -53.334 -62.001 -80.001zM345.001 517.003c0 18 -5.33301 32.5 -16 43.5s-25 16.5 -43 16.5c-16.667 0 -30.667 -6 -42 -18s-17 -26.667 -17 -44c0 -29.333 14.667 -64 44 -104c49.333 38.667 74 74 74 106zM364.001 98.0029
c-9.33301 8 -35.332 39.833 -77.999 95.5s-68.334 91.167 -77.001 106.5c-44 -29.333 -66 -65.333 -66 -108c0 -33.333 15 -62 45 -86c28 -22 59.333 -33 94 -33c22.667 0 50 8.33301 82 25z" />
    <glyph glyph-name="quotesingle" unicode="'" horiz-adv-x="206" 
d="M162 662l-19 -235h-81l-20 235h120z" />
    <glyph glyph-name="parenleft" unicode="(" horiz-adv-x="283" 
d="M251 -34l-50.001 -31.998c-53.333 39.333 -95.666 93.666 -126.999 162.999c-30 65.333 -45 132.666 -45 201.999c0 70 14.667 137.667 44 203c31.333 68.667 74 122.667 128 162l50 -32c-66 -62 -99 -172.667 -99 -332c0 -160 33 -271.333 99 -334z" />
    <glyph glyph-name="parenright" unicode=")" horiz-adv-x="283" 
d="M252 299c0 -70.667 -14.666 -138.332 -43.999 -202.999c-30.667 -68 -73.334 -122 -128.001 -162l-50 32c66.667 62.667 100 173.667 100 333s-33.333 270.333 -100 333l50 32c54 -39.333 96.667 -93.333 128 -162c29.333 -64.667 44 -132.334 44 -203.001z" />
    <glyph glyph-name="asterisk" unicode="*" horiz-adv-x="280" 
d="M253 561l-27 -46l-76 52l16 -88h-58l11 91l-75 -55l-27 46l91 34l-88 34l27 45c16.667 -12 40.667 -30.333 72 -55l-11 88h58l-14 -83l71 50l27 -45l-91 -34z" />
    <glyph glyph-name="plus" unicode="+" horiz-adv-x="578" 
d="M548 261h-232v-233h-55v233h-231v55h231v233h54v-233h233v-55z" />
    <glyph glyph-name="comma" unicode="," horiz-adv-x="242" 
d="M186 113c0 -105.333 -24.667 -185.667 -74 -241l-45 20c4.66699 18.667 9.66699 37 15 55c5.33301 22 8 41 8 57c0 15.333 -3.33301 34 -10 56c-10 30 -15.667 47.667 -17 53h123z" />
    <glyph glyph-name="uni2010" unicode="-" horiz-adv-x="290" 
d="M255 229h-223v95h223v-95z" />
    <glyph glyph-name="uni2010" unicode="&#x2010;" horiz-adv-x="290" 
d="M255 229h-223v95h223v-95z" />
    <glyph glyph-name="period" unicode="." horiz-adv-x="242" 
d="M197 58c0 -20.667 -7.33301 -38.167 -22 -52.5s-32.334 -21.5 -53.001 -21.5s-38.5 7.16699 -53.5 21.5s-22.5 31.833 -22.5 52.5s7.5 38.167 22.5 52.5s32.833 21.5 53.5 21.5s38.334 -7.16699 53.001 -21.5s22 -31.833 22 -52.5z" />
    <glyph glyph-name="slash" unicode="/" horiz-adv-x="451" 
d="M468 646l-397 -718l-89 24l395 718z" />
    <glyph glyph-name="zero" unicode="0" horiz-adv-x="520" 
d="M505 321c0 -94 -17.333 -170 -52 -228c-43.333 -72 -108.666 -108 -195.999 -108c-88 0 -153 36 -195 108c-34 57.333 -51 133.333 -51 228c0 96 16.667 172.667 50 230c41.333 70.667 106.666 106 195.999 106c165.333 0 248 -112 248 -336zM386 321
c0 160 -43 240 -129 240c-85.333 0 -128 -80 -128 -240c0 -165.333 42.667 -248 128 -248c86 0 129 82.667 129 248z" />
    <glyph glyph-name="one" unicode="1" horiz-adv-x="520" 
d="M337 0h-122v526l-163 -58v58l182 113h103v-639z" />
    <glyph glyph-name="two" unicode="2" horiz-adv-x="520" 
d="M468 0l-430 -0.000976562v75c25.333 44 72.333 97.333 141 160c52.667 48 87 81.333 103 100c39.333 46 59 87.333 59 124c0 34.667 -13 61.334 -39 80.001c-23.333 17.333 -53 26 -89 26c-22 0 -53 -5.33301 -93 -16c-43.333 -12 -72.333 -24 -87 -36v54
c59.333 59.333 129 89 209 89c63.333 0 115.333 -14 156 -42c46.667 -32.667 70 -79 70 -139c0 -54 -19.667 -103.667 -59 -149c-17.333 -19.333 -59 -55.333 -125 -108c-54.667 -43.333 -91.667 -82.333 -111 -117h295v-101z" />
    <glyph glyph-name="three" unicode="3" horiz-adv-x="520" 
d="M472 192c0 -66 -24.001 -117.667 -72.001 -155c-44.667 -34.667 -100.667 -52 -168 -52c-36.667 0 -70 4.66699 -100 14c-22.667 7.33301 -53.667 21.333 -93 42v61c17.333 -6.66699 45.833 -13.667 85.5 -21s68.834 -11 87.501 -11c37.333 0 68.333 10 93 30
c27.333 21.333 41 50 41 86c0 46.667 -24.667 80.667 -74 102c-37.333 15.333 -82.333 22 -135 20v59c50 20.667 86 37.667 108 51c45.333 28 68 57 68 87c0 45.333 -33.667 68 -101 68c-24 0 -53.333 -5 -88 -15l-70 -24v50c58.667 48.667 122 73 190 73
c54 0 97 -11 129 -33c38 -26 57 -64.667 57 -116c0 -60 -44 -109.333 -132 -148c116 -23.333 174 -79.333 174 -168z" />
    <glyph glyph-name="four" unicode="4" horiz-adv-x="520" 
d="M497 151h-77v-151h-121v151h-304v86l281 408h144v-408h77v-86zM299 529l-202 -292h202v292z" />
    <glyph glyph-name="five" unicode="5" horiz-adv-x="520" 
d="M468 209c0 -68.667 -23.666 -123.666 -70.999 -164.999c-44 -39.333 -101 -59 -171 -59c-36.667 0 -70 4.66699 -100 14c-22.667 7.33301 -53.334 21.333 -92.001 42v61c12 -6 38.667 -13 80 -21c39.333 -8 67.666 -12 84.999 -12
c38.667 -0.666992 71.334 8.66602 98.001 27.999c29.333 21.333 44 51 44 89c0 45.333 -17.333 80.333 -52 105c-30.667 21.333 -69.667 32 -117 32c-38.667 0 -72 -6 -100 -18v334h373v-104h-283v-137c32 4 48.667 6 50 6c66.667 0 124 -15.333 172 -46
c56 -36 84 -85.667 84 -149z" />
    <glyph glyph-name="six" unicode="6" horiz-adv-x="520" 
d="M496 209c0 -66.667 -21.501 -120.667 -64.501 -162s-98.167 -62 -165.5 -62c-88.667 0 -153.667 32.667 -195 98c-34.667 53.333 -52 126.666 -52 219.999c0 236 90.333 354 271 354c56 0 110.333 -17.667 163 -53v-58c-60.667 13.333 -112.334 20 -155.001 20
c-55.333 0 -96.666 -25.333 -123.999 -76c-21.333 -39.333 -32.666 -89.666 -33.999 -150.999c45.333 50.667 97.333 76 156 76c60.667 0 109.167 -19 145.5 -57s54.5 -87.667 54.5 -149zM380.999 200c0 38 -9.33203 69.333 -27.999 94c-20.667 27.333 -49.667 41 -87 41
c-33.333 0 -61.833 -11 -85.5 -33s-35.5 -49.333 -35.5 -82c0 -38.667 10.667 -73 32 -103c23.333 -32.667 53.666 -49 90.999 -49c34.667 0 62.667 13.667 84 41c19.333 24.667 29 55 29 91z" />
    <glyph glyph-name="seven" unicode="7" horiz-adv-x="520" 
d="M518 568c-42 -64.667 -102 -162.333 -180 -293c-17.333 -32 -39 -77.667 -65 -137c-32 -71.333 -49 -117 -51 -137l-130 -5c10.667 54.667 52 144.667 124 270c24 42 77.333 129 160 261h-333v112h475v-71z" />
    <glyph glyph-name="eight" unicode="8" horiz-adv-x="520" 
d="M496 168c0 -58 -26.667 -104 -80 -138c-46 -30 -99.667 -45 -161 -45c-62 0 -115 13.667 -159 41c-52.667 32.667 -79 78.334 -79 137.001c0 86 45 144 135 174l-1 2c-75.333 25.333 -113 74.333 -113 147c0 55.333 24.667 99 74 131c42 26.667 92.333 40 151 40
c59.333 0 108 -11.667 146 -35c46.667 -28 70 -69.667 70 -125c0 -37.333 -11.833 -69.833 -35.5 -97.5s-54.167 -46.834 -91.5 -57.501l-2 -2c97.333 -28.667 146 -86 146 -172zM366 484c0 28.667 -11.333 50.666 -34 65.999c-19.333 12.667 -44 19 -74 19
c-28 0 -52.333 -7 -73 -21c-22.667 -16 -34 -37.667 -34 -65c0 -49.333 40 -85 120 -107c26.667 6.66699 49.167 19.834 67.5 39.501s27.5 42.5 27.5 68.5zM381 165.999c0 32 -16.001 59.334 -48.001 82.001c-8 5.33301 -24.667 13.666 -50 24.999
c-27.333 12 -44.333 18 -51 18c-5.33301 0 -15.666 -3.33301 -30.999 -10c-45.333 -19.333 -68 -54.666 -68 -105.999c0 -34.667 12.333 -61.334 37 -80.001c22 -18 50.667 -27 86 -27c34 0 62.333 7.66699 85 23c26.667 18 40 43 40 75z" />
    <glyph glyph-name="nine" unicode="9" horiz-adv-x="520" 
d="M495 338c0 -235.333 -89.667 -353 -269 -353c-56 0 -111 17.667 -165 53v57c60.667 -13.333 112.334 -20 155.001 -20c56 0 97.667 25.667 125 77c21.333 39.333 33 90 35 152c-44 -52 -96.333 -78 -157 -78s-109.334 19 -146.001 57s-55 87.667 -55 149
c0 66 22 120 66 162s99.333 63 166 63c163.333 0 245 -106.333 245 -319zM369 421c0 39.333 -10.332 73.667 -30.999 103c-22.667 32.667 -53 49 -91 49c-34.667 0 -62.667 -13.667 -84 -41c-19.333 -24.667 -29 -55 -29 -91c0 -38 9.33301 -69.333 28 -94
c20.667 -27.333 49.667 -41 87 -41c33.333 0 61.666 11 84.999 33s35 49.333 35 82z" />
    <glyph glyph-name="colon" unicode=":" horiz-adv-x="242" 
d="M197 393c0 -20.667 -7.33301 -38.167 -22 -52.5s-32.334 -21.5 -53.001 -21.5s-38.5 7.16699 -53.5 21.5s-22.5 31.833 -22.5 52.5s7.5 38.167 22.5 52.5s32.833 21.5 53.5 21.5s38.334 -7.16699 53.001 -21.5s22 -31.833 22 -52.5zM197 58
c0 -20.667 -7.33301 -38.167 -22 -52.5s-32.334 -21.5 -53.001 -21.5s-38.5 7.16699 -53.5 21.5s-22.5 31.833 -22.5 52.5s7.5 38.167 22.5 52.5s32.833 21.5 53.5 21.5s38.334 -7.16699 53.001 -21.5s22 -31.833 22 -52.5z" />
    <glyph glyph-name="semicolon" unicode=";" horiz-adv-x="242" 
d="M197 393c0 -20.667 -7.33301 -38.167 -22 -52.5s-32.334 -21.5 -53.001 -21.5s-38.5 7.16699 -53.5 21.5s-22.5 31.833 -22.5 52.5s7.5 38.167 22.5 52.5s32.833 21.5 53.5 21.5s38.334 -7.16699 53.001 -21.5s22 -31.833 22 -52.5zM186 113
c0 -105.333 -24.667 -185.667 -74 -241l-45 20c4.66699 18.667 9.66699 37 15 55c5.33301 22 8 41 8 57c0 15.333 -3.33301 34 -10 56c-10 30 -15.667 47.667 -17 53h123z" />
    <glyph glyph-name="less" unicode="&#x3c;" horiz-adv-x="584" 
d="M546 34l-516 228v52l516 232v-61l-443 -199l443 -194v-58z" />
    <glyph glyph-name="equal" unicode="=" horiz-adv-x="549" 
d="M513 349h-483v52h483v-52zM513 174h-483v51h483v-51z" />
    <glyph glyph-name="greater" unicode="&#x3e;" horiz-adv-x="596" 
d="M557 261l-517 -227v58l444 193l-444 200v61l517 -233v-52z" />
    <glyph glyph-name="question" unicode="?" horiz-adv-x="467" 
d="M430 496c0 -41.333 -14.999 -77.334 -44.999 -108.001l-86 -71c-32 -27.333 -49 -56 -51 -86c-0.666992 -6 -0.666992 -13.333 0 -22c0.666992 -12 1 -19.667 1 -23h-109c-2 11.333 -3 22.333 -3 33c0 37.333 14.333 71 43 101l80 69c28.667 26.667 43 54.334 43 83.001
c0 33.333 -14.333 58.333 -43 75c-24 14 -53.667 21 -89 21c-50 0 -94 -9 -132 -27v58c49.333 38 109.666 57 180.999 57c55.333 0 102.333 -12.667 141 -38c46 -29.333 69 -70 69 -122zM269.001 56.999c0 -20.667 -7.33301 -38.167 -22 -52.5s-32.334 -21.5 -53.001 -21.5
s-38.5 7.16699 -53.5 21.5s-22.5 31.833 -22.5 52.5s7.5 38.167 22.5 52.5s32.833 21.5 53.5 21.5s38.334 -7.16699 53.001 -21.5s22 -31.833 22 -52.5z" />
    <glyph glyph-name="at" unicode="@" horiz-adv-x="948" 
d="M887 367c0 -78 -22 -150.334 -66 -217.001c-49.333 -74.667 -111.333 -112 -186 -112c-57.333 0 -86 28.667 -86 86c0 9.33301 0.666992 20.333 2 33l-1 2c-55.333 -81.333 -114.666 -122 -177.999 -122c-33.333 0 -59 12 -77 36s-27 53 -27 87
c0.666992 73.333 24 143.333 70 210c51.333 74 112 111 182 111c52.667 0 85 -27 97 -81l2 2l12 45l72 1l-76 -271c-5.33301 -19.333 -8 -36.666 -8 -51.999c0 -12 2.66699 -24 8 -36c7.33301 -15.333 17 -23 29 -23c36 0 73 22.667 111 68c30 36 53 74.833 69 116.5
s24 83.167 24 124.5c0 90 -32 163.333 -96 220c-61.333 54.667 -137.666 82 -228.999 82c-124 0 -226.333 -44.667 -307 -134c-78.667 -86.667 -118 -192.667 -118 -318c0 -112.667 37.333 -203.667 112 -273c72.667 -67.333 165.667 -101 279 -101
c146 0 261.667 62 347 186l20 -9c-39.333 -64.667 -92 -115 -158 -151s-137 -54 -213 -54c-124.667 0 -228.334 37.667 -311.001 113c-84.667 78 -127 179 -127 303c0 129.333 45.667 238.833 137 328.5s201.666 134.5 330.999 134.5c105.333 0 191 -29.333 257 -88
c68.667 -60.667 103 -143 103 -247zM597 371.999c0 22.667 -6.33301 42.833 -19 60.5s-30 26.5 -52 26.5c-46 0 -89.333 -38.667 -130 -116c-36 -68.667 -54 -128.667 -54 -180c0 -52.667 21.667 -79 65 -79c51.333 0 97 36 137 108c35.333 63.333 53 123.333 53 180z" />
    <glyph glyph-name="A" unicode="A" horiz-adv-x="619" 
d="M613 0h-149l-61 172h-235l-63 -172h-106l240 644h135zM371 265l-84 236l-85 -236h169z" />
    <glyph glyph-name="B" unicode="B" horiz-adv-x="565" 
d="M541 172c0 -60.667 -25.001 -106 -75.001 -136c-41.333 -24 -94.666 -36 -159.999 -36h-243v640h280c48.667 0 89.667 -12 123 -36c38 -27.333 57 -64.333 57 -111c0 -46 -17.333 -83.667 -52 -113c-30 -24.667 -69.667 -40.667 -119 -48v-3
c126 -10.667 189 -63 189 -157zM389.999 465c0 30 -11 53 -33 69c-19.333 14 -44.666 21 -75.999 21c-0.666992 0 -29 -2 -85 -6v-179c17.333 -1.33301 43.666 -3 78.999 -5c32 -0.666992 59.167 8 81.5 26s33.5 42.667 33.5 74zM405.999 181c0 34 -13 60.668 -39 80.001
c-23.333 16.667 -53 25 -89 25c-0.666992 0 -28 -1 -82 -3v-193c6 0 19.667 -0.666992 41 -2c17.333 -1.33301 31 -2 41 -2c33.333 0 62 7.33301 86 22c28 17.333 42 41.666 42 72.999z" />
    <glyph glyph-name="C" unicode="C" horiz-adv-x="577" 
d="M559 32c-63.333 -32 -138 -48 -224 -48c-92.667 0 -169 33.333 -229 100c-57.333 64.667 -86 144 -86 238s29.167 173.167 87.5 237.5s134.166 96.5 227.499 96.5c63.333 0 129 -19 197 -57v-75c-50.667 23.333 -101 35 -151 35c-64.667 0 -118.667 -24 -162 -72
s-65 -105 -65 -171c0 -69.333 16.667 -125.333 50 -168c36 -47.333 87.667 -71 155 -71c58.667 0 125.334 12.667 200.001 38v-83z" />
    <glyph glyph-name="D" unicode="D" horiz-adv-x="666" 
d="M639 341c0 -97.333 -29.667 -178.001 -89 -242.001c-61.333 -66 -140.333 -99 -237 -99h-250v640h295c82.667 0 150.667 -29.333 204 -88c51.333 -57.333 77 -127.666 77 -210.999zM502 336.999c0 62 -19.499 112.332 -58.499 150.999s-89.5 58.334 -151.5 59.001
c-10 0 -42 -1.66699 -96 -5v-442c55.333 -3.33301 88.333 -5 99 -5c67.333 0 119.666 24 156.999 72c33.333 44 50 100.667 50 170z" />
    <glyph glyph-name="E" unicode="E" horiz-adv-x="527" 
d="M502 0h-439v640h434v-95h-301v-172l268 -1v-90h-268v-187l306 -1v-94z" />
    <glyph glyph-name="F" unicode="F" horiz-adv-x="519" 
d="M497 545h-301v-172l268 -1v-90h-268v-282h-133v640h434v-95z" />
    <glyph glyph-name="G" unicode="G" horiz-adv-x="619" 
d="M556 35l-111.999 -32.999c-43.333 -12 -82 -18 -116 -18c-90 0 -164.333 34.333 -223 103c-56.667 65.333 -85 143.666 -85 234.999c0 94 29.167 173.167 87.5 237.5s134.166 96.5 227.499 96.5c64 0 130 -19 198 -57v-71c-51.333 21.333 -101 32 -149 32
c-66 0 -120.833 -24 -164.5 -72s-65.5 -105.333 -65.5 -172c0 -69.333 16.667 -125.333 50 -168c36 -47.333 87.667 -71 155 -71c22.667 0 43.667 2.33301 63 7v218h134v-267z" />
    <glyph glyph-name="H" unicode="H" horiz-adv-x="669" 
d="M601 0h-133v282h-272v-282h-133v640h133v-259h272v259h133v-640z" />
    <glyph glyph-name="I" unicode="I" horiz-adv-x="259" 
d="M196 0h-133v640h133v-640z" />
    <glyph glyph-name="J" unicode="J" horiz-adv-x="382" 
d="M314 -12c0 -66 -16.333 -118.999 -49 -158.999c-35.333 -42.667 -85.666 -64 -150.999 -64c-38.667 0 -75.334 9 -110.001 27l-1 61c24 -8 52.333 -12 85 -12c30.667 0 54.667 15.333 72 46c14 25.333 21 54.666 21 87.999v665h133v-652z" />
    <glyph glyph-name="K" unicode="K" horiz-adv-x="600" 
d="M589 0h-158l-235 301v-301h-133v640h133v-292l229 292h131l-240 -292z" />
    <glyph glyph-name="L" unicode="L" horiz-adv-x="472" 
d="M469 0h-406v640h133v-545h273v-95z" />
    <glyph glyph-name="M" unicode="M" horiz-adv-x="793" 
d="M724 0h-111l-1 538l-177 -503h-97l-165 460v-495h-110v640h185l151 -442l156 442h169v-640z" />
    <glyph glyph-name="N" unicode="N" horiz-adv-x="655" 
d="M589 -2h-137l-279 466v-464h-110v640h145l270 -453v453h111v-642z" />
    <glyph glyph-name="O" unicode="O" horiz-adv-x="672" 
d="M648 323c0 -97.333 -27.333 -177.332 -82 -239.999c-58 -66 -135 -99 -231 -99c-96.667 0 -173.667 32.333 -231 97c-55.333 62 -83 142 -83 240c0 94.667 28.667 174.167 86 238.5s133 96.5 227 96.5c98 0 175.333 -31.333 232 -94
c54.667 -60.667 82 -140.334 82 -239.001zM514 323.001c0 66 -13 119.668 -39 161.001c-31.333 50 -78 75 -140 75s-108.667 -25 -140 -75c-26 -42 -39 -95.667 -39 -161c0 -66.667 13 -122 39 -166c31.333 -53.333 78 -80 140 -80c62.667 0 109.667 26.667 141 80
c25.333 43.333 38 98.666 38 165.999z" />
    <glyph glyph-name="P" unicode="P" horiz-adv-x="558" 
d="M540 452c0 -68 -28 -121.999 -84 -161.999c-50 -36.667 -110.333 -55 -181 -55h-79v-235h-133v640h270c64 0 114 -15 150 -45c38 -32.667 57 -80.334 57 -143.001zM406 445.001c0 39.333 -11.999 66.667 -35.999 82c-18.667 12.667 -48.667 19 -90 19
c-18.667 0 -46.667 -1.33301 -84 -4v-215c18 -1.33301 45 -3 81 -5c35.333 -0.666992 65.666 11 90.999 35s38 53.333 38 88z" />
    <glyph glyph-name="Q" unicode="Q" horiz-adv-x="672" 
d="M648 322c0 -74 -16.334 -138.666 -49.001 -193.999c-35.333 -61.333 -86 -103.333 -152 -126h1c10 -20.667 36 -41.334 78 -62.001c36.667 -18 68.667 -28.667 96 -32l-110 -31c-84.667 15.333 -155 52.333 -211 111l-5 -1c-87.333 8.66699 -155.666 45 -204.999 109
c-46.667 60 -70 135 -70 225c0 95.333 28.333 174.333 85 237c58.667 65.333 135 98 229 98c98 0 175.333 -31.333 232 -94c54 -60.667 81 -140.667 81 -240zM514.999 323.001c0 65.333 -13.335 119 -40.002 161c-31.333 50 -77.666 75 -138.999 75
s-107.666 -25 -138.999 -75c-26.667 -42 -40 -95.667 -40 -161c0 -66 13 -121 39 -165c31.333 -54 78 -81 140 -81s108.667 27 140 81c26 44 39 99 39 165z" />
    <glyph glyph-name="R" unicode="R" horiz-adv-x="598" 
d="M587 0l-164 -0.000976562l-196 276h-31v-276h-133v640h280c53.333 0 98.333 -14 135 -42c39.333 -30 59 -71 59 -123c0 -52.667 -15 -95.167 -45 -127.5s-71.333 -52.166 -124 -59.499zM402 457.999c0 60 -36.333 90 -109 90c-12 0 -28 -0.666992 -48 -2
c-26 -1.33301 -42.333 -2 -49 -2v-193c42 -3.33301 67.333 -5 76 -5c35.333 0 65.833 10 91.5 30s38.5 47.333 38.5 82z" />
    <glyph glyph-name="S" unicode="S" horiz-adv-x="480" 
d="M461 183c0 -61.333 -24.335 -110.669 -73.002 -148.002c-44.667 -34 -98.667 -51 -162 -51c-32.667 0 -68 4.33301 -106 13c-41.333 9.33301 -74.666 21.666 -99.999 36.999v97c22.667 -14.667 54 -27.5 94 -38.5s74 -16.5 102 -16.5c30.667 0 57 6 79 18
c27.333 14.667 41 36.334 41 65.001c0 34.667 -26.667 64.667 -80 90c-95.333 45.333 -145 69.333 -149 72c-53.333 36.667 -80 86.334 -80 149.001c0 54.667 23 100 69 136c42 33.333 91.333 50 148 50c62.667 0 121.334 -15 176.001 -45v-72
c-28 15.333 -71.667 23.333 -131 24c-34.667 0.666992 -64 -4.66602 -88 -15.999c-32.667 -14 -49 -36.333 -49 -67c0 -26 26.667 -52.333 80 -79c86 -42 135.667 -67.667 149 -77c53.333 -38.667 80 -85.667 80 -141z" />
    <glyph glyph-name="T" unicode="T" horiz-adv-x="554" 
d="M553 546h-210v-546h-133l-1 546h-209v94h553v-94z" />
    <glyph glyph-name="U" unicode="U" horiz-adv-x="644" 
d="M582 254c0 -90 -20 -156.999 -60 -200.999c-42 -46 -107.667 -69 -197 -69c-176 0 -264 88 -264 264v392h132v-375c0 -62.667 7.33301 -107.334 22 -134.001c20 -38 58.667 -57 116 -57c58 0 96.667 19 116 57c12.667 26 19 71 19 135v374h116v-386z" />
    <glyph glyph-name="V" unicode="V" horiz-adv-x="606" 
d="M603 640l-240 -644h-121l-239 644h148l171 -482l175 482h106z" />
    <glyph glyph-name="W" unicode="W" horiz-adv-x="864" 
d="M848 640l-178 -644h-121l-122 434l-121 -434h-121l-182 644h143l117 -472l120 472h128l116 -472l120 472h101z" />
    <glyph glyph-name="X" unicode="X" horiz-adv-x="580" 
d="M573 0h-151l-148 246l-156 -246h-115l205 322l-191 318h150l138 -234l151 234h114l-200 -308z" />
    <glyph glyph-name="Y" unicode="Y" horiz-adv-x="587" 
d="M591 640l-233 -373v-267h-133v253l-221 387h147l158 -280l173 280h109z" />
    <glyph glyph-name="Z" unicode="Z" horiz-adv-x="517" 
d="M489 0h-465v91l307 452h-299v97h453v-95l-304 -450h308v-95z" />
    <glyph glyph-name="bracketleft" unicode="[" horiz-adv-x="283" 
d="M250 -64h-195v726h195v-69h-82v-587h82v-70z" />
    <glyph glyph-name="backslash" unicode="\" horiz-adv-x="451" 
d="M468 -48l-91 -24l-395 718l90 24z" />
    <glyph glyph-name="bracketright" unicode="]" horiz-adv-x="283" 
d="M225 -64h-193v70h80v587h-80v69h193v-726z" />
    <glyph glyph-name="asciicircum" unicode="^" horiz-adv-x="541" 
d="M509 197h-94l-146 286l-145 -286h-94l220 426h48z" />
    <glyph glyph-name="underscore" unicode="_" horiz-adv-x="422" 
d="M438 -81h-456v46h456v-46z" />
    <glyph glyph-name="grave" unicode="`" horiz-adv-x="391" 
d="M269 575h-61l-144 115h127z" />
    <glyph glyph-name="a" unicode="a" horiz-adv-x="515" 
d="M484 0c-8.66699 0 -25.0029 -0.999023 -49.0029 -2.99902c-20.667 -2 -37 -3 -49 -3c-21.333 0 -35.666 9 -42.999 27c-1.33301 2.66699 -4.66602 20.334 -9.99902 53.001c-18.667 -24.667 -43.167 -45.334 -73.5 -62.001s-60.5 -25 -90.5 -25
c-42.667 0 -79 13.167 -109 39.5s-45 60.5 -45 102.5c0 72.667 35.667 124 107 154c46 19.333 113.333 30.666 202 33.999v30c0 27.333 -9.66699 48.5 -29 63.5s-43.333 22.5 -72 22.5c-55.333 0 -106 -7.66699 -152 -23v56c58 35.333 117.667 53 179 53
c56 0 102.333 -12 139 -36c42.667 -28 64 -68.667 64 -122v-192c0 -74.667 3.66699 -115 11 -121c2.66699 -2 9.33398 -3 20.001 -3v-45zM323.997 247.001c-42.667 -2 -80 -9.33203 -112 -21.999c-45.333 -18.667 -68 -44.334 -68 -77.001
c0 -22.667 6.83301 -41.167 20.5 -55.5s31.5 -21.5 53.5 -21.5c28 0 52.667 10.333 74 31s32 45 32 73v72z" />
    <glyph glyph-name="b" unicode="b" horiz-adv-x="578" 
d="M553 260c0 -72.667 -16 -134 -48 -184c-38 -59.333 -91.333 -89 -160 -89c-22 0 -48 2.66699 -78 8c-33.333 6 -58.333 13.333 -75 22l-1 -17h-133v697h133v-261c20.667 25.333 46.667 45.5 78 60.5s63 22.5 95 22.5c67.333 0 117.333 -27.667 150 -83
c26 -45.333 39 -104 39 -176zM421 247c0 43.333 -8 79.333 -24 108c-20.667 35.333 -51 53 -91 53c-31.333 0 -58 -8.66699 -80 -26c-23.333 -19.333 -35 -44.333 -35 -75l1 -214c35.333 -10 69 -15 101 -15c42.667 0 75.667 18.333 99 55c19.333 30.667 29 68.667 29 114z
" />
    <glyph glyph-name="c" unicode="c" horiz-adv-x="481" 
d="M468 21c-50.667 -22.667 -111.333 -34 -182 -34c-79.333 0 -143.333 25 -192 75s-73 115 -73 195c0 75.333 22.833 137.833 68.5 187.5s105.834 74.5 180.501 74.5c53.333 0 109.666 -18 168.999 -54v-65c-13.333 8 -35.333 15 -66 21c-28 5.33301 -52 8 -72 8
c-50 0 -87.667 -16.667 -113 -50c-22.667 -30 -34 -70.667 -34 -122c0 -54 15.167 -97.667 45.5 -131s71.833 -50 124.5 -50c56 0 104 7.66699 144 23v-78z" />
    <glyph glyph-name="d" unicode="d" 
d="M520 0l-133.001 -0.000976562v47c-64 -40 -118.667 -60 -164 -60c-70 0 -122 26.667 -156 80c-28 44.667 -42 104 -42 178c0 76.667 15.667 139.334 47 188.001c36.667 57.333 91.334 86 164.001 86c68.667 0 119 -26 151 -78v256h133v-697zM386.999 114.999
l0.000976562 181.999c0 32.667 -11 59.334 -33 80.001s-49.333 31 -82 31c-40 0 -70 -17.667 -90 -53c-16.667 -28.667 -25 -64.667 -25 -108c0 -42 9.33301 -79 28 -111c22.667 -38.667 53.667 -58 93 -58c35.333 0 71.666 12.333 108.999 37z" />
    <glyph glyph-name="e" unicode="e" horiz-adv-x="521" 
d="M486 261c0 -7.33301 -0.666016 -18.998 -1.99902 -34.998h-329c1.33301 -48.667 18 -86.334 50 -113.001c29.333 -24.667 69 -37 119 -37c17.333 0 41.666 2.33301 72.999 7c34 5.33301 57.667 10.666 71 15.999v-78c-52 -22.667 -112.667 -34 -182 -34
c-79.333 0 -143.333 25 -192 75s-73 115 -73 195c0 78 21.833 141.167 65.5 189.5s104.167 72.5 181.5 72.5c73.333 0 129 -25.333 167 -76c34 -45.333 51 -106 51 -182zM377.001 309.002c-1.33301 35.333 -10.668 64.333 -28.001 87c-20 25.333 -47 38 -81 38
c-31.333 0 -57.666 -13.333 -78.999 -40c-20 -24 -31.333 -52.333 -34 -85h222z" />
    <glyph glyph-name="f" unicode="f" horiz-adv-x="371" 
d="M366 605c-21.333 3.33301 -40.668 5 -58.001 5c-34.667 0 -58.667 -9.66699 -72 -29c-11.333 -16.667 -17 -42.667 -17 -78h140v-79h-139v-424h-134l-1 424h-82v79h82c0 57.333 13 102.333 39 135c28.667 35.333 71.334 53 128.001 53c38 0 76 -10.333 114 -31v-55z" />
    <glyph glyph-name="g" unicode="g" horiz-adv-x="532" 
d="M502 431c-10 2.66699 -31.333 4.66602 -64 5.99902c23.333 -30 35 -66 35 -108c0 -59.333 -25 -107.666 -75 -144.999c-45.333 -34.667 -98.333 -52 -159 -52c-18 0 -38.667 2.33301 -62 7c-11.333 -16.667 -17 -28.667 -17 -36c0 -14.667 13.333 -23.334 40 -26.001h55
c70 0 122.333 -6 157 -18c57.333 -20 86 -58.333 86 -115c0 -61.333 -35.333 -107.333 -106 -138c-53.333 -23.333 -115.666 -35 -186.999 -35c-62.667 0 -123 16.667 -181 50v76c45.333 -30 106.666 -45 183.999 -45c38 0 73.667 5.33301 107 16c46 15.333 69 38 69 68
c0 29.333 -23.333 48 -70 56c-16 2.66699 -50.333 4 -103 4c-36.667 0 -68.667 3.33301 -96 10c-44.667 10.667 -67 28.334 -67 53.001c0 26 22 61 66 105c-58 36 -87 90.667 -87 164c0 127.333 73.333 191 220 191c32 0 60.667 -3.66699 86 -11l169 15v-92zM349 327.999
c0 32 -8.83301 58.667 -26.5 80s-42.167 32 -73.5 32c-30.667 0 -54.667 -10.833 -72 -32.5s-26 -48.167 -26 -79.5c0 -32.667 8 -60.667 24 -84c18 -26.667 42.667 -40 74 -40s56.333 13.333 75 40c16.667 23.333 25 51.333 25 84z" />
    <glyph glyph-name="h" unicode="h" 
d="M526 0h-133v304c0 34.667 -4 59.667 -12 75c-10.667 22.667 -31.667 34 -63 34c-39.333 0 -80 -13.333 -122 -40v-373h-133v697h133v-254c24 20 51.667 37.333 83 52c34.667 16 65.667 24 93 24c51.333 0 90.333 -17 117 -51c24.667 -31.333 37 -73.333 37 -126v-342z
" />
    <glyph glyph-name="i" unicode="i" horiz-adv-x="256" 
d="M201 637c0 -19.333 -7 -35.833 -21 -49.5s-30.667 -20.5 -50 -20.5s-36 6.83301 -50 20.5s-21 30.167 -21 49.5s7 35.833 21 49.5s30.667 20.5 50 20.5s36 -6.83301 50 -20.5s21 -30.167 21 -49.5zM196 0h-133v503h133v-503z" />
    <glyph glyph-name="j" unicode="j" horiz-adv-x="270" 
d="M217 637c0 -19.333 -7 -35.833 -21 -49.5s-30.667 -20.5 -50 -20.5s-36 6.83301 -50 20.5s-21 30.167 -21 49.5s7 35.833 21 49.5s30.667 20.5 50 20.5s36 -6.83301 50 -20.5s21 -30.167 21 -49.5zM211 503l0.000976562 -517c0 -146 -56.333 -219 -169 -219
c-30 0 -66.333 5.33301 -109 16v55c15.333 -1.33301 35.333 -2 60 -2c39.333 0.666992 64.666 16 75.999 46c6.66699 16.667 10 49 10 97v524h132z" />
    <glyph glyph-name="k" unicode="k" horiz-adv-x="527" 
d="M526 0h-160l-170 239v-239h-133v697h133v-428l191 234h124l-195 -231z" />
    <glyph glyph-name="l" unicode="l" horiz-adv-x="259" 
d="M196 0h-133v697h133v-697z" />
    <glyph glyph-name="m" unicode="m" horiz-adv-x="882" 
d="M822 0h-132.998v304c0 76 -26.667 114 -80 114c-32.667 0 -67.334 -11.667 -104.001 -35c2.66699 -11.333 4 -25 4 -41v-342h-133v304c0 34.667 -4 60.667 -12 78c-12 24 -33.333 36 -64 36c-34.667 0 -69.334 -11.667 -104.001 -35v-383h-133v503h133v-50
c56 44 110.667 66 164 66c60.667 0 103.334 -25 128.001 -75c75.333 50 135.333 75 180 75c51.333 0 90.666 -17 117.999 -51c24 -31.333 36 -73.333 36 -126v-342z" />
    <glyph glyph-name="n" unicode="n" 
d="M526 0h-133v304c0 35.333 -4 61.333 -12 78c-11.333 24 -32.333 36 -63 36c-39.333 0 -80 -11.667 -122 -35v-383h-133v503h133v-50c61.333 44 120 66 176 66c51.333 0 90.333 -17 117 -51c24.667 -31.333 37 -73.333 37 -126v-342z" />
    <glyph glyph-name="o" unicode="o" horiz-adv-x="569" 
d="M544 257c0 -85.333 -22.333 -151.668 -67 -199.001s-109.334 -71 -194.001 -71c-84 0 -148.5 23.833 -193.5 71.5s-67.5 113.834 -67.5 198.501s22.333 149.5 67 194.5s109.334 67.5 194.001 67.5c82 0 146 -23.167 192 -69.5s69 -110.5 69 -192.5zM413 254.998
c0 47.333 -9.66504 86.666 -28.998 117.999c-22.667 37.333 -56.334 56 -101.001 56s-78.334 -18.667 -101.001 -56c-18.667 -31.333 -28 -70.666 -28 -117.999c0 -49.333 9 -90.333 27 -123c22.667 -40.667 56.667 -61 102 -61c46 0 80.333 20.333 103 61
c18 32 27 73 27 123z" />
    <glyph glyph-name="p" unicode="p" 
d="M558 257c0 -74.667 -15.667 -136.667 -47 -186c-38 -58 -92 -87 -162 -87c-70.667 0 -121.667 26 -153 78v-256h-133v697h133v-47c63.333 40 119.666 60 168.999 60c68.667 0 119.334 -27.333 152.001 -82c27.333 -44.667 41 -103.667 41 -177zM427 256
c0 42 -9.66699 79.334 -29 112.001c-22.667 38.667 -54 58 -94 58c-32.667 0 -68.667 -12.667 -108 -38v-182c0 -32.667 11 -59.334 33 -80.001s49.333 -31 82 -31c40 0 70.333 17.667 91 53c16.667 28.667 25 64.667 25 108z" />
    <glyph glyph-name="q" unicode="q" horiz-adv-x="578" 
d="M520 -194l-133 -0.000976562v261c-20.667 -25.333 -46.667 -45.5 -78 -60.5s-63 -22.5 -95 -22.5c-67.333 0 -117.333 27.667 -150 83c-26 45.333 -39 104 -39 176c0 72.667 16 134.334 48 185.001c38 58.667 91.333 88 160 88c22 0 48 -2.66699 78 -8
c33.333 -6 58.333 -13.333 75 -22l1 17h133v-697zM387 195.999l-0.999023 213.999c-35.333 10 -69 15 -101 15c-42.667 0 -75.334 -18 -98.001 -54c-20 -31.333 -30 -69.666 -30 -114.999c0 -43.333 8.33301 -79.333 25 -108c20 -35.333 50 -53 90 -53
c31.333 0 58.333 9.16699 81 27.5s34 42.833 34 73.5z" />
    <glyph glyph-name="r" unicode="r" horiz-adv-x="390" 
d="M371 400c-14.667 10 -33.667 14.668 -57 14.001c-20 -0.666992 -41.167 -6.33398 -63.5 -17.001s-40.5 -23.667 -54.5 -39v-358h-133v503h133l1 -66c11.333 22.667 34 42.667 68 60c32 15.333 61.333 23 88 23c8 0 14 -0.333008 18 -1v-119z" />
    <glyph glyph-name="s" unicode="s" horiz-adv-x="450" 
d="M421 150c0 -52 -22.001 -92.998 -66.001 -122.998c-38.667 -26.667 -85 -40 -139 -40c-70 0 -131 15.667 -183 47v91c20 -10.667 48.333 -22 85 -34c41.333 -13.333 72.333 -20 93 -20c22 0 41 4.66699 57 14c18.667 11.333 28 27.333 28 48
c0 23.333 -22.333 43.666 -67 60.999c-74 28.667 -116 46 -126 52c-44.667 27.333 -67 64.666 -67 111.999c0 50.667 20.667 91 62 121c36.667 26.667 81.334 40 134.001 40c43.333 0 95 -14.333 155 -43v-66c-32.667 15.333 -73 23 -121 23c-70.667 0 -106 -20 -106 -60
c0 -24.667 22.667 -45 68 -61c74 -26.667 115.667 -42.667 125 -48c45.333 -26.667 68 -64.667 68 -114z" />
    <glyph glyph-name="t" unicode="t" horiz-adv-x="362" 
d="M361 26c-34.667 -26 -76 -39.002 -124 -39.002c-51.333 0 -91.333 17 -120 51c-26.667 32 -40 74 -40 126v260h-68v52c38 12.667 66.333 28.834 85 48.501s34.667 48.834 48 87.501l69 12v-121h138v-79h-141v-249c0 -68.667 30 -103 90 -103c21.333 0 42.333 2 63 6v-52z
" />
    <glyph glyph-name="u" unicode="u" 
d="M519 0h-133v60c-24 -20 -51.667 -37.333 -83 -52c-34.667 -16 -65.667 -24 -93 -24c-51.333 0 -90.333 17 -117 51c-24.667 31.333 -37 73.333 -37 126v342h133v-304c0 -34.667 4 -59.667 12 -75c10.667 -22.667 31.667 -34 63 -34c39.333 0 80 13.333 122 40v373h133
v-503z" />
    <glyph glyph-name="v" unicode="v" horiz-adv-x="531" 
d="M531 503l-211 -506h-114l-205 506h149l131 -355l149 355h101z" />
    <glyph glyph-name="w" unicode="w" horiz-adv-x="767" 
d="M762 503l-163 -506h-110l-106 317l-102 -317h-110l-170 506h139l104 -351l109 351h105l104 -351l109 351h91z" />
    <glyph glyph-name="x" unicode="x" horiz-adv-x="505" 
d="M505 0h-148l-118 179l-131 -179h-113l184 248l-174 255h149l111 -169l126 169h109l-175 -236z" />
    <glyph glyph-name="y" unicode="y" horiz-adv-x="532" 
d="M533 506l-311 -741h-136l122 246l-208 495h149l133 -347l147 347h104z" />
    <glyph glyph-name="z" unicode="z" horiz-adv-x="498" 
d="M458 0h-420v91l269 327l-265 1v87h410v-94l-269 -326l275 -1v-85z" />
    <glyph glyph-name="braceleft" unicode="{" horiz-adv-x="275" 
d="M245 -99l-86 -0.00195312c-51.333 0 -77 19 -77 57v294c0 30 -13.667 50 -41 60v6c27.333 10.667 41 30.334 41 59.001v295c0 37.333 25.667 56 77 56h86v-48c-28.667 0 -46.667 -2.33301 -54 -7c-11.333 -6.66699 -17 -23 -17 -49v-241
c0 -17.333 -6.66699 -32.166 -20 -44.499s-29 -19.5 -47 -21.5v-4c18 -2 33.667 -9.16699 47 -21.5s20 -27.5 20 -45.5v-240c0 -26 5.66699 -42.333 17 -49c7.33301 -4.66699 25.333 -7 54 -7v-49z" />
    <glyph glyph-name="bar" unicode="|" horiz-adv-x="338" 
d="M185 -136h-32v920h32v-920z" />
    <glyph glyph-name="braceright" unicode="}" horiz-adv-x="248" 
d="M224 312c-27.333 -10.667 -41 -30.667 -41 -60v-294c0 -38 -25.333 -57 -76 -57h-87v49c28.667 0 46.667 2.33301 54 7c11.333 6.66699 17 23 17 49v239c0 18 6.66699 33.333 20 46s29.333 20 48 22v5c-18 2 -33.833 9 -47.5 21s-20.5 26.667 -20.5 44v241
c0 26 -5.66699 42.333 -17 49c-7.33301 4.66699 -25.333 7 -54 7v48h87c50.667 0 76 -18.667 76 -56v-294c0 -29.333 13.667 -49.333 41 -60v-6z" />
    <glyph glyph-name="asciitilde" unicode="~" horiz-adv-x="558" 
d="M481 280c-26.667 -18 -65.666 -27 -116.999 -27c-21.333 0 -52.833 5.33301 -94.5 16s-73.5 16 -95.5 16c-44 0 -77.667 -11 -101 -33l-1 76c27.333 18 66 27 116 27c22 0 53.833 -5.5 95.5 -16.5s73.167 -16.5 94.5 -16.5c41.333 0 75.666 11 102.999 33v-75z" />
    <glyph glyph-name="uni00A0" unicode="&#xa0;" horiz-adv-x="422" 
 />
    <glyph glyph-name="exclamdown" unicode="&#xa1;" horiz-adv-x="225" 
d="M189 435c0 -20.667 -7.5 -38.167 -22.5 -52.5s-32.833 -21.5 -53.5 -21.5s-38.334 7.16699 -53.001 21.5s-22 31.833 -22 52.5s7.33301 38.167 22 52.5s32.334 21.5 53.001 21.5s38.5 -7.16699 53.5 -21.5s22.5 -31.833 22.5 -52.5zM180 -147h-132l26 442h81z" />
    <glyph glyph-name="cent" unicode="&#xa2;" horiz-adv-x="481" 
d="M468 41c-46 -32 -100.001 -49.666 -162.001 -52.999v-45h-37v44c-75.333 3.33301 -135.5 30.166 -180.5 80.499s-67.5 113.5 -67.5 189.5c0 75.333 22.833 137.833 68.5 187.5s105.5 74.5 179.5 74.5v49h37v-51c48.667 -4 93 -18 133 -42v-85c-12 10 -33.333 19 -64 27
c-26 6.66699 -49 10.667 -69 12v-353h16c72.667 0 121.334 7.66699 146.001 23v-58zM268.999 82.001v344.999c-76.667 -14 -115 -71 -115 -171c0 -41.333 9.33301 -77 28 -107c20.667 -33.333 49.667 -55.666 87 -66.999z" />
    <glyph glyph-name="sterling" unicode="&#xa3;" horiz-adv-x="521" 
d="M489 18c-8.66699 -4.66699 -29.6689 -9.00195 -63.002 -13.002c-28.667 -3.33301 -50.667 -5 -66 -5c-17.333 0 -43.666 1.66699 -78.999 5s-62 5 -80 5c-58.667 0 -98 -6 -118 -18l-23 96c27.333 14.667 48 37.334 62 68.001c6.66699 14.667 10.667 34.667 12 60
c0.666992 21.333 1 42.333 1 63l-58 1v78h54c-2.66699 14.667 -4 37.667 -4 69c0 66 16.333 119 49 159c36 43.333 86.333 65 151 65c53.333 0 104.666 -13.667 153.999 -41l-31 -60c-36 12.667 -66 19 -90 19c-32.667 0.666992 -58 -8.66602 -76 -27.999
s-27 -45.666 -27 -78.999c0 -46.667 0.666992 -81.334 2 -104.001h125v-78h-129c-1.33301 -78 -31.666 -138.667 -90.999 -182l3 -1c20.667 6.66699 50.334 10 89.001 10c12.667 0 31 -1.5 55 -4.5s42 -4.5 54 -4.5c14.667 0 36 3.33301 64 10
c30.667 7.33301 50.667 14.333 60 21v-111z" />
    <glyph glyph-name="yen" unicode="&#xa5;" horiz-adv-x="587" 
d="M591 640l-174.001 -279l98 -1v-47h-129l-28 -46v-42h157v-46l-157 -1v-178h-133l-1 178l-170 1v46l170 1c-1.33301 31.333 -12.666 60.333 -33.999 87h-136v47l108 1l-158 279h147l158 -279c1.33301 1.33301 59 94.333 173 279h109z" />
    <glyph glyph-name="brokenbar" unicode="&#xa6;" horiz-adv-x="239" 
d="M149 686v-294h-59v294h59zM149 278v-294h-59v294h59z" />
    <glyph glyph-name="section" unicode="&#xa7;" horiz-adv-x="511" 
d="M438 78c0 -50 -20.334 -89.666 -61.001 -118.999c-36.667 -25.333 -81 -38 -133 -38c-57.333 0 -111 15.667 -161 47v80c18.667 -16 44.334 -29.333 77.001 -40c30.667 -10 59 -15 85 -15c24 0 44.667 6 62 18c20 12.667 30 30.334 30 53.001
c0 27.333 -22.333 49.666 -67 66.999c-78.667 30.667 -120.334 47.334 -125.001 50.001c-44.667 26.667 -67 65 -67 115c0 56.667 26.333 99.667 79 129c-52.667 27.333 -79 67.666 -79 120.999c0 47.333 19 85.666 57 114.999c35.333 26 77.333 39 126 39s98 -11 148 -33
v-62c-36 17.333 -73.667 26 -113 26c-29.333 0 -54.666 -5 -75.999 -15c-28 -12.667 -42 -31.667 -42 -57c0 -26.667 22.333 -48.667 67 -66c78 -30 120 -46.667 126 -50c44.667 -26.667 67 -65 67 -115c0 -56.667 -26 -100 -78 -130c52 -25.333 78 -65.333 78 -120z
M336.999 315.001c0 27.333 -20.667 49.001 -62 65.001c-64.667 -6 -97 -30 -97 -72c0 -26.667 21.333 -48.334 64 -65.001h3c24 0 44.667 6 62 18c20 13.333 30 31.333 30 54z" />
    <glyph glyph-name="dieresis" unicode="&#xa8;" horiz-adv-x="391" 
d="M342 624c0 -14.667 -5.33496 -26.834 -16.002 -36.501s-23.667 -14.5 -39 -14.5s-28.666 5.33301 -39.999 16s-17 23.334 -17 38.001s5.33301 27 16 37s23.334 15 38.001 15c15.333 0 28.833 -5.33301 40.5 -16s17.5 -23.667 17.5 -39zM157.998 625
c0 -14.667 -5.33203 -27.002 -15.999 -37.002s-23.667 -15 -39 -15s-28.333 5.33301 -39 16s-16 23.334 -16 38.001s5.16699 27 15.5 37s22.833 15 37.5 15c15.333 0 28.666 -5.16699 39.999 -15.5s17 -23.166 17 -38.499z" />
    <glyph glyph-name="copyright" unicode="&#xa9;" horiz-adv-x="775" 
d="M734 331c0 -95.333 -33.833 -176.833 -101.5 -244.5s-149.167 -101.5 -244.5 -101.5s-176.833 33.833 -244.5 101.5s-101.5 149.167 -101.5 244.5s33.833 176.666 101.5 243.999s149.167 101 244.5 101s176.833 -33.667 244.5 -101s101.5 -148.666 101.5 -243.999z
M699 331c0 85.333 -30.5 158.333 -91.5 219s-134.167 91 -219.5 91s-158.5 -30.333 -219.5 -91s-91.5 -133.667 -91.5 -219c0 -86 30.333 -159.333 91 -220s134 -91 220 -91c85.333 0 158.5 30.5 219.5 91.5s91.5 134.167 91.5 219.5zM560 206
c-44 -56.667 -99.0029 -84.667 -165.003 -84c-59.333 0 -107.333 18.5 -144 55.5s-55 84.833 -55 143.5c0 62 19.833 113.167 59.5 153.5s90.5 60.833 152.5 61.5c11.333 0 27.833 -2.5 49.5 -7.5s37.834 -7.5 48.501 -7.5c12.667 0 20.334 5 23.001 15h19l7 -132l-20 -1
c-8.66699 31.333 -23.667 56.666 -45 75.999c-23.333 20 -50.666 30 -81.999 30c-44 0 -79 -22 -105 -66c-22.667 -37.333 -34 -79.666 -34 -126.999c0 -46 10.333 -83.333 31 -112c24 -33.333 58 -50 102 -50c55.333 0 101 20.333 137 61z" />
    <glyph glyph-name="ordfeminine" unicode="&#xaa;" horiz-adv-x="322" 
d="M306 386c-16.667 -2.66699 -37.668 -4.00098 -63.001 -4.00098c-13.333 0 -22.333 4.66699 -27 14c-2.66699 5.33301 -4.66699 16 -6 32h-1c-22.667 -33.333 -58 -50 -106 -50c-26 0 -48.667 6.33301 -68 19c-22 14.667 -33 34.334 -33 59.001c0 30 12.333 53 37 69
c18 12 44.667 20.667 80 26l83 8v16c0 14.667 -6.16699 26.167 -18.5 34.5s-25.833 12.5 -40.5 12.5c-31.333 0 -65 -4.33301 -101 -13v29c38.667 21.333 76.667 32 114 32c34.667 0 63.334 -6 86.001 -18c29.333 -14.667 44 -37.667 44 -69v-105
c0 -33.333 -0.333008 -47 -1 -41c2 -17.333 9 -26.333 21 -27v-24zM201.999 478.999v41c-76.667 -8 -115 -24.667 -115 -50c0 -29.333 15.667 -44 47 -44c17.333 0 33 4.66699 47 14s21 22.333 21 39z" />
    <glyph glyph-name="guillemotleft" unicode="&#xab;" horiz-adv-x="434" 
d="M405 119l-72 -18l-126 175l126 174l72 -19l-81 -155zM225 119l-72 -18l-126 175l126 174l72 -19l-83 -155z" />
    <glyph glyph-name="minus" unicode="&#xad;" horiz-adv-x="500" 
d="M443 230v-49h-385v49h385z" />
    <glyph glyph-name="minus" unicode="&#x2212;" horiz-adv-x="500" 
d="M443 230v-49h-385v49h385z" />
    <glyph glyph-name="registered" unicode="&#xae;" horiz-adv-x="775" 
d="M733 328c0 -95.333 -33.833 -176.666 -101.5 -243.999s-149.167 -101 -244.5 -101s-176.666 33.667 -243.999 101s-101 148.666 -101 243.999s33.667 176.833 101 244.5s148.666 101.5 243.999 101.5s176.833 -33.833 244.5 -101.5s101.5 -149.167 101.5 -244.5zM698 328
c0 86 -30.333 159.333 -91 220s-134 91 -220 91s-159.167 -30.333 -219.5 -91s-90.5 -134 -90.5 -220s30.167 -159.333 90.5 -220s133.5 -91 219.5 -91s159.333 30.333 220 91s91 134 91 220zM586 136l-93 0.00195312l-138 187h-32v-140c0 -20 17.667 -30 53 -30v-17h-170
v16c18.667 0 31.667 3.5 39 10.5s11 19.5 11 37.5v271c0 21.333 -2.33301 34.833 -7 40.5s-17 8.5 -37 8.5v18h177c36 0 66.667 -8.66699 92 -26c29.333 -20 44 -47.333 44 -82c0 -26.667 -9.33301 -48.834 -28 -66.501s-42 -28.5 -70 -32.5l111 -149
c14 -18.667 30 -28.334 48 -29.001v-17zM459 428.002c0 50.667 -39 75.999 -117 75.999c-8.66699 0 -15 -0.333008 -19 -1l-1 -158c91.333 8.66699 137 36.334 137 83.001z" />
    <glyph glyph-name="uni02C9" unicode="&#xaf;" horiz-adv-x="391" 
d="M341 585h-292v72h292v-72z" />
    <glyph glyph-name="uni02C9" unicode="&#x2c9;" horiz-adv-x="391" 
d="M341 585h-292v72h292v-72z" />
    <glyph glyph-name="degree" unicode="&#xb0;" horiz-adv-x="321" 
d="M281 594c0 -33.333 -11.335 -61.999 -34.002 -85.999s-50.667 -36 -84 -36s-61.666 11.833 -84.999 35.5s-35 52.167 -35 85.5s11.833 61.666 35.5 84.999s51.834 35 84.501 35c32 0 59.667 -11.833 83 -35.5s35 -51.5 35 -83.5zM247.998 593.001
c0 23.333 -8.5 43.666 -25.5 60.999s-37.167 26 -60.5 26c-24 0 -44.333 -8.83301 -61 -26.5s-25 -38.5 -25 -62.5s8.5 -44.667 25.5 -62s37.5 -26 61.5 -26s44.167 8.83301 60.5 26.5s24.5 38.834 24.5 63.501z" />
    <glyph glyph-name="uni00B2" unicode="&#xb2;" horiz-adv-x="286" 
d="M16 287l-0.00292969 52.001c14 23.333 35.667 47.666 65 72.999c39.333 34.667 63 56.334 71 65.001c20 22.667 30 42 30 58c0 30.667 -20 46 -60 46c-12.667 0 -29.334 -3.33301 -50.001 -10c-25.333 -8 -45 -17.667 -59 -29v54c36.667 34.667 78.334 52 125.001 52
c36.667 0 67.334 -8 92.001 -24c28.667 -18.667 43 -45.334 43 -80.001c0 -28.667 -9.33301 -54.334 -28 -77.001c-11.333 -13.333 -32.166 -31.166 -62.499 -53.499s-51.166 -40.5 -62.499 -54.5h153v-72h-257z" />
    <glyph glyph-name="uni00B3" unicode="&#xb3;" horiz-adv-x="286" 
d="M130 278c-33.333 0 -72.332 10.9961 -116.999 32.9961v52c39.333 -14 74.666 -21 105.999 -21c18 0 33 4.5 45 13.5s18 21.167 18 36.5c0 38.667 -38.333 56.334 -115 53.001v48c64.667 24.667 97 46.334 97 65.001c0 17.333 -15 26 -45 26c-12.667 0 -45 -8 -97 -24v44
c36.667 28.667 75 43 115 43c31.333 0 57 -6.33301 77 -19c23.333 -15.333 35 -38 35 -68s-17.667 -54.667 -53 -74c51.333 -15.333 77 -45.666 77 -90.999c0 -37.333 -14.667 -66.666 -44 -87.999c-26.667 -19.333 -59.667 -29 -99 -29z" />
    <glyph glyph-name="acute" unicode="&#xb4;" horiz-adv-x="391" 
d="M326 690l-145 -115h-61l78 115h128z" />
    <glyph glyph-name="paragraph" unicode="&#xb6;" horiz-adv-x="470" 
d="M424 -82l-68.999 2.99902v707h-34v-707c-24 0 -48.667 -1 -74 -3v11c14 6.66699 21 26.334 21 59.001v640c-12.667 2.66699 -27 4 -43 4c-68.667 0 -103 -43.667 -103 -131c0 -43.333 10.333 -78.333 31 -105c12 -15.333 31 -30 57 -44
c20.667 -11.333 31 -20.666 31 -27.999c0 -12 -6.66699 -18 -20 -18c-9.33301 0 -26.333 4.33301 -51 13c-97.333 34 -146 96.667 -146 188c0 110.667 60.667 166 182 166c12.667 0 31.667 -0.5 57 -1.5s44 -1.5 56 -1.5s29.667 0.666992 53 2s40.666 2 51.999 2v-11
c-14 -8 -21 -27.667 -21 -59v-616c0 -32.667 7 -52.334 21 -59.001v-11z" />
    <glyph glyph-name="uni2219" unicode="&#xb7;" horiz-adv-x="242" 
d="M194 274c0 -20 -7.16797 -37 -21.501 -51s-31.166 -21 -50.499 -21c-20 0 -37.333 6.83301 -52 20.5s-22 30.167 -22 49.5c0 20 7.16699 37.333 21.5 52s31.5 22 51.5 22s37.167 -7 51.5 -21s21.5 -31 21.5 -51z" />
    <glyph glyph-name="uni2219" unicode="&#x2219;" horiz-adv-x="242" 
d="M194 274c0 -20 -7.16797 -37 -21.501 -51s-31.166 -21 -50.499 -21c-20 0 -37.333 6.83301 -52 20.5s-22 30.167 -22 49.5c0 20 7.16699 37.333 21.5 52s31.5 22 51.5 22s37.167 -7 51.5 -21s21.5 -31 21.5 -51z" />
    <glyph glyph-name="cedilla" unicode="&#xb8;" horiz-adv-x="419" 
d="M262 -98c0 -20 -7.66699 -35.166 -23 -45.499s-33 -15.5 -53 -15.5c-22.667 0 -41 3.33301 -55 10v25c4 -0.666992 9.66699 -1 17 -1c36.667 0 55 12.667 55 38c0 7.33301 -4.66699 15 -14 23s-18 12.667 -26 14l36 49h43l-28 -40
c14 -2.66699 25.5 -9.33398 34.5 -20.001s13.5 -23 13.5 -37z" />
    <glyph glyph-name="uni00B9" unicode="&#xb9;" horiz-adv-x="286" 
d="M144 287v269l-90 -30v49l108 63h70v-351h-88z" />
    <glyph glyph-name="ordmasculine" unicode="&#xba;" horiz-adv-x="357" 
d="M348 526c0 -50 -16.334 -87.667 -49.001 -113c-30 -23.333 -70.667 -35 -122 -35s-91.666 11.667 -120.999 35c-32.667 26 -49 63.667 -49 113c0 96 56.667 144 170 144c50 0 90 -11.333 120 -34c34 -25.333 51 -62 51 -110zM260.999 525
c0 27.333 -7.16797 49.5 -21.501 66.5s-35.166 25.5 -62.499 25.5c-26.667 0 -47.167 -8.5 -61.5 -25.5s-21.5 -39.167 -21.5 -66.5c0 -66 27.667 -99 83 -99c28 0 49.333 10 64 30c13.333 17.333 20 40.333 20 69z" />
    <glyph glyph-name="guillemotright" unicode="&#xbb;" horiz-adv-x="434" 
d="M406 276l-127 -175l-71 19l82 156l-82 155l71 19zM226 276l-127 -175l-72 19l82 156l-82 155l72 19z" />
    <glyph glyph-name="onequarter" unicode="&#xbc;" horiz-adv-x="737" 
d="M620 645l-464 -663l-68 15l464 662zM639 78v-78h-88v78h-167v58l160 219h95v-212h42v-65h-42zM551 253l-80 -110h80v110zM145 287v269l-89 -30v49l107 63h70v-351h-88z" />
    <glyph glyph-name="onehalf" unicode="&#xbd;" horiz-adv-x="737" 
d="M617 645l-464 -663l-68 15l464 662zM426 0v52.001c14.667 23.333 36.334 47.666 65.001 72.999c39.333 34.667 63 56.334 71 65.001c20.667 22.667 31 42 31 58c0 30.667 -20 46 -60 46c-12.667 0 -29.667 -3.33301 -51 -10c-24.667 -8 -44.334 -17.667 -59.001 -29v54
c36.667 34.667 78.667 52 126 52c36.667 0 67 -8 91 -24c28.667 -18.667 43 -45.334 43 -80.001c0 -28.667 -9.33301 -54.334 -28 -77.001c-11.333 -13.333 -32 -31.166 -62 -53.499s-51 -40.5 -63 -54.5h153v-72h-257zM143 287.001v269l-89 -30v49l107 63h70v-351h-88z" />
    <glyph glyph-name="threequarters" unicode="&#xbe;" horiz-adv-x="737" 
d="M643 645l-464 -663l-68 15l464 662zM149 278c-33.333 0 -72.3311 10.9961 -116.998 32.9961v52c39.333 -14 74.666 -21 105.999 -21c18 0 33 4.5 45 13.5s18 21.167 18 36.5c0 38.667 -38.333 56.334 -115 53.001v48c64.667 24.667 97 46.334 97 65.001
c0 17.333 -15 26 -45 26c-12.667 0 -45.334 -8 -98.001 -24v44c36.667 28.667 75 43 115 43c32 0 57.667 -6.33301 77 -19c24 -15.333 36 -38 36 -68s-17.667 -54.667 -53 -74c50.667 -15.333 76 -45.666 76 -90.999c0 -37.333 -14.667 -66.666 -44 -87.999
c-26 -19.333 -58.667 -29 -98 -29zM663.002 77.9961v-78h-88v78h-167v58l159 219h96v-212h42v-65h-42zM575.002 252.996l-81 -110h81v110z" />
    <glyph glyph-name="questiondown" unicode="&#xbf;" horiz-adv-x="467" 
d="M351 442c0 -20.667 -7.33301 -38.167 -22 -52.5s-32.334 -21.5 -53.001 -21.5s-38.5 7.16699 -53.5 21.5s-22.5 31.833 -22.5 52.5s7.5 38.167 22.5 52.5s32.833 21.5 53.5 21.5s38.334 -7.16699 53.001 -21.5s22 -31.833 22 -52.5zM431 -99
c-50.667 -38 -111.003 -57.001 -181.003 -57.001c-55.333 0 -102.666 12.667 -141.999 38c-45.333 28.667 -68 69.334 -68 122.001c0 40.667 15.333 77 46 109l85 71c31.333 27.333 48 56 50 86c0.666992 18 0.333984 32.667 -0.999023 44h111
c0.666992 -7.33301 1 -18 1 -32c0 -38.667 -14.333 -73 -43 -103l-80 -69c-28.667 -26 -43 -53.333 -43 -82c0 -32 14 -56.667 42 -74c23.333 -14.667 52 -22 86 -22c50.667 0 96.334 9 137.001 27v-58z" />
    <glyph glyph-name="Agrave" unicode="&#xc0;" horiz-adv-x="619" 
d="M376 706h-61l-145 115h127zM613 0h-149l-61 172h-235l-63 -172h-106l240 644h135zM371 265l-84 236l-85 -236h169z" />
    <glyph glyph-name="Aacute" unicode="&#xc1;" horiz-adv-x="619" 
d="M463 821l-145 -115h-61l78 115h128zM613 0h-149l-61 172h-235l-63 -172h-106l240 644h135zM371 265l-84 236l-85 -236h169z" />
    <glyph glyph-name="Acircumflex" unicode="&#xc2;" horiz-adv-x="619" 
d="M440 706h-53l-77 71l-79 -71h-52l66 115h132zM613 0h-149l-61 172h-235l-63 -172h-106l240 644h135zM371 265l-84 236l-85 -236h169z" />
    <glyph glyph-name="Atilde" unicode="&#xc3;" horiz-adv-x="619" 
d="M435 724c-20.667 -16.667 -47.3301 -25 -79.9971 -25c-14.667 0 -35.834 5.33301 -63.501 16s-48.834 16 -63.501 16c-28 0 -50.667 -10.333 -68 -31v85c18 18 43.667 27 77 27c15.333 0 37.166 -5.66699 65.499 -17s49.5 -17 63.5 -17c25.333 0 48.333 10.333 69 31v-85
zM613.004 0h-149l-61 172h-235l-63 -172h-106l240 644h135zM371.004 265l-84 236l-85 -236h169z" />
    <glyph glyph-name="Adieresis" unicode="&#xc4;" horiz-adv-x="619" 
d="M462 756c0 -14.667 -5.5 -27.001 -16.5 -37.001s-24.167 -15 -39.5 -15s-28.333 5.16699 -39 15.5s-16 22.833 -16 37.5s5.33301 27.334 16 38.001s23.334 16 38.001 16c15.333 0 28.666 -5.33301 39.999 -16s17 -23.667 17 -39zM277 754.999
c0 -14.667 -5.33301 -26.834 -16 -36.501s-23.334 -14.5 -38.001 -14.5c-15.333 0 -28.666 5.33301 -39.999 16s-17 23.334 -17 38.001s5.5 27 16.5 37s23.833 15 38.5 15c15.333 0 28.5 -5.33301 39.5 -16s16.5 -23.667 16.5 -39zM613 -0.000976562h-149l-61 172h-235
l-63 -172h-106l240 644h135zM371 264.999l-84 236l-85 -236h169z" />
    <glyph glyph-name="Aring" unicode="&#xc5;" horiz-adv-x="619" 
d="M399 783c0 -22.667 -8.5 -41.834 -25.5 -57.501s-36.833 -23.5 -59.5 -23.5s-42.334 7.83301 -59.001 23.5s-25 34.834 -25 57.501s8.33301 41.667 25 57s36.334 23 59.001 23s42.5 -7.66699 59.5 -23s25.5 -34.333 25.5 -57zM613 0h-149l-61 172h-235l-63 -172h-106
l240 644h135zM358 783c0 12 -4.33301 21.833 -13 29.5s-19 11.5 -31 11.5c-11.333 0 -21.5 -4 -30.5 -12s-13.5 -17.667 -13.5 -29c0 -12 4.33301 -22 13 -30s19 -12 31 -12s22.333 4 31 12s13 18 13 30zM371 265l-84 236l-85 -236h169z" />
    <glyph glyph-name="AE" unicode="&#xc6;" horiz-adv-x="849" 
d="M819 0h-439v172h-216l-97 -172h-105l364 640h488v-95h-301v-172l269 -1v-90h-269v-187l306 -1v-94zM378 265v283l-162 -283h162z" />
    <glyph glyph-name="Ccedilla" unicode="&#xc7;" horiz-adv-x="577" 
d="M290 -13c-80.667 10.667 -146.333 48.334 -197 113.001c-48.667 62 -73 136 -73 222c0 94 29.167 173.167 87.5 237.5s134.166 96.5 227.499 96.5c63.333 0 129 -19 197 -57v-75c-50.667 23.333 -101 35 -151 35c-64.667 0 -118.667 -24 -162 -72s-65 -105 -65 -171
c0 -69.333 16.667 -125.333 50 -168c36 -47.333 87.667 -71 155 -71c58.667 0 125.334 12.667 200.001 38v-83c-63.333 -32 -138 -48 -224 -48h-3l-18 -25c14 -2.66699 25.5 -9.33398 34.5 -20.001s13.5 -23 13.5 -37c0 -20 -7.66699 -35.167 -23 -45.5s-33 -15.5 -53 -15.5
c-22.667 0 -41 3.33301 -55 10v25c4 -0.666992 9.66699 -1 17 -1c36.667 0 55 12.667 55 38c0 7.33301 -4.66699 15 -14 23s-18 12.667 -26 14z" />
    <glyph glyph-name="Egrave" unicode="&#xc8;" horiz-adv-x="527" 
d="M328 706h-61l-145 115h127zM502 0h-439v640h434v-95h-301v-172l268 -1v-90h-268v-187l306 -1v-94z" />
    <glyph glyph-name="Eacute" unicode="&#xc9;" horiz-adv-x="527" 
d="M438 821l-144 -115h-62l78 115h128zM502 0h-439v640h434v-95h-301v-172l268 -1v-90h-268v-187l306 -1v-94z" />
    <glyph glyph-name="Ecircumflex" unicode="&#xca;" horiz-adv-x="527" 
d="M398 706h-54l-76 71l-79 -71h-53l66 115h132zM502 0h-439v640h434v-95h-301v-172l268 -1v-90h-268v-187l306 -1v-94z" />
    <glyph glyph-name="Edieresis" unicode="&#xcb;" horiz-adv-x="527" 
d="M414 755c0 -14.667 -5.33398 -26.832 -16.001 -36.499s-23.667 -14.5 -39 -14.5s-28.666 5.16699 -39.999 15.5s-17 23.166 -17 38.499c0 14.667 5.5 27 16.5 37s24.167 15 39.5 15s28.5 -5.33301 39.5 -16s16.5 -23.667 16.5 -39zM229.999 756.002
c0 -15.333 -5.16699 -27.833 -15.5 -37.5s-23.5 -14.5 -39.5 -14.5c-15.333 0 -28.5 5.33301 -39.5 16s-16.5 23.334 -16.5 38.001s5.5 27 16.5 37s23.833 15 38.5 15c15.333 0 28.5 -5.33301 39.5 -16s16.5 -23.334 16.5 -38.001zM502.999 0.00195312h-439v640h434v-95
h-301v-172l268 -1v-90h-268v-187l306 -1v-94z" />
    <glyph glyph-name="Igrave" unicode="&#xcc;" horiz-adv-x="259" 
d="M191 706h-61l-144 115h127zM196 0h-133v640h133v-640z" />
    <glyph glyph-name="Iacute" unicode="&#xcd;" horiz-adv-x="259" 
d="M275 821l-145 -115h-61l78 115h128zM196 0h-133v640h133v-640z" />
    <glyph glyph-name="Icircumflex" unicode="&#xce;" horiz-adv-x="259" 
d="M262 706h-53l-76 71l-79 -71h-53l66 115h132zM196 0h-133v640h133v-640z" />
    <glyph glyph-name="Idieresis" unicode="&#xcf;" horiz-adv-x="259" 
d="M274 755c0 -14.667 -5.5 -26.833 -16.5 -36.5s-23.833 -14.5 -38.5 -14.5c-15.333 0 -28.5 5.16699 -39.5 15.5s-16.5 22.833 -16.5 37.5s5.33301 27.167 16 37.5s23.334 15.5 38.001 15.5c15.333 0 28.666 -5.33301 39.999 -16s17 -23.667 17 -39zM90 756.001
c0 -14.667 -5.33301 -27 -16 -37s-23.667 -15 -39 -15s-28.5 5.33301 -39.5 16s-16.5 23.334 -16.5 38.001s5.5 27 16.5 37s23.833 15 38.5 15c15.333 0 28.5 -5.33301 39.5 -16s16.5 -23.334 16.5 -38.001zM196 1.00098h-133v640h133v-640z" />
    <glyph glyph-name="Eth" unicode="&#xd0;" horiz-adv-x="666" 
d="M63 259l-31 -0.000976562v95h31v286h295c82.667 0 150.667 -29.333 204 -88c51.333 -57.333 77 -127.666 77 -210.999c0 -97.333 -29.667 -178 -89 -242c-61.333 -66 -140.333 -99 -237 -99h-250v259zM255 258.999l-58.999 -0.000976562v-159
c55.333 -3.33301 88.333 -5 99 -5c67.333 0 119.666 24 156.999 72c33.333 44 50 100.667 50 170c0 62 -19.5 112.333 -58.5 151s-89.5 58.334 -151.5 59.001c-10 0 -42 -1.66699 -96 -5v-188h59v-95z" />
    <glyph glyph-name="Ntilde" unicode="&#xd1;" horiz-adv-x="655" 
d="M453 724c-18.667 -16.667 -45.3311 -25 -79.998 -25c-14.667 0 -35.834 5.33301 -63.501 16s-48.834 16 -63.501 16c-28 0 -50.667 -10.333 -68 -31v85c18 18 44 27 78 27c15.333 0 37 -5.66699 65 -17s49 -17 63 -17c25.333 0 48.333 10.333 69 31v-85zM589.003 -2h-137
l-279 466v-464h-110v640h145l270 -453v453h111v-642z" />
    <glyph glyph-name="Ograve" unicode="&#xd2;" horiz-adv-x="672" 
d="M402 706h-61l-144 115h127zM648 323c0 -97.333 -27.333 -177.332 -82 -239.999c-58 -66 -135 -99 -231 -99c-96.667 0 -173.667 32.333 -231 97c-55.333 62 -83 142 -83 240c0 94.667 28.667 174.167 86 238.5s133 96.5 227 96.5c98 0 175.333 -31.333 232 -94
c54.667 -60.667 82 -140.334 82 -239.001zM514 323.001c0 66 -13 119.668 -39 161.001c-31.333 50 -78 75 -140 75s-108.667 -25 -140 -75c-26 -42 -39 -95.667 -39 -161c0 -66.667 13 -122 39 -166c31.333 -53.333 78 -80 140 -80c62.667 0 109.667 26.667 141 80
c25.333 43.333 38 98.666 38 165.999z" />
    <glyph glyph-name="Oacute" unicode="&#xd3;" horiz-adv-x="672" 
d="M491 821l-145 -115h-62l78 115h129zM648 323c0 -97.333 -27.333 -177.332 -82 -239.999c-58 -66 -135 -99 -231 -99c-96.667 0 -173.667 32.333 -231 97c-55.333 62 -83 142 -83 240c0 94.667 28.667 174.167 86 238.5s133 96.5 227 96.5c98 0 175.333 -31.333 232 -94
c54.667 -60.667 82 -140.334 82 -239.001zM514 323.001c0 66 -13 119.668 -39 161.001c-31.333 50 -78 75 -140 75s-108.667 -25 -140 -75c-26 -42 -39 -95.667 -39 -161c0 -66.667 13 -122 39 -166c31.333 -53.333 78 -80 140 -80c62.667 0 109.667 26.667 141 80
c25.333 43.333 38 98.666 38 165.999z" />
    <glyph glyph-name="Ocircumflex" unicode="&#xd4;" horiz-adv-x="672" 
d="M468 706h-53l-77 71l-79 -71h-53l66 115h132zM648 323c0 -97.333 -27.333 -177.332 -82 -239.999c-58 -66 -135 -99 -231 -99c-96.667 0 -173.667 32.333 -231 97c-55.333 62 -83 142 -83 240c0 94.667 28.667 174.167 86 238.5s133 96.5 227 96.5
c98 0 175.333 -31.333 232 -94c54.667 -60.667 82 -140.334 82 -239.001zM514 323.001c0 66 -13 119.668 -39 161.001c-31.333 50 -78 75 -140 75s-108.667 -25 -140 -75c-26 -42 -39 -95.667 -39 -161c0 -66.667 13 -122 39 -166c31.333 -53.333 78 -80 140 -80
c62.667 0 109.667 26.667 141 80c25.333 43.333 38 98.666 38 165.999z" />
    <glyph glyph-name="Otilde" unicode="&#xd5;" horiz-adv-x="672" 
d="M473 724c-20.667 -16.667 -47.3301 -25 -79.9971 -25c-14.667 0 -35.834 5.33301 -63.501 16s-48.834 16 -63.501 16c-28 0 -50.667 -10.333 -68 -31v85c18 18 43.667 27 77 27c15.333 0 37.166 -5.66699 65.499 -17s49.5 -17 63.5 -17c25.333 0 48.333 10.333 69 31v-85
zM648.004 323c0 -97.333 -27.333 -177.332 -82 -239.999c-58 -66 -135 -99 -231 -99c-96.667 0 -173.667 32.333 -231 97c-55.333 62 -83 142 -83 240c0 94.667 28.667 174.167 86 238.5s133 96.5 227 96.5c98 0 175.333 -31.333 232 -94
c54.667 -60.667 82 -140.334 82 -239.001zM514.004 323.001c0 66 -13 119.668 -39 161.001c-31.333 50 -78 75 -140 75s-108.667 -25 -140 -75c-26 -42 -39 -95.667 -39 -161c0 -66.667 13 -122 39 -166c31.333 -53.333 78 -80 140 -80c62.667 0 109.667 26.667 141 80
c25.333 43.333 38 98.666 38 165.999z" />
    <glyph glyph-name="Odieresis" unicode="&#xd6;" horiz-adv-x="672" 
d="M490 756c0 -14.667 -5.5 -27.002 -16.5 -37.002s-23.833 -15 -38.5 -15c-15.333 0 -28.666 5.33301 -39.999 16s-17 23.334 -17 38.001s5.5 27 16.5 37s23.833 15 38.5 15c15.333 0 28.666 -5.16699 39.999 -15.5s17 -23.166 17 -38.499zM304 755.998
c0 -14.667 -5.33301 -27.001 -16 -37.001s-23.334 -15 -38.001 -15c-15.333 0 -28.666 5.33301 -39.999 16s-17 23.334 -17 38.001s5.5 27.167 16.5 37.5s23.833 15.5 38.5 15.5c15.333 0 28.5 -5.33301 39.5 -16s16.5 -23.667 16.5 -39zM647 322.997
c0 -97.333 -27.333 -177.332 -82 -239.999c-58 -66 -135 -99 -231 -99c-96.667 0 -173.667 32.333 -231 97c-55.333 62 -83 142 -83 240c0 94.667 28.667 174.167 86 238.5s133 96.5 227 96.5c98 0 175.333 -31.333 232 -94c54.667 -60.667 82 -140.334 82 -239.001z
M513 322.998c0 66 -13 119.668 -39 161.001c-31.333 50 -78 75 -140 75s-108.667 -25 -140 -75c-26 -42 -39 -95.667 -39 -161c0 -66.667 13 -122 39 -166c31.333 -53.333 78 -80 140 -80c62.667 0 109.667 26.667 141 80c25.333 43.333 38 98.666 38 165.999z" />
    <glyph glyph-name="multiply" unicode="&#xd7;" horiz-adv-x="500" 
d="M436 349l-148 -150l148 -149l-37 -39l-149 150l-148 -150l-37 39l147 149l-147 147l37 39l148 -148l149 150z" />
    <glyph glyph-name="Oslash" unicode="&#xd8;" horiz-adv-x="672" 
d="M648 323c0 -98 -27.334 -178.333 -82.001 -241c-57.333 -65.333 -134.333 -98 -231 -98c-60 0 -113 13 -159 39l-45 -72l-50 24l50 79c-73.333 62.667 -110 151.667 -110 267c0 95.333 28.333 174.333 85 237c58.667 65.333 135 98 229 98
c60.667 0 112.334 -12 155.001 -36l45 72l51 -22l-50 -79c74.667 -60 112 -149.333 112 -268zM431.999 529c-26 19.333 -58.333 29 -97 29c-62 0 -108.667 -25 -140 -75c-26 -42 -39 -95.667 -39 -161c0 -67.333 13 -123 39 -167zM513.999 323
c0 68 -14.333 123.334 -43 166.001l-239 -377c28 -23.333 62.333 -35 103 -35c62.667 0 109.667 26.667 141 80c25.333 43.333 38 98.666 38 165.999z" />
    <glyph glyph-name="Ugrave" unicode="&#xd9;" horiz-adv-x="644" 
d="M388 706h-61l-144 115h127zM582 254c0 -90 -20 -156.999 -60 -200.999c-42 -46 -107.667 -69 -197 -69c-176 0 -264 88 -264 264v392h132v-375c0 -62.667 7.33301 -107.334 22 -134.001c20 -38 58.667 -57 116 -57c58 0 96.667 19 116 57c12.667 26 19 71 19 135v374h116
v-386z" />
    <glyph glyph-name="Uacute" unicode="&#xda;" horiz-adv-x="644" 
d="M476 821l-145 -115h-61l78 115h128zM582 254c0 -90 -20 -156.999 -60 -200.999c-42 -46 -107.667 -69 -197 -69c-176 0 -264 88 -264 264v392h132v-375c0 -62.667 7.33301 -107.334 22 -134.001c20 -38 58.667 -57 116 -57c58 0 96.667 19 116 57c12.667 26 19 71 19 135
v374h116v-386z" />
    <glyph glyph-name="Ucircumflex" unicode="&#xdb;" horiz-adv-x="644" 
d="M459 706h-54l-76 71l-79 -71h-53l66 115h132zM582 254c0 -90 -20 -156.999 -60 -200.999c-42 -46 -107.667 -69 -197 -69c-176 0 -264 88 -264 264v392h132v-375c0 -62.667 7.33301 -107.334 22 -134.001c20 -38 58.667 -57 116 -57c58 0 96.667 19 116 57
c12.667 26 19 71 19 135v374h116v-386z" />
    <glyph glyph-name="Udieresis" unicode="&#xdc;" horiz-adv-x="644" 
d="M475 755c0 -15.333 -5.33301 -27.666 -16 -36.999s-23.667 -14 -39 -14s-28.666 5.16699 -39.999 15.5s-17 23.166 -17 38.499c0 14.667 5.5 27.167 16.5 37.5s23.833 15.5 38.5 15.5c15.333 0 28.666 -5.5 39.999 -16.5s17 -24.167 17 -39.5zM291 755
c0 -15.333 -5.33301 -27.999 -16 -37.999s-23.667 -15 -39 -15s-28.5 5.33301 -39.5 16s-16.5 23.667 -16.5 39c0 14.667 5.5 27 16.5 37s23.833 15 38.5 15c15.333 0 28.5 -5.33301 39.5 -16s16.5 -23.334 16.5 -38.001zM582 253.001c0 -90 -20 -156.999 -60 -200.999
c-42 -46 -107.667 -69 -197 -69c-176 0 -264 88 -264 264v392h132v-375c0 -62.667 7.33301 -107.334 22 -134.001c20 -38 58.667 -57 116 -57c58 0 96.667 19 116 57c12.667 26 19 71 19 135v374h116v-386z" />
    <glyph glyph-name="Yacute" unicode="&#xdd;" horiz-adv-x="587" 
d="M591 640l-233 -373v-267h-133v253l-221 387h147l158 -280l173 280h109zM475 821l-145 -115h-61l78 115h128z" />
    <glyph glyph-name="Thorn" unicode="&#xde;" horiz-adv-x="558" 
d="M196 422l0.000976562 -214.999c18 -1.33301 45 -3 81 -5c35.333 -0.666992 65.666 11 90.999 35s38 53.333 38 88c0 39.333 -12 66.666 -36 81.999c-18.667 12.667 -48.667 19 -90 19c-18.667 0 -46.667 -1.33301 -84 -4zM196.001 0.000976562l-133 0.000976562v640h133
v-120h137c64 0 114 -15 150 -45c38 -32.667 57 -80.334 57 -143.001c0 -68 -28 -122 -84 -162c-50 -36.667 -110.333 -55 -181 -55h-79v-115z" />
    <glyph glyph-name="germandbls" unicode="&#xdf;" horiz-adv-x="562" 
d="M550 159c0 -51.333 -16.6641 -92.6709 -49.9971 -124.004s-76 -47 -128 -47c-38 0 -78 9.66699 -120 29v62c8.66699 0 22.5 -1.5 41.5 -4.5s33.5 -4.5 43.5 -4.5c26 0 48 6.66699 66 20c20.667 14.667 31 34.334 31 59.001c0 28.667 -15.667 53.334 -47 74.001l-87 47
c-31.333 20 -47 44 -47 72s9.66699 51.667 29 71l52 44c19.333 17.333 29 38 29 62c0 22.667 -7.83301 40 -23.5 52s-34.834 18 -57.501 18c-57.333 0 -86 -42 -86 -126v-463h-133v455c0 68.667 19.5 123.667 58.5 165s92.833 62 161.5 62
c53.333 0 97.666 -9.66699 132.999 -29c44.667 -24.667 67 -61.334 67 -110.001c0 -29.333 -11.667 -56.333 -35 -81c-8.66699 -9.33301 -30.334 -26.666 -65.001 -51.999c-23.333 -17.333 -35 -31.666 -35 -42.999c0 -7.33301 17.333 -20.666 52 -39.999
c45.333 -24.667 78 -45.667 98 -63c34.667 -32 52 -67 52 -105z" />
    <glyph glyph-name="agrave" unicode="&#xe0;" horiz-adv-x="515" 
d="M325 567h-61l-144 114h127zM484 0c-8.66699 0 -25.0029 -0.999023 -49.0029 -2.99902c-20.667 -2 -37 -3 -49 -3c-21.333 0 -35.666 9 -42.999 27c-1.33301 2.66699 -4.66602 20.334 -9.99902 53.001c-18.667 -24.667 -43.167 -45.334 -73.5 -62.001s-60.5 -25 -90.5 -25
c-42.667 0 -79 13.167 -109 39.5s-45 60.5 -45 102.5c0 72.667 35.667 124 107 154c46 19.333 113.333 30.666 202 33.999v30c0 27.333 -9.66699 48.5 -29 63.5s-43.333 22.5 -72 22.5c-55.333 0 -106 -7.66699 -152 -23v56c58 35.333 117.667 53 179 53
c56 0 102.333 -12 139 -36c42.667 -28 64 -68.667 64 -122v-192c0 -74.667 3.66699 -115 11 -121c2.66699 -2 9.33398 -3 20.001 -3v-45zM323.997 247.001c-42.667 -2 -80 -9.33203 -112 -21.999c-45.333 -18.667 -68 -44.334 -68 -77.001
c0 -22.667 6.83301 -41.167 20.5 -55.5s31.5 -21.5 53.5 -21.5c28 0 52.667 10.333 74 31s32 45 32 73v72z" />
    <glyph glyph-name="aacute" unicode="&#xe1;" horiz-adv-x="515" 
d="M420 681l-145 -114h-61l78 114h128zM484 0c-8.66699 0 -25.0029 -0.999023 -49.0029 -2.99902c-20.667 -2 -37 -3 -49 -3c-21.333 0 -35.666 9 -42.999 27c-1.33301 2.66699 -4.66602 20.334 -9.99902 53.001c-18.667 -24.667 -43.167 -45.334 -73.5 -62.001
s-60.5 -25 -90.5 -25c-42.667 0 -79 13.167 -109 39.5s-45 60.5 -45 102.5c0 72.667 35.667 124 107 154c46 19.333 113.333 30.666 202 33.999v30c0 27.333 -9.66699 48.5 -29 63.5s-43.333 22.5 -72 22.5c-55.333 0 -106 -7.66699 -152 -23v56
c58 35.333 117.667 53 179 53c56 0 102.333 -12 139 -36c42.667 -28 64 -68.667 64 -122v-192c0 -74.667 3.66699 -115 11 -121c2.66699 -2 9.33398 -3 20.001 -3v-45zM323.997 247.001c-42.667 -2 -80 -9.33203 -112 -21.999c-45.333 -18.667 -68 -44.334 -68 -77.001
c0 -22.667 6.83301 -41.167 20.5 -55.5s31.5 -21.5 53.5 -21.5c28 0 52.667 10.333 74 31s32 45 32 73v72z" />
    <glyph glyph-name="acircumflex" unicode="&#xe2;" horiz-adv-x="515" 
d="M391 567h-54l-77 71l-78 -71h-53l66 114h132zM484 0c-8.66699 0 -25.0029 -0.999023 -49.0029 -2.99902c-20.667 -2 -37 -3 -49 -3c-21.333 0 -35.666 9 -42.999 27c-1.33301 2.66699 -4.66602 20.334 -9.99902 53.001c-18.667 -24.667 -43.167 -45.334 -73.5 -62.001
s-60.5 -25 -90.5 -25c-42.667 0 -79 13.167 -109 39.5s-45 60.5 -45 102.5c0 72.667 35.667 124 107 154c46 19.333 113.333 30.666 202 33.999v30c0 27.333 -9.66699 48.5 -29 63.5s-43.333 22.5 -72 22.5c-55.333 0 -106 -7.66699 -152 -23v56
c58 35.333 117.667 53 179 53c56 0 102.333 -12 139 -36c42.667 -28 64 -68.667 64 -122v-192c0 -74.667 3.66699 -115 11 -121c2.66699 -2 9.33398 -3 20.001 -3v-45zM323.997 247.001c-42.667 -2 -80 -9.33203 -112 -21.999c-45.333 -18.667 -68 -44.334 -68 -77.001
c0 -22.667 6.83301 -41.167 20.5 -55.5s31.5 -21.5 53.5 -21.5c28 0 52.667 10.333 74 31s32 45 32 73v72z" />
    <glyph glyph-name="atilde" unicode="&#xe3;" horiz-adv-x="515" 
d="M395 585c-19.333 -16.667 -45.6641 -25 -78.9971 -25c-14.667 0 -35.834 5.33301 -63.501 16s-48.834 16 -63.501 16c-28 0 -50.667 -10.333 -68 -31l-1 85c19.333 17.333 45.333 26 78 26c15.333 0 37.166 -5.66699 65.499 -17s49.5 -17 63.5 -17
c26 0 48.667 10.333 68 31v-84zM484.002 0c-8.66699 0 -25.0029 -0.999023 -49.0029 -2.99902c-20.667 -2 -37 -3 -49 -3c-21.333 0 -35.666 9 -42.999 27c-1.33301 2.66699 -4.66602 20.334 -9.99902 53.001c-18.667 -24.667 -43.167 -45.334 -73.5 -62.001
s-60.5 -25 -90.5 -25c-42.667 0 -79 13.167 -109 39.5s-45 60.5 -45 102.5c0 72.667 35.667 124 107 154c46 19.333 113.333 30.666 202 33.999v30c0 27.333 -9.66699 48.5 -29 63.5s-43.333 22.5 -72 22.5c-55.333 0 -106 -7.66699 -152 -23v56
c58 35.333 117.667 53 179 53c56 0 102.333 -12 139 -36c42.667 -28 64 -68.667 64 -122v-192c0 -74.667 3.66699 -115 11 -121c2.66699 -2 9.33398 -3 20.001 -3v-45zM323.999 247.001c-42.667 -2 -80 -9.33203 -112 -21.999c-45.333 -18.667 -68 -44.334 -68 -77.001
c0 -22.667 6.83301 -41.167 20.5 -55.5s31.5 -21.5 53.5 -21.5c28 0 52.667 10.333 74 31s32 45 32 73v72z" />
    <glyph glyph-name="adieresis" unicode="&#xe4;" horiz-adv-x="515" 
d="M407 617c0 -14.667 -5.16699 -27.002 -15.5 -37.002s-22.833 -15 -37.5 -15c-15.333 0 -28.833 5.33301 -40.5 16s-17.5 23.334 -17.5 38.001s5.33301 27 16 37s23.334 15 38.001 15c15.333 0 28.666 -5.16699 39.999 -15.5s17 -23.166 17 -38.499zM224 616.998
c0 -14.667 -5.16699 -27.167 -15.5 -37.5s-22.833 -15.5 -37.5 -15.5c-15.333 0 -28.833 5.33301 -40.5 16s-17.5 23.667 -17.5 39c0 14.667 5.5 27.167 16.5 37.5s23.833 15.5 38.5 15.5c15.333 0 28.5 -5.33301 39.5 -16s16.5 -23.667 16.5 -39zM484 -0.00195312
c-8.66699 0 -25.0029 -0.999023 -49.0029 -2.99902c-20.667 -2 -37 -3 -49 -3c-21.333 0 -35.666 9 -42.999 27c-1.33301 2.66699 -4.66602 20.334 -9.99902 53.001c-18.667 -24.667 -43.167 -45.334 -73.5 -62.001s-60.5 -25 -90.5 -25c-42.667 0 -79 13.167 -109 39.5
s-45 60.5 -45 102.5c0 72.667 35.667 124 107 154c46 19.333 113.333 30.666 202 33.999v30c0 27.333 -9.66699 48.5 -29 63.5s-43.333 22.5 -72 22.5c-55.333 0 -106 -7.66699 -152 -23v56c58 35.333 117.667 53 179 53c56 0 102.333 -12 139 -36
c42.667 -28 64 -68.667 64 -122v-192c0 -74.667 3.66699 -115 11 -121c2.66699 -2 9.33398 -3 20.001 -3v-45zM323.997 246.999c-42.667 -2 -80 -9.33203 -112 -21.999c-45.333 -18.667 -68 -44.334 -68 -77.001c0 -22.667 6.83301 -41.167 20.5 -55.5
s31.5 -21.5 53.5 -21.5c28 0 52.667 10.333 74 31s32 45 32 73v72z" />
    <glyph glyph-name="aring" unicode="&#xe5;" horiz-adv-x="515" 
d="M344 653c0 -22.667 -8.33301 -41.834 -25 -57.501s-36.334 -23.5 -59.001 -23.5s-42.5 7.83301 -59.5 23.5s-25.5 34.834 -25.5 57.501s8.5 41.834 25.5 57.501s36.833 23.5 59.5 23.5s42.334 -7.83301 59.001 -23.5s25 -34.834 25 -57.501zM304 653
c0 12 -4.16699 21.833 -12.5 29.5s-18.5 11.5 -30.5 11.5s-22.333 -3.83301 -31 -11.5s-13 -17.5 -13 -29.5s4.33301 -22 13 -30s19 -12 31 -12s22.167 4 30.5 12s12.5 18 12.5 30zM484 0c-8.66699 0 -25.0029 -0.999023 -49.0029 -2.99902c-20.667 -2 -37 -3 -49 -3
c-21.333 0 -35.666 9 -42.999 27c-1.33301 2.66699 -4.66602 20.334 -9.99902 53.001c-18.667 -24.667 -43.167 -45.334 -73.5 -62.001s-60.5 -25 -90.5 -25c-42.667 0 -79 13.167 -109 39.5s-45 60.5 -45 102.5c0 72.667 35.667 124 107 154
c46 19.333 113.333 30.666 202 33.999v30c0 27.333 -9.66699 48.5 -29 63.5s-43.333 22.5 -72 22.5c-55.333 0 -106 -7.66699 -152 -23v56c58 35.333 117.667 53 179 53c56 0 102.333 -12 139 -36c42.667 -28 64 -68.667 64 -122v-192c0 -74.667 3.66699 -115 11 -121
c2.66699 -2 9.33398 -3 20.001 -3v-45zM323.997 247.001c-42.667 -2 -80 -9.33203 -112 -21.999c-45.333 -18.667 -68 -44.334 -68 -77.001c0 -22.667 6.83301 -41.167 20.5 -55.5s31.5 -21.5 53.5 -21.5c28 0 52.667 10.333 74 31s32 45 32 73v72z" />
    <glyph glyph-name="ae" unicode="&#xe6;" horiz-adv-x="809" 
d="M787 261c0 -12 -0.999023 -23.666 -2.99902 -34.999h-330c2 -49.333 18.667 -87 50 -113c29.333 -24.667 69 -37 119 -37c18 0 42.667 2.33301 74 7c35.333 4.66699 59 10 71 16v-78c-44.667 -22.667 -105 -34 -181 -34c-92.667 0 -163 32.667 -211 98
c-26.667 -24.667 -59 -46.667 -97 -66c-42.667 -21.333 -79.334 -32 -110.001 -32c-42.667 0 -79 13.167 -109 39.5s-45 60.5 -45 102.5c0 72.667 35.333 124 106 154c45.333 19.333 112.333 30.666 201 33.999v30c0 27.333 -10.333 49 -31 65
c-18.667 14 -42.334 21 -71.001 21c-54 0 -103.667 -7.66699 -149 -23v56c56.667 35.333 116.334 53 179.001 53c68 0 120.667 -17.333 158 -52c42 34.667 95.333 52 160 52c73.333 0 129.333 -25.333 168 -76c34 -45.333 51 -106 51 -182zM677.001 308.001
c-1.33301 35.333 -10.668 64.333 -28.001 87c-19.333 25.333 -45.666 38 -78.999 38c-32 0 -59 -13.333 -81 -40c-20 -24 -31 -52.333 -33 -85h221zM346.999 133.001c-15.333 34 -24 72 -26 114c-50 -6.66699 -86 -13.667 -108 -21c-46.667 -16 -70 -39.333 -70 -70
c0 -56.667 24.667 -85 74 -85c21.333 0 44.833 6.16699 70.5 18.5s45.5 26.833 59.5 43.5z" />
    <glyph glyph-name="ccedilla" unicode="&#xe7;" horiz-adv-x="481" 
d="M251 -11c-70 7.33301 -125.833 35.5 -167.5 84.5s-62.5 110.167 -62.5 183.5c0 75.333 22.833 137.833 68.5 187.5s105.834 74.5 180.501 74.5c53.333 0 109.666 -18 168.999 -54v-65c-13.333 8 -35.333 15 -66 21c-28 5.33301 -52 8 -72 8
c-50 0 -87.667 -16.667 -113 -50c-22.667 -30 -34 -70.667 -34 -122c0 -54 15.167 -97.667 45.5 -131s71.833 -50 124.5 -50c56 0 104 7.66699 144 23v-78c-48.667 -21.333 -106.667 -32.666 -174 -33.999l-20 -28c14 -2.66699 25.5 -9.33398 34.5 -20.001
s13.5 -23 13.5 -37c0 -20 -7.66699 -35.167 -23 -45.5s-33 -15.5 -53 -15.5c-22.667 0 -41 3.33301 -55 10v25c4 -0.666992 9.66699 -1 17 -1c36.667 0 55 12.667 55 38c0 7.33301 -4.66699 15 -14 23s-18 12.667 -26 14z" />
    <glyph glyph-name="egrave" unicode="&#xe8;" horiz-adv-x="521" 
d="M328 567h-61l-144 114h127zM486 261c0 -7.33301 -0.666016 -18.998 -1.99902 -34.998h-329c1.33301 -48.667 18 -86.334 50 -113.001c29.333 -24.667 69 -37 119 -37c17.333 0 41.666 2.33301 72.999 7c34 5.33301 57.667 10.666 71 15.999v-78
c-52 -22.667 -112.667 -34 -182 -34c-79.333 0 -143.333 25 -192 75s-73 115 -73 195c0 78 21.833 141.167 65.5 189.5s104.167 72.5 181.5 72.5c73.333 0 129 -25.333 167 -76c34 -45.333 51 -106 51 -182zM377.001 309.002c-1.33301 35.333 -10.668 64.333 -28.001 87
c-20 25.333 -47 38 -81 38c-31.333 0 -57.666 -13.333 -78.999 -40c-20 -24 -31.333 -52.333 -34 -85h222z" />
    <glyph glyph-name="eacute" unicode="&#xe9;" horiz-adv-x="521" 
d="M424 681l-145 -114h-62l78 114h129zM486 261c0 -7.33301 -0.666016 -18.998 -1.99902 -34.998h-329c1.33301 -48.667 18 -86.334 50 -113.001c29.333 -24.667 69 -37 119 -37c17.333 0 41.666 2.33301 72.999 7c34 5.33301 57.667 10.666 71 15.999v-78
c-52 -22.667 -112.667 -34 -182 -34c-79.333 0 -143.333 25 -192 75s-73 115 -73 195c0 78 21.833 141.167 65.5 189.5s104.167 72.5 181.5 72.5c73.333 0 129 -25.333 167 -76c34 -45.333 51 -106 51 -182zM377.001 309.002c-1.33301 35.333 -10.668 64.333 -28.001 87
c-20 25.333 -47 38 -81 38c-31.333 0 -57.666 -13.333 -78.999 -40c-20 -24 -31.333 -52.333 -34 -85h222z" />
    <glyph glyph-name="ecircumflex" unicode="&#xea;" horiz-adv-x="521" 
d="M394 567h-53l-77 71l-78 -71h-53l66 114h132zM486 261c0 -7.33301 -0.666016 -18.998 -1.99902 -34.998h-329c1.33301 -48.667 18 -86.334 50 -113.001c29.333 -24.667 69 -37 119 -37c17.333 0 41.666 2.33301 72.999 7c34 5.33301 57.667 10.666 71 15.999v-78
c-52 -22.667 -112.667 -34 -182 -34c-79.333 0 -143.333 25 -192 75s-73 115 -73 195c0 78 21.833 141.167 65.5 189.5s104.167 72.5 181.5 72.5c73.333 0 129 -25.333 167 -76c34 -45.333 51 -106 51 -182zM377.001 309.002c-1.33301 35.333 -10.668 64.333 -28.001 87
c-20 25.333 -47 38 -81 38c-31.333 0 -57.666 -13.333 -78.999 -40c-20 -24 -31.333 -52.333 -34 -85h222z" />
    <glyph glyph-name="edieresis" unicode="&#xeb;" horiz-adv-x="521" 
d="M410 617c0 -14.667 -5.16699 -26.999 -15.5 -36.999s-23.166 -15 -38.499 -15s-28.5 5.16699 -39.5 15.5s-16.5 23.166 -16.5 38.499c0 14.667 5.33301 27.167 16 37.5s23 15.5 37 15.5c15.333 0 28.666 -5.33301 39.999 -16s17 -23.667 17 -39zM228 616.001
c0 -14.667 -5.33301 -26.833 -16 -36.5s-23.667 -14.5 -39 -14.5s-28.5 5.16699 -39.5 15.5s-16.5 22.833 -16.5 37.5s5.5 27.167 16.5 37.5s23.833 15.5 38.5 15.5c15.333 0 28.5 -5.33301 39.5 -16s16.5 -23.667 16.5 -39zM486 261.002
c0 -7.33301 -0.666016 -18.998 -1.99902 -34.998h-329c1.33301 -48.667 18 -86.334 50 -113.001c29.333 -24.667 69 -37 119 -37c17.333 0 41.666 2.33301 72.999 7c34 5.33301 57.667 10.666 71 15.999v-78c-52 -22.667 -112.667 -34 -182 -34
c-79.333 0 -143.333 25 -192 75s-73 115 -73 195c0 78 21.833 141.167 65.5 189.5s104.167 72.5 181.5 72.5c73.333 0 129 -25.333 167 -76c34 -45.333 51 -106 51 -182zM377.001 309.004c-1.33301 35.333 -10.668 64.333 -28.001 87c-20 25.333 -47 38 -81 38
c-31.333 0 -57.666 -13.333 -78.999 -40c-20 -24 -31.333 -52.333 -34 -85h222z" />
    <glyph glyph-name="igrave" unicode="&#xec;" horiz-adv-x="256" 
d="M198 567h-61l-145 114h128zM196 0h-133v503h133v-503z" />
    <glyph glyph-name="iacute" unicode="&#xed;" horiz-adv-x="256" 
d="M270 681l-145 -114h-61l78 114h128zM196 0h-133v503h133v-503z" />
    <glyph glyph-name="icircumflex" unicode="&#xee;" horiz-adv-x="256" 
d="M261 567h-53l-77 71l-79 -71h-53l66 114h132zM196 0h-133v503h133v-503z" />
    <glyph glyph-name="idieresis" unicode="&#xef;" horiz-adv-x="256" 
d="M272 617c0 -14.667 -5.16699 -27.002 -15.5 -37.002s-22.833 -15 -37.5 -15c-15.333 0 -28.833 5.33301 -40.5 16s-17.5 23.334 -17.5 38.001s5.33301 27 16 37s23.334 15 38.001 15c15.333 0 28.666 -5.16699 39.999 -15.5s17 -23.166 17 -38.499zM89 616.998
c0 -14.667 -5.16699 -27.001 -15.5 -37.001s-22.833 -15 -37.5 -15c-15.333 0 -28.833 5.33301 -40.5 16s-17.5 23.334 -17.5 38.001s5.5 27.167 16.5 37.5s23.833 15.5 38.5 15.5c15.333 0 28.5 -5.33301 39.5 -16s16.5 -23.667 16.5 -39zM197 -0.00292969h-133v503h133
v-503z" />
    <glyph glyph-name="eth" unicode="&#xf0;" horiz-adv-x="569" 
d="M413 255c0 47.333 -9.66504 86.666 -28.998 117.999c-22.667 37.333 -56.334 56 -101.001 56s-78.334 -18.667 -101.001 -56c-18.667 -31.333 -28 -70.666 -28 -117.999c0 -49.333 9 -90.333 27 -123c22.667 -40.667 56.667 -61 102 -61c46 0 80.333 20.333 103 61
c18 32 27 73 27 123zM351.002 513c-28 44.667 -63.333 79 -106 103l-26 -42l-41 25l26 40c-12 5.33301 -26.667 9.66602 -44 12.999l16 35c19.333 -2.66699 37 -6 53 -10l22 33l42 -16l-19 -31c86 -30.667 153 -83.334 201 -158.001c46 -71.333 69 -154 69 -248
c0 -85.333 -22.333 -151.666 -67 -198.999s-109.334 -71 -194.001 -71c-84 0 -148.5 23.833 -193.5 71.5s-67.5 113.834 -67.5 198.501s22.333 149.5 67 194.5s109.334 67.5 194.001 67.5c24 0 46.667 -2 68 -6z" />
    <glyph glyph-name="ntilde" unicode="&#xf1;" 
d="M442 585c-19.333 -16.667 -45.6641 -25 -78.9971 -25c-14.667 0 -35.834 5.33301 -63.501 16s-48.834 16 -63.501 16c-28 0 -50.667 -10.333 -68 -31l-1 85c19.333 17.333 45.333 26 78 26c15.333 0 37.166 -5.66699 65.499 -17s49.5 -17 63.5 -17
c26 0 48.667 10.333 68 31v-84zM525.002 0h-133v304c0 35.333 -4 61.333 -12 78c-11.333 24 -32.333 36 -63 36c-39.333 0 -80 -11.667 -122 -35v-383h-133v503h133v-50c61.333 44 120 66 176 66c51.333 0 90.333 -17 117 -51c24.667 -31.333 37 -73.333 37 -126v-342z" />
    <glyph glyph-name="ograve" unicode="&#xf2;" horiz-adv-x="569" 
d="M354 567h-61l-145 114h128zM544 257c0 -85.333 -22.333 -151.668 -67 -199.001s-109.334 -71 -194.001 -71c-84 0 -148.5 23.833 -193.5 71.5s-67.5 113.834 -67.5 198.501s22.333 149.5 67 194.5s109.334 67.5 194.001 67.5c82 0 146 -23.167 192 -69.5
s69 -110.5 69 -192.5zM413 254.998c0 47.333 -9.66504 86.666 -28.998 117.999c-22.667 37.333 -56.334 56 -101.001 56s-78.334 -18.667 -101.001 -56c-18.667 -31.333 -28 -70.666 -28 -117.999c0 -49.333 9 -90.333 27 -123c22.667 -40.667 56.667 -61 102 -61
c46 0 80.333 20.333 103 61c18 32 27 73 27 123z" />
    <glyph glyph-name="oacute" unicode="&#xf3;" horiz-adv-x="569" 
d="M449 681l-145 -114h-61l78 114h128zM544 257c0 -85.333 -22.333 -151.668 -67 -199.001s-109.334 -71 -194.001 -71c-84 0 -148.5 23.833 -193.5 71.5s-67.5 113.834 -67.5 198.501s22.333 149.5 67 194.5s109.334 67.5 194.001 67.5c82 0 146 -23.167 192 -69.5
s69 -110.5 69 -192.5zM413 254.998c0 47.333 -9.66504 86.666 -28.998 117.999c-22.667 37.333 -56.334 56 -101.001 56s-78.334 -18.667 -101.001 -56c-18.667 -31.333 -28 -70.666 -28 -117.999c0 -49.333 9 -90.333 27 -123c22.667 -40.667 56.667 -61 102 -61
c46 0 80.333 20.333 103 61c18 32 27 73 27 123z" />
    <glyph glyph-name="ocircumflex" unicode="&#xf4;" horiz-adv-x="569" 
d="M415 567h-54l-76 71l-79 -71h-53l66 114h132zM544 257c0 -85.333 -22.333 -151.668 -67 -199.001s-109.334 -71 -194.001 -71c-84 0 -148.5 23.833 -193.5 71.5s-67.5 113.834 -67.5 198.501s22.333 149.5 67 194.5s109.334 67.5 194.001 67.5
c82 0 146 -23.167 192 -69.5s69 -110.5 69 -192.5zM413 254.998c0 47.333 -9.66504 86.666 -28.998 117.999c-22.667 37.333 -56.334 56 -101.001 56s-78.334 -18.667 -101.001 -56c-18.667 -31.333 -28 -70.666 -28 -117.999c0 -49.333 9 -90.333 27 -123
c22.667 -40.667 56.667 -61 102 -61c46 0 80.333 20.333 103 61c18 32 27 73 27 123z" />
    <glyph glyph-name="otilde" unicode="&#xf5;" horiz-adv-x="569" 
d="M424 585c-20.667 -16.667 -47.3301 -25 -79.9971 -25c-14.667 0 -35.834 5.33301 -63.501 16s-48.834 16 -63.501 16c-28 0 -50.667 -10.333 -68 -31l1 85c18.667 17.333 44 26 76 26c15.333 0 37.166 -5.66699 65.499 -17s49.5 -17 63.5 -17
c25.333 0 48.333 10.333 69 31v-84zM544.004 257c0 -85.333 -22.333 -151.668 -67 -199.001s-109.334 -71 -194.001 -71c-84 0 -148.5 23.833 -193.5 71.5s-67.5 113.834 -67.5 198.501s22.333 149.5 67 194.5s109.334 67.5 194.001 67.5c82 0 146 -23.167 192 -69.5
s69 -110.5 69 -192.5zM413.004 254.998c0 47.333 -9.66504 86.666 -28.998 117.999c-22.667 37.333 -56.334 56 -101.001 56s-78.334 -18.667 -101.001 -56c-18.667 -31.333 -28 -70.666 -28 -117.999c0 -49.333 9 -90.333 27 -123c22.667 -40.667 56.667 -61 102 -61
c46 0 80.333 20.333 103 61c18 32 27 73 27 123z" />
    <glyph glyph-name="odieresis" unicode="&#xf6;" horiz-adv-x="569" 
d="M436 616c0 -14.667 -5.16699 -26.832 -15.5 -36.499s-23.166 -14.5 -38.499 -14.5s-28.833 5.16699 -40.5 15.5s-17.5 23.166 -17.5 38.499c0 14.667 5.5 27.167 16.5 37.5s23.833 15.5 38.5 15.5c15.333 0 28.666 -5.5 39.999 -16.5s17 -24.167 17 -39.5zM252 617.002
c0 -15.333 -5.16895 -27.833 -15.502 -37.5s-23.166 -14.5 -38.499 -14.5s-28.666 5.33301 -39.999 16s-17 23.334 -17 38.001s5.5 27 16.5 37s23.833 15 38.5 15c15.333 0 28.5 -5.33301 39.5 -16s16.5 -23.334 16.5 -38.001zM543.998 257.002
c0 -85.333 -22.333 -151.668 -67 -199.001s-109.334 -71 -194.001 -71c-84 0 -148.5 23.833 -193.5 71.5s-67.5 113.834 -67.5 198.501s22.333 149.5 67 194.5s109.334 67.5 194.001 67.5c82 0 146 -23.167 192 -69.5s69 -110.5 69 -192.5zM412.998 255
c0 47.333 -9.66504 86.666 -28.998 117.999c-22.667 37.333 -56.334 56 -101.001 56s-78.334 -18.667 -101.001 -56c-18.667 -31.333 -28 -70.666 -28 -117.999c0 -49.333 9 -90.333 27 -123c22.667 -40.667 56.667 -61 102 -61c46 0 80.333 20.333 103 61
c18 32 27 73 27 123z" />
    <glyph glyph-name="oslash" unicode="&#xf8;" horiz-adv-x="569" 
d="M544 257c0 -85.333 -22.333 -151.667 -67 -199s-109.334 -71 -194.001 -71c-42.667 0 -81.667 6.66699 -117 20l-43 -67l-41 18l44 70c-69.333 46 -104 122.333 -104 229c0 84.667 22.333 149.5 67 194.5s109.334 67.5 194.001 67.5c50.667 0 95.667 -9.33301 135 -28
l38 59l42 -18l-42 -66c58.667 -45.333 88 -115 88 -209zM361 399.999c-21.333 19.333 -47.332 29 -77.999 29c-44.667 0 -78.334 -18.667 -101.001 -56c-18.667 -31.333 -28 -70.666 -28 -117.999c0 -54.667 10.667 -98.334 32 -131.001zM412.001 254.999
c0 39.333 -7.66699 74.667 -23 106l-172 -271c18.667 -12.667 40.334 -19 65.001 -19c45.333 0 79.666 20.333 102.999 61c18 32.667 27 73.667 27 123z" />
    <glyph glyph-name="ugrave" unicode="&#xf9;" 
d="M333 575h-61l-144 115h127zM519 0h-133v60c-24 -20 -51.667 -37.333 -83 -52c-34.667 -16 -65.667 -24 -93 -24c-51.333 0 -90.333 17 -117 51c-24.667 31.333 -37 73.333 -37 126v342h133v-304c0 -34.667 4 -59.667 12 -75c10.667 -22.667 31.667 -34 63 -34
c39.333 0 80 13.333 122 40v373h133v-503z" />
    <glyph glyph-name="uacute" unicode="&#xfa;" 
d="M447 681l-145 -114h-61l78 114h128zM519 0h-133v60c-24 -20 -51.667 -37.333 -83 -52c-34.667 -16 -65.667 -24 -93 -24c-51.333 0 -90.333 17 -117 51c-24.667 31.333 -37 73.333 -37 126v342h133v-304c0 -34.667 4 -59.667 12 -75c10.667 -22.667 31.667 -34 63 -34
c39.333 0 80 13.333 122 40v373h133v-503z" />
    <glyph glyph-name="ucircumflex" unicode="&#xfb;" 
d="M428 575h-54l-77 72l-78 -72h-53l66 115h132zM519 0h-133v60c-24 -20 -51.667 -37.333 -83 -52c-34.667 -16 -65.667 -24 -93 -24c-51.333 0 -90.333 17 -117 51c-24.667 31.333 -37 73.333 -37 126v342h133v-304c0 -34.667 4 -59.667 12 -75
c10.667 -22.667 31.667 -34 63 -34c39.333 0 80 13.333 122 40v373h133v-503z" />
    <glyph glyph-name="udieresis" unicode="&#xfc;" 
d="M445 625c0 -14.667 -5.50195 -27.001 -16.502 -37.001s-23.833 -15 -38.5 -15c-15.333 0 -28.666 5.5 -39.999 16.5s-17 24.167 -17 39.5c0 14.667 5.33301 26.834 16 36.501s23.334 14.5 38.001 14.5c15.333 0 28.833 -5.33301 40.5 -16s17.5 -23.667 17.5 -39z
M258.998 624.999c0 -14.667 -5.16797 -27.168 -15.501 -37.501s-23.166 -15.5 -38.499 -15.5s-28.5 5.5 -39.5 16.5s-16.5 24.5 -16.5 40.5c0 14.667 5.16699 26.667 15.5 36s22.5 14 36.5 14c16 0 29.667 -5.16699 41 -15.5s17 -23.166 17 -38.499zM517.997 0.998047h-133
v60c-24 -20 -51.667 -37.333 -83 -52c-34.667 -16 -65.667 -24 -93 -24c-51.333 0 -90.333 17 -117 51c-24.667 31.333 -37 73.333 -37 126v342h133v-304c0 -34.667 4 -59.667 12 -75c10.667 -22.667 31.667 -34 63 -34c39.333 0 80 13.333 122 40v373h133v-503z" />
    <glyph glyph-name="yacute" unicode="&#xfd;" horiz-adv-x="532" 
d="M533 506l-311 -741h-136l122 246l-208 495h149l133 -347l147 347h104zM446 690l-145 -115h-61l78 115h128z" />
    <glyph glyph-name="thorn" unicode="&#xfe;" 
d="M558 257c0 -74.667 -15.667 -136.667 -47 -186c-38 -58 -92 -87 -162 -87c-70.667 0 -121.667 26 -153 78v-256h-133v890h133v-240c63.333 40 119.666 60 168.999 60c68.667 0 119.334 -27.333 152.001 -82c27.333 -44.667 41 -103.667 41 -177zM427 256
c0 42 -9.66699 79.334 -29 112.001c-22.667 38.667 -54 58 -94 58c-32.667 0 -68.667 -12.667 -108 -38v-182c0 -32.667 11 -59.334 33 -80.001s49.333 -31 82 -31c40 0 70.333 17.667 91 53c16.667 28.667 25 64.667 25 108z" />
    <glyph glyph-name="ydieresis" unicode="&#xff;" horiz-adv-x="532" 
d="M417 625c0 -14.667 -5.50195 -27.001 -16.502 -37.001s-23.833 -15 -38.5 -15c-15.333 0 -28.666 5.5 -39.999 16.5s-17 24.167 -17 39.5c0 14.667 5.33301 26.834 16 36.501s23.334 14.5 38.001 14.5c15.333 0 28.833 -5.33301 40.5 -16s17.5 -23.667 17.5 -39z
M230.998 624.999c0 -14.667 -5.16797 -27.168 -15.501 -37.501s-23.166 -15.5 -38.499 -15.5s-28.5 5.5 -39.5 16.5s-16.5 24.5 -16.5 40.5c0 14.667 5.16699 26.667 15.5 36s22.5 14 36.5 14c16 0 29.667 -5.16699 41 -15.5s17 -23.166 17 -38.499zM531.997 506.998
l-311 -741h-136l122 246l-208 495h149l133 -347l147 347h104z" />
    <glyph glyph-name="dotlessi" unicode="&#x131;" horiz-adv-x="256" 
d="M196 0h-133v503h133v-503z" />
    <glyph glyph-name="Lslash" unicode="&#x141;" horiz-adv-x="472" 
d="M255 295l-59 -19v-181h273v-95h-406v233l-31 -10v95l31 10v312h133v-269l59 19v-95z" />
    <glyph glyph-name="lslash" unicode="&#x142;" horiz-adv-x="259" 
d="M255 295l-59 -19v-276h-133v233l-31 -10v95l31 10v369h133v-326l59 19v-95z" />
    <glyph glyph-name="OE" unicode="&#x152;" horiz-adv-x="947" 
d="M922 0h-439l-1 17c-43.333 -22 -92.333 -33 -147 -33c-96.667 0 -173.667 32.333 -231 97c-55.333 62 -83 142 -83 240c0 95.333 28.333 174.333 85 237c58.667 65.333 135 98 229 98c56 0 105 -10.667 147 -32l1 16h434v-95h-300v-172l268 -1v-90h-268v-187l305 -1v-94z
M484 323c0 70.667 -7.66699 123.334 -23 158.001c-22.667 52 -64.667 78 -126 78c-62 0 -108.667 -25 -140 -75c-26 -42 -39 -95.667 -39 -161c0 -66.667 13 -122 39 -166c31.333 -53.333 78 -80 140 -80s104.333 27.667 127 83c14.667 35.333 22 89.666 22 162.999z" />
    <glyph glyph-name="oe" unicode="&#x153;" horiz-adv-x="901" 
d="M878 261c0 -7.33301 -0.666992 -19.0029 -2 -35.0029h-330c2 -49.333 18.333 -86.666 49 -111.999s71 -38 121 -38c18.667 0 43 2 73 6c34 4.66699 57.667 10.334 71 17.001v-78c-51.333 -22.667 -112 -34 -182 -34c-82 0 -146.667 26.333 -194 79
c-45.333 -52.667 -112.333 -79 -201 -79c-84 0 -148.5 23.833 -193.5 71.5s-67.5 113.834 -67.5 198.501s22.333 149.5 67 194.5s109.334 67.5 194.001 67.5c84 0 149.333 -24.333 196 -73c43.333 48.667 103.666 73 180.999 73c73.333 0 129 -25.333 167 -76
c34 -45.333 51 -106 51 -182zM769 308.997c-1.33301 35.333 -10.668 64.333 -28.001 87c-20 25.333 -47 38 -81 38c-31.333 0 -57.666 -13.333 -78.999 -40c-20 -24 -31 -52.333 -33 -85h221zM412.998 255.997c0 47.333 -9.66504 86.666 -28.998 117.999
c-22.667 37.333 -56.334 56 -101.001 56s-78.334 -18.667 -101.001 -56c-18.667 -31.333 -28 -70.666 -28 -117.999c0 -49.333 9 -90.333 27 -123c22.667 -40.667 56.667 -61 102 -61c46 0 80.333 20.333 103 61c18 32 27 73 27 123z" />
    <glyph glyph-name="Scaron" unicode="&#x160;" horiz-adv-x="480" 
d="M461 183c0 -61.333 -24.335 -110.669 -73.002 -148.002c-44.667 -34 -98.667 -51 -162 -51c-32.667 0 -68 4.33301 -106 13c-41.333 9.33301 -74.666 21.666 -99.999 36.999v97c22.667 -14.667 54 -27.5 94 -38.5s74 -16.5 102 -16.5c30.667 0 57 6 79 18
c27.333 14.667 41 36.334 41 65.001c0 34.667 -26.667 64.667 -80 90c-95.333 45.333 -145 69.333 -149 72c-53.333 36.667 -80 86.334 -80 149.001c0 54.667 23 100 69 136c42 33.333 91.333 50 148 50c62.667 0 121.334 -15 176.001 -45v-72
c-28 15.333 -71.667 23.333 -131 24c-34.667 0.666992 -64 -4.66602 -88 -15.999c-32.667 -14 -49 -36.333 -49 -67c0 -26 26.667 -52.333 80 -79c86 -42 135.667 -67.667 149 -77c53.333 -38.667 80 -85.667 80 -141zM365.998 809.997l-67 -115h-132l-63 115h53l77 -66
l78 66h54z" />
    <glyph glyph-name="scaron" unicode="&#x161;" horiz-adv-x="450" 
d="M421 150c0 -52 -22.001 -92.998 -66.001 -122.998c-38.667 -26.667 -85 -40 -139 -40c-70 0 -131 15.667 -183 47v91c20 -10.667 48.333 -22 85 -34c41.333 -13.333 72.333 -20 93 -20c22 0 41 4.66699 57 14c18.667 11.333 28 27.333 28 48
c0 23.333 -22.333 43.666 -67 60.999c-74 28.667 -116 46 -126 52c-44.667 27.333 -67 64.666 -67 111.999c0 50.667 20.667 91 62 121c36.667 26.667 81.334 40 134.001 40c43.333 0 95 -14.333 155 -43v-66c-32.667 15.333 -73 23 -121 23c-70.667 0 -106 -20 -106 -60
c0 -24.667 22.667 -45 68 -61c74 -26.667 115.667 -42.667 125 -48c45.333 -26.667 68 -64.667 68 -114zM355.999 690.002l-67 -115h-132l-63 115h53l77 -66l78 66h54z" />
    <glyph glyph-name="Ydieresis" unicode="&#x178;" horiz-adv-x="587" 
d="M446 756c0 -14.667 -5.5 -27.002 -16.5 -37.002s-23.833 -15 -38.5 -15c-15.333 0 -28.666 5.33301 -39.999 16s-17 23.334 -17 38.001s5.5 27 16.5 37s23.833 15 38.5 15c15.333 0 28.666 -5.16699 39.999 -15.5s17 -23.166 17 -38.499zM260 755.998
c0 -15.333 -5.16895 -27.834 -15.502 -37.501s-23.166 -14.5 -38.499 -14.5s-28.666 5.33301 -39.999 16s-17 23.334 -17 38.001s5.5 27.167 16.5 37.5s23.833 15.5 38.5 15.5c15.333 0 28.5 -5.33301 39.5 -16s16.5 -23.667 16.5 -39zM589.998 639.997l-233 -373v-267h-133
v253l-221 387h147l158 -280l173 280h109z" />
    <glyph glyph-name="Zcaron" unicode="&#x17d;" horiz-adv-x="517" 
d="M489 0h-465v91l307 452h-299v97h453v-95l-304 -450h308v-95zM386 810l-67 -115h-132l-63 115h53l77 -66l78 66h54z" />
    <glyph glyph-name="zcaron" unicode="&#x17e;" horiz-adv-x="498" 
d="M458 0h-420v91l269 327l-265 1v87h410v-94l-269 -326l275 -1v-85zM376 690l-67 -115h-132l-63 115h53l77 -66l78 66h54z" />
    <glyph glyph-name="circumflex" unicode="&#x2c6;" horiz-adv-x="391" 
d="M326 575h-54l-76 72l-79 -72h-53l66 115h132z" />
    <glyph glyph-name="caron" unicode="&#x2c7;" horiz-adv-x="391" 
d="M326 690l-67 -115h-132l-63 115h53l77 -66l78 66h54z" />
    <glyph glyph-name="breve" unicode="&#x2d8;" horiz-adv-x="391" 
d="M336 690c-2.66699 -35.333 -17.667 -63.5 -45 -84.5s-59.333 -31.5 -96 -31.5s-68.667 10.333 -96 31s-42.333 49 -45 85h58c8.66699 -31.333 36.334 -47 83.001 -47c45.333 0 72.666 15.667 81.999 47h59z" />
    <glyph glyph-name="dotaccent" unicode="&#x2d9;" horiz-adv-x="391" 
d="M255 628c0 -16 -5.66504 -29.499 -16.998 -40.499s-25.333 -16.5 -42 -16.5s-31.334 6 -44.001 18s-19 26.667 -19 44c0 16 5.83301 29.167 17.5 39.5s25.5 15.5 41.5 15.5c17.333 0 32.166 -5.83301 44.499 -17.5s18.5 -25.834 18.5 -42.501z" />
    <glyph glyph-name="ring" unicode="&#x2da;" horiz-adv-x="391" 
d="M279 639c0 -22.667 -8.33301 -41.834 -25 -57.501s-36.334 -23.5 -59.001 -23.5s-42.5 7.83301 -59.5 23.5s-25.5 34.834 -25.5 57.501s8.5 41.667 25.5 57s36.833 23 59.5 23s42.334 -7.66699 59.001 -23s25 -34.333 25 -57zM238 639c0 12 -4.16699 21.833 -12.5 29.5
s-18.5 11.5 -30.5 11.5s-22.333 -3.83301 -31 -11.5s-13 -17.5 -13 -29.5s4.33301 -22 13 -30s19 -12 31 -12s22.167 4 30.5 12s12.5 18 12.5 30z" />
    <glyph glyph-name="ogonek" unicode="&#x2db;" horiz-adv-x="391" 
d="M288 -101c-23.333 -20 -51.332 -30.001 -83.999 -30.001c-59.333 0 -89 17.667 -89 53c0 32 24.333 58 73 78h56l-1 1c-32.667 -25.333 -49 -46.666 -49 -63.999c0 -18.667 12.333 -28 37 -28c17.333 0 31.666 5.66699 42.999 17z" />
    <glyph glyph-name="tilde" unicode="&#x2dc;" horiz-adv-x="359" 
d="M315 594c-20.667 -16.667 -47.3301 -25 -79.9971 -25c-14.667 0 -35.834 5.33301 -63.501 16s-48.834 16 -63.501 16c-28 0 -50.667 -10.333 -68 -31v84c18 18 43.667 27 77 27c15.333 0 37.166 -5.66699 65.499 -17s49.5 -17 63.5 -17c25.333 0 48.333 10.333 69 31v-84
z" />
    <glyph glyph-name="hungarumlaut" unicode="&#x2dd;" horiz-adv-x="391" 
d="M404 690l-136 -111h-79l106 111h109zM239 690l-135 -111h-80l105 111h110z" />
    <glyph glyph-name="endash" unicode="&#x2013;" horiz-adv-x="448" 
d="M464 229h-482v93h482v-93z" />
    <glyph glyph-name="emdash" unicode="&#x2014;" horiz-adv-x="880" 
d="M897 229h-915v93h915v-93z" />
    <glyph glyph-name="quoteleft" unicode="&#x2018;" horiz-adv-x="206" 
d="M152 461h-122.999c0 106 24.667 186.333 74 241l45 -20c-4.66699 -18 -9.66699 -36.333 -15 -55c-5.33301 -21.333 -8 -40 -8 -56c0 -15.333 3.66699 -34 11 -56c9.33301 -30.667 14.666 -48.667 15.999 -54z" />
    <glyph glyph-name="quoteright" unicode="&#x2019;" horiz-adv-x="206" 
d="M168 701c0 -105.333 -24.667 -185.667 -74 -241l-46 20c15.333 46 23 83 23 111c0 16 -3.33301 34.667 -10 56c-10 32 -15.333 50 -16 54h123z" />
    <glyph glyph-name="quotesinglbase" unicode="&#x201a;" horiz-adv-x="242" 
d="M186 113c0 -105.333 -24.667 -185.667 -74 -241l-45 20c4.66699 18.667 9.66699 37 15 55c5.33301 22 8 41 8 57c0 15.333 -3.33301 34 -10 56c-10 30 -15.667 47.667 -17 53h123z" />
    <glyph glyph-name="quotedblleft" unicode="&#x201c;" horiz-adv-x="377" 
d="M330 461l-122.999 -1c0 106.667 24.333 187.667 73 243l47 -21c-16 -40 -24 -76.667 -24 -110c0 -15.333 3.66699 -34 11 -56c9.33301 -30.667 14.666 -49 15.999 -55zM152.001 461h-122.999c0 106 24.667 186.333 74 241l45 -20c-4.66699 -18 -9.66699 -36.333 -15 -55
c-5.33301 -21.333 -8 -40 -8 -56c0 -15.333 3.66699 -34 11 -56c9.33301 -30.667 14.666 -48.667 15.999 -54z" />
    <glyph glyph-name="quotedblright" unicode="&#x201d;" horiz-adv-x="377" 
d="M351 703c0 -106 -24.667 -186.333 -74 -241l-45 20c4.66699 18 9.66699 36.333 15 55c5.33301 21.333 8 40 8 56c0 15.333 -3.33301 34 -10 56c-10 30.667 -15.667 48.667 -17 54h123zM173 703c0 -106 -24.333 -186.667 -73 -242l-47 21c16 40 24 76.667 24 110
c0 15.333 -3.33301 34 -10 56c-10 30.667 -15.667 49 -17 55h123z" />
    <glyph glyph-name="quotedblbase" unicode="&#x201e;" horiz-adv-x="411" 
d="M364 113c0 -50.667 -4.99902 -93.332 -14.999 -127.999c-10.667 -38 -30.334 -76 -59.001 -114l-45 20l14 56c5.33301 22 8 41 8 57c0 15.333 -3.33301 33.666 -10 54.999l-16 54h123zM186.001 113.002c0 -105.333 -24.667 -185.667 -74 -241l-45 20
c4.66699 18.667 9.66699 37 15 55c5.33301 22 8 41 8 57c0 15.333 -3.33301 34 -10 56c-10 30 -15.667 47.667 -17 53h123z" />
    <glyph glyph-name="dagger" unicode="&#x2020;" horiz-adv-x="521" 
d="M479 345l-161 5l5 -414h-127l5 414l-161 -5l2 106l159 -5l-5 195h128l-6 -195l159 5z" />
    <glyph glyph-name="daggerdbl" unicode="&#x2021;" horiz-adv-x="521" 
d="M475 98l-156 5l5 -168h-128l5 168l-156 -5l-1 106l158 -4l-1 159l-157 -5l1 105l156 -4l-5 185h128l-5 -185l156 4l-1 -105l-155 5l1 -160l154 5z" />
    <glyph glyph-name="bullet" unicode="&#x2022;" horiz-adv-x="496" 
d="M417 304c0 -46 -16.833 -84.666 -50.5 -115.999s-73.834 -47 -120.501 -47c-45.333 0 -84.833 15.833 -118.5 47.5s-50.5 70.167 -50.5 115.5s16.667 83.666 50 114.999s73 47 119 47c46.667 0 86.834 -15.5 120.501 -46.5s50.5 -69.5 50.5 -115.5z" />
    <glyph glyph-name="ellipsis" unicode="&#x2026;" horiz-adv-x="880" 
d="M810 58c0 -20.667 -7.33301 -38.167 -22 -52.5s-32.334 -21.5 -53.001 -21.5s-38.5 7.16699 -53.5 21.5s-22.5 31.833 -22.5 52.5s7.5 38.167 22.5 52.5s32.833 21.5 53.5 21.5s38.334 -7.16699 53.001 -21.5s22 -31.833 22 -52.5zM504 58
c0 -20.667 -7.33301 -38.167 -22 -52.5s-32.334 -21.5 -53.001 -21.5s-38.5 7.16699 -53.5 21.5s-22.5 31.833 -22.5 52.5s7.5 38.167 22.5 52.5s32.833 21.5 53.5 21.5s38.334 -7.16699 53.001 -21.5s22 -31.833 22 -52.5zM197 58c0 -20.667 -7.33301 -38.167 -22 -52.5
s-32.334 -21.5 -53.001 -21.5s-38.5 7.16699 -53.5 21.5s-22.5 31.833 -22.5 52.5s7.5 38.167 22.5 52.5s32.833 21.5 53.5 21.5s38.334 -7.16699 53.001 -21.5s22 -31.833 22 -52.5z" />
    <glyph glyph-name="perthousand" unicode="&#x2030;" horiz-adv-x="962" 
d="M278 485c0 -48 -11.334 -87 -34.001 -117c-25.333 -33.333 -61 -50 -107 -50c-47.333 0 -83.666 16.333 -108.999 49c-23.333 30 -35 69.333 -35 118c0 49.333 11.667 88 35 116c24.667 31.333 61 47 109 47c94 0 141 -54.333 141 -163zM577.999 645l-463 -663l-67 15
l463 663zM967.999 158c0 -47.333 -11.668 -86 -35.001 -116c-25.333 -33.333 -61 -50 -107 -50c-47.333 0 -83.666 16.333 -108.999 49c-22.667 29.333 -34 68.333 -34 117c0 49.333 11.333 88 34 116c24.667 31.333 61 47 109 47c94.667 0 142 -54.333 142 -163z
M638.998 158c0 -47.333 -11.667 -86 -35 -116c-26 -33.333 -62 -50 -108 -50c-46.667 0 -82.667 16.333 -108 49c-23.333 30 -35 69 -35 117c0 49.333 11.333 88 34 116c24.667 31.333 61 47 109 47s84.333 -15.667 109 -47c22.667 -28 34 -66.667 34 -116zM188.998 485
c0 61.333 -17.333 92 -52 92c-36.667 0 -55 -30.667 -55 -92c0 -64.667 18.333 -97 55 -97c34.667 0 52 32.333 52 97zM877.998 158c0 60.667 -17.333 91 -52 91c-36.667 0 -55 -30.333 -55 -91c0 -64.667 18.333 -97 55 -97c34.667 0 52 32.333 52 97zM548.998 158
c0 60.667 -17.667 91 -53 91c-36 0 -54 -30.333 -54 -91c0 -64.667 18 -97 54 -97c35.333 0 53 32.333 53 97z" />
    <glyph glyph-name="guilsinglleft" unicode="&#x2039;" horiz-adv-x="256" 
d="M227 119l-73 -18l-126 175l126 174l73 -19l-84 -155z" />
    <glyph glyph-name="guilsinglright" unicode="&#x203a;" horiz-adv-x="256" 
d="M227 276l-127 -175l-72 19l82 156l-82 155l72 19z" />
    <glyph glyph-name="fraction" unicode="&#x2044;" horiz-adv-x="451" 
d="M468 646l-397 -718l-89 24l395 718z" />
    <glyph glyph-name="Euro" unicode="&#x20ac;" horiz-adv-x="520" 
d="M310 271l-11.998 -41.999h-107c18 -102 73 -153 165 -153c56 0 104 7.66699 144 23v-78c-50.667 -22.667 -111.334 -34 -182.001 -34c-72 0 -131 20.833 -177 62.5s-74 101.5 -84 179.5h-37l12 42h21v24c0 23.333 1 45.666 3 66.999h-35l11 42h29
c13.333 80.667 41 143 83 187s94.667 66 158 66c53.333 0 109.666 -18 168.999 -54v-65c-14 8 -35.5 14.833 -64.5 20.5s-53.5 8.5 -73.5 8.5c-77.333 0 -124 -54.333 -140 -163h152l-11 -42h-146c-1.33301 -20.667 -2 -43 -2 -67v-24h124z" />
    <glyph glyph-name="trademark" unicode="&#x2122;" horiz-adv-x="935" 
d="M909 280l-177.001 0.000976562v18c20.667 0.666992 34.334 3.33398 41.001 8.00098c9.33301 6 14 18.667 14 38v258l-142 -322h-17l-146 312l-1 -247c0 -22 4.33301 -35.667 13 -41c6.66699 -4 21.334 -6 44.001 -6v-18h-139v18c19.333 0 32.333 2.33301 39 7
c9.33301 6.66699 14 19.667 14 39v254c0 22 -3.33301 36 -10 42s-21.334 9 -44.001 9v18h126l133 -283l128 283h124v-18c-19.333 0 -32.333 -2.33301 -39 -7c-8.66699 -6.66699 -13 -19.334 -13 -38.001v-259c0 -19.333 3.66699 -31.833 11 -37.5s21 -8.83398 41 -9.50098
v-18zM365.999 570.001l-15.999 -1c-2 33.333 -15.667 55 -41 65c-13.333 4.66699 -41 7.33398 -83 8.00098v-297c0 -18.667 3.66699 -31 11 -37s20.666 -9.33301 39.999 -10v-18h-171v18c19.333 1.33301 32.5 4.83301 39.5 10.5s10.5 17.5 10.5 35.5v298
c-42 -0.666992 -69.333 -3.33398 -82 -8.00098c-24 -9.33301 -37.667 -31 -41 -65l-17 1l7 97h336z" />
    <glyph glyph-name="uniF000" unicode="&#xf000;" horiz-adv-x="812" 
d="M738 336c0 -92.667 -32.5 -171.833 -97.5 -237.5s-143.833 -98.5 -236.5 -98.5c-92 -0 -170.667 32.833 -236 98.5s-98 144.5 -98 236.5s32.333 170.667 97 236s143 98 235 98s171 -32.5 237 -97.5s99 -143.5 99 -235.5zM570 336.001c0 66.667 -12 129.001 -36 187.001
c-32 75.333 -76.667 113 -134 113c-22 0 -43.667 -8.33301 -65 -25c-34 -26.667 -59.667 -69 -77 -127c-14.667 -46.667 -22 -96.667 -22 -150c0 -66.667 12.333 -128.667 37 -186c32 -75.333 76.667 -113 134 -113c54 0 96.333 39 127 117c24 59.333 36 120.666 36 183.999
zM485 535.002c0 -22 -8.16602 -40.667 -24.499 -56s-35.5 -23 -57.5 -23s-40.5 8 -55.5 24s-22.5 35 -22.5 57s8.16699 40.333 24.5 55s35.5 22 57.5 22c21.333 0 39.666 -7.83301 54.999 -23.5s23 -34.167 23 -55.5z" />
    <glyph glyph-name="uniF001" unicode="&#xf001;" horiz-adv-x="612" 
d="M571 637c0 -19.333 -7 -35.833 -21 -49.5s-30.667 -20.5 -50 -20.5s-36 6.83301 -50 20.5s-21 30.167 -21 49.5s7 35.833 21 49.5s30.667 20.5 50 20.5s36 -6.83301 50 -20.5s21 -30.167 21 -49.5zM366 605c-21.333 3.33301 -40.668 5 -58.001 5
c-34.667 0 -58.667 -9.66699 -72 -29c-11.333 -16.667 -17 -42.667 -17 -78h140v-79h-139v-424h-134l-1 424h-82v79h82c0 57.333 13 102.333 39 135c28.667 35.333 71.334 53 128.001 53c38 0 76 -10.333 114 -31v-55zM565.998 0h-133v503h133v-503z" />
    <glyph glyph-name="uniF002" unicode="&#xf002;" horiz-adv-x="612" 
d="M566 0h-133v697h133v-697zM366 605c-21.333 3.33301 -40.668 5 -58.001 5c-34.667 0 -58.667 -9.66699 -72 -29c-11.333 -16.667 -17 -42.667 -17 -78h140v-79h-139v-424h-134l-1 424h-82v79h82c0 57.333 13 102.333 39 135c28.667 35.333 71.334 53 128.001 53
c38 0 76 -10.333 114 -31v-55z" />
    <glyph glyph-name=".null" horiz-adv-x="0" 
 />
    <glyph glyph-name="nonmarkingreturn" horiz-adv-x="333" 
 />
    </font>
</defs>
</svg>
