<?xml version="1.0" standalone="no"?>
<!DOCTYPE svg PUBLIC "-//W3C//DTD SVG 1.1//EN" "http://www.w3.org/Graphics/SVG/1.1/DTD/svg11.dtd" >
<svg>
<metadata>
Created by FontForge 20090914 at Thu Aug 16 16:19:29 2012
 By www-data
Copyright (c) 1993, 2001, 2003, 2004 Linotype Library GmbH, www.linotype.com. All rights reserved. This software may not be reproduced, used, displayed, modified, disclosed or transferred without the express written approval of Linotype Library GmbH.Dialog is a trademark of Franco Luin. This typeface is original artwork of Franco Luin. The design may be protected in certain jurisdictions.
</metadata>
<defs>
<font id="Dialog-ExtraBold" horiz-adv-x="646" >
  <font-face 
    font-family="Dialog ExtraBold"
    font-weight="400"
    font-stretch="normal"
    units-per-em="1000"
    panose-1="0 0 8 0 0 0 0 0 0 0"
    ascent="800"
    descent="-200"
    x-height="503"
    cap-height="640"
    bbox="-62.999 -235 1033 856.001"
    underline-thickness="20"
    underline-position="-123"
    unicode-range="U+0020-U+F002"
  />
<missing-glyph horiz-adv-x="500" 
d="M63 0v765h375v-765h-375zM125 63h250v640h-250v-640z" />
    <glyph glyph-name=".notdef" horiz-adv-x="500" 
d="M63 0v765h375v-765h-375zM125 63h250v640h-250v-640z" />
    <glyph glyph-name="space" unicode=" " horiz-adv-x="210" 
 />
    <glyph glyph-name="exclam" unicode="!" horiz-adv-x="259" 
d="M208 640l-33 -437h-90l-32 437h155zM217 69c0 -23.333 -8.33301 -43.333 -25 -60s-36.667 -25 -60 -25s-43.333 8.33301 -60 25s-25 36.667 -25 60s8.33301 43.333 25 60s36.667 25 60 25s43.333 -8.33301 60 -25s25 -36.667 25 -60z" />
    <glyph glyph-name="quotedbl" unicode="&#x22;" horiz-adv-x="421" 
d="M377 662l-22 -252h-95l-22 252h139zM183 662l-22 -252h-94l-22 252h138z" />
    <glyph glyph-name="numbersign" unicode="#" horiz-adv-x="668" 
d="M642 475l-9 -55h-131l-44 -162h156l-9 -54h-162l-61 -215h-58l62 215h-175l-62 -215h-58l62 215h-129l9 54h135l45 162h-161l8 55h167l63 216h57l-63 -216h175l63 216h57l-63 -216h126zM445 420h-175l-45 -162h176z" />
    <glyph glyph-name="dollar" unicode="$" horiz-adv-x="551" 
d="M530 186c0 -55.333 -24.667 -101.999 -74 -139.999c-42.667 -32 -93.667 -51.667 -153 -59v-43h-32v40c-82.667 0 -160.334 14.667 -233.001 44v148c16 -16 51 -33 105 -51c51.333 -18 89 -27 113 -27c6.66699 0 11.667 0.333008 15 1v139c-162 50 -243 122 -243 216
c0 60 26 109 78 147c46.667 34.667 101.667 52.667 165 54v29h32v-29c55.333 -2.66699 112 -16.667 170 -42l-1 -128c-57.333 33.333 -113.666 50.333 -168.999 51v-127c70 -30 120 -56.667 150 -80c51.333 -40.667 77 -88.334 77 -143.001zM271 422.001v111
c-44 -7.33301 -66 -26.666 -66 -57.999c0 -14.667 22 -32.334 66 -53.001zM357 165.001c0 24 -18 44.001 -54 60.001v-121c36 11.333 54 31.666 54 60.999z" />
    <glyph glyph-name="percent" unicode="%" horiz-adv-x="793" 
d="M339 485c0 -49.333 -12.333 -89 -37 -119c-27.333 -32.667 -65 -49 -113 -49c-49.333 0 -87.333 16 -114 48c-24.667 30 -37 70 -37 120c0 50.667 12.833 90.5 38.5 119.5s63.167 43.5 112.5 43.5c50 0 88 -15 114 -45c24 -28 36 -67.333 36 -118zM668 645l-461 -663
l-85 15l461 662zM755 158c0 -49.333 -12.333 -88.667 -37 -118c-27.333 -32 -65 -48 -113 -48c-48.667 0 -86.167 15.333 -112.5 46s-39.5 70.667 -39.5 120c0 50.667 12.833 90.667 38.5 120s63.5 44 113.5 44c100 0 150 -54.667 150 -164zM232 484.999
c0 53.333 -14.333 80 -43 80c-29.333 0 -44 -26.667 -44 -80c0 -56.667 14.667 -85 44 -85c28.667 0 43 28.333 43 85zM648 157.999c0 53.333 -14.333 80 -43 80s-43 -26.667 -43 -80c0 -56 14.333 -84 43 -84s43 28 43 84z" />
    <glyph glyph-name="ampersand" unicode="&#x26;" horiz-adv-x="666" 
d="M622 0l-169 -0.000976562l-28 35c-61.333 -34 -122.333 -51 -183 -51c-58 0 -107.667 16 -149 48c-44.667 34 -67 79 -67 135c0 80.667 49.333 145.667 148 195c-42 52 -63 101 -63 147c0 48 20.667 85.667 62 113c35.333 22.667 78.333 34 129 34
c46 0 86.667 -11 122 -33c40.667 -25.333 61 -59.666 61 -102.999c0 -66.667 -47 -121.334 -141 -164.001l142 -182c26 21.333 48 42 66 62l49 -38c-16 -25.333 -39.333 -52.666 -70 -81.999zM360 512.999c0 15.333 -5.16699 27.832 -15.5 37.499s-23.166 14.5 -38.499 14.5
c-14.667 0 -26.834 -5.16699 -36.501 -15.5s-14.5 -22.833 -14.5 -37.5c0 -22 13.333 -53.333 40 -94c43.333 36.667 65 68.334 65 95.001zM370 99.998c-66.667 76.667 -115.333 140.332 -146 190.999c-35.333 -27.333 -53 -59.666 -53 -96.999c0 -32 12.667 -58.667 38 -80
c23.333 -20.667 51 -31 83 -31c24 0 50 5.66699 78 17z" />
    <glyph glyph-name="quotesingle" unicode="'" horiz-adv-x="224" 
d="M181 662l-22 -252h-94l-22 252h138z" />
    <glyph glyph-name="parenleft" unicode="(" horiz-adv-x="305" 
d="M274 -26l-56 -43c-59.333 40.667 -105.5 93.667 -138.5 159s-49.5 135 -49.5 209c0 72 16.833 141.5 50.5 208.5s79.5 120.167 137.5 159.5l56 -43c-64.667 -64.667 -97 -173 -97 -325s32.333 -260.333 97 -325z" />
    <glyph glyph-name="parenright" unicode=")" horiz-adv-x="305" 
d="M276 299c0 -73.333 -16 -142.333 -48 -207c-33.333 -66.667 -80 -120.334 -140 -161.001l-56 42c64.667 64.667 97 173 97 325c0 152.667 -32.333 261.334 -97 326.001l56 44c58 -39.333 103.833 -92.833 137.5 -160.5s50.5 -137.167 50.5 -208.5z" />
    <glyph glyph-name="asterisk" unicode="*" horiz-adv-x="272" 
d="M249 561l-27 -46l-76 52l16 -88h-58l11 91l-75 -55l-27 46l91 34l-88 34l27 45l72 -55l-11 88h58l-14 -83l71 50l27 -45l-91 -34z" />
    <glyph glyph-name="plus" unicode="+" horiz-adv-x="578" 
d="M548 261h-232v-233h-55v233h-231v55h231v233h54v-233h233v-55z" />
    <glyph glyph-name="comma" unicode="," horiz-adv-x="260" 
d="M202 131c-1.33301 -56 -7.33301 -102.668 -18 -140.001c-11.333 -39.333 -32.333 -81.666 -63 -126.999l-54 22c19.333 48 29 89 29 123c0 33.333 -11.667 74 -35 122h141z" />
    <glyph glyph-name="hyphen" unicode="-" horiz-adv-x="291" 
d="M256 334l-1 -107h-222l1 107h222z" />
    <glyph glyph-name="hyphen" unicode="&#x2010;" horiz-adv-x="291" 
d="M256 334l-1 -107h-222l1 107h222z" />
    <glyph glyph-name="period" unicode="." horiz-adv-x="260" 
d="M217 69c0 -23.333 -8.33301 -43.333 -25 -60s-36.667 -25 -60 -25s-43.333 8.33301 -60 25s-25 36.667 -25 60s8.33301 43.333 25 60s36.667 25 60 25s43.333 -8.33301 60 -25s25 -36.667 25 -60z" />
    <glyph glyph-name="slash" unicode="/" horiz-adv-x="502" 
d="M515 641l-401 -713l-126 29l401 713z" />
    <glyph glyph-name="zero" unicode="0" 
d="M631 321c0 -102 -25.667 -182.667 -77 -242c-55.333 -62.667 -133.333 -94 -234 -94c-102 0 -180 31 -234 93c-50.667 58.667 -76 139.667 -76 243c0 104.667 25 186 75 244c52.667 61.333 131 92 235 92c105.333 0 184.333 -30.333 237 -91
c49.333 -57.333 74 -139 74 -245zM445 321c0 60 -6.33301 105 -19 135c-18.667 45.333 -54 68 -106 68s-87.667 -22.667 -107 -68c-12 -28.667 -18 -73.667 -18 -135c0 -138.667 41.667 -208 125 -208s125 69.333 125 208z" />
    <glyph glyph-name="one" unicode="1" 
d="M432 0h-188l-1 482l-184 -54l1 94c46 28 115.333 67 208 117l164 1v-640z" />
    <glyph glyph-name="two" unicode="2" 
d="M586 0h-544.001v100c31.333 46 88 99.667 170 161c72.667 54 109.334 81.333 110.001 82c46 40 69 76 69 108c0 26.667 -14.333 46.667 -43 60c-22 10 -48 15 -78 15c-63.333 0 -140 -19 -230 -57l-4 94c92.667 62 181.334 93 266.001 93c72.667 0 135 -13.333 187 -40
c64.667 -34 97 -84 97 -150c0 -49.333 -19.333 -95 -58 -137c-25.333 -28 -67.333 -61 -126 -99c-66.667 -42 -109.334 -71.333 -128.001 -88l312 -1v-141z" />
    <glyph glyph-name="three" unicode="3" 
d="M591 202c0 -72.667 -33.334 -128.668 -100.001 -168.001c-54.667 -32.667 -121 -49 -199 -49c-47.333 0 -90.333 5 -129 15c-30.667 8 -70.667 23 -120 45v101c90.667 -23.333 164.334 -35 221.001 -35c34 0 63 6 87 18c31.333 15.333 47 38.333 47 69
c0 35.333 -22.333 61 -67 77c-30.667 11.333 -67.667 17 -111 17c-28 0 -55.667 -2 -83 -6v89c148.667 37.333 223 76.333 223 117c0 28 -32.333 42 -97 42c-45.333 0 -112.666 -13 -201.999 -39v83c93.333 52.667 174.666 79 243.999 79c66 0 119 -10.333 159 -31
c52.667 -27.333 79 -70.666 79 -129.999c0 -53.333 -31 -96 -93 -128c94 -28 141 -83.333 141 -166z" />
    <glyph glyph-name="four" unicode="4" 
d="M621 140h-89l-1 -140h-188v140h-353l1 111l338 394h202l1 -380h89v-125zM343 448l-158 -183h158v183z" />
    <glyph glyph-name="five" unicode="5" 
d="M586 216c0 -76 -32.666 -135 -97.999 -177c-55.333 -36 -123 -54 -203 -54c-47.333 0 -90 5 -128 15c-30.667 8 -70.667 23 -120 45v101c56 -13.333 91 -21.333 105 -24c41.333 -8.66699 77 -13 107 -13c34 0 64.333 6.33301 91 19c34.667 16 52 39 52 69
c0 38.667 -19.667 66.667 -59 84c-29.333 13.333 -66 20 -110 20c-40.667 0 -87 -8.66699 -139 -26l3 366h475v-142l-323 -1l-3 -79c14.667 1.33301 25.667 2 33 2c77.333 0 145.666 -14.667 204.999 -44c74.667 -37.333 112 -91 112 -161z" />
    <glyph glyph-name="six" unicode="6" 
d="M620 217c0 -73.333 -30.998 -131.667 -92.998 -175c-54.667 -38 -120.334 -57 -197.001 -57c-104 0 -182.333 28.333 -235 85c-50.667 54.667 -76 133.667 -76 237c0 233.333 113 350 339 350c67.333 0 139.333 -18.333 216 -55v-96c-93.333 15.333 -162 23 -206 23
c-84 0 -135.333 -44.667 -154 -134c39.333 24.667 89.333 37 150 37c71.333 0 130.666 -17.667 177.999 -53c52 -38.667 78 -92.667 78 -162zM438.002 207.999c0 32 -9.83105 57.5 -29.498 76.5s-45.834 28.5 -78.501 28.5c-28.667 0 -54.334 -7 -77.001 -21
c-26.667 -16 -40 -37.333 -40 -64c0 -32.667 11.667 -60.5 35 -83.5s51.333 -34.5 84 -34.5c30.667 0 56 8.83301 76 26.5s30 41.5 30 71.5z" />
    <glyph glyph-name="seven" unicode="7" 
d="M625 641l-5 -128c-78 -90 -139.333 -169.667 -184 -239c-46.667 -74 -92 -164 -136 -270l-200 -8c18.667 100 120.667 265 306 495h-359v150h578z" />
    <glyph glyph-name="eight" unicode="8" 
d="M620 180c0 -64 -36.333 -114.333 -109 -151c-58.667 -29.333 -123.667 -44 -195 -44c-72.667 0 -136.667 13.667 -192 41c-71.333 34 -107 83.667 -107 149c0 75.333 37.667 130.333 113 165c-59.333 31.333 -89 77.333 -89 138c0 61.333 34 108.333 102 141
c53.333 25.333 114.333 38 183 38c70 0 129.333 -11.333 178 -34c64 -29.333 96 -75 96 -137c0 -62.667 -33.333 -110.334 -100 -143.001c80 -33.333 120 -87.666 120 -162.999zM420 476c0 36 -33.333 54 -100 54c-23.333 0 -44.333 -3.66699 -63 -11
c-24.667 -9.33301 -37 -24 -37 -44c0 -36.667 38.333 -62.667 115 -78c56.667 10 85 36.333 85 79zM438 178c0 20.667 -14.332 40.001 -42.999 58.001c-6 4 -23.5 10.833 -52.5 20.5s-46.5 14.5 -52.5 14.5c-22.667 0 -43.334 -8.33301 -62.001 -25s-28 -36.334 -28 -59.001
c0 -27.333 13.667 -47.666 41 -60.999c20.667 -10.667 46 -16 76 -16s55.667 4.33301 77 13c29.333 11.333 44 29.666 44 54.999z" />
    <glyph glyph-name="nine" unicode="9" 
d="M619 338c0 -235.333 -111.998 -353 -335.998 -353c-60.667 0 -133.334 19 -218.001 57v98c62 -16.667 130.667 -25 206 -25c84 0 136 45.667 156 137c-42 -28 -92.667 -42 -152 -42c-70.667 0 -130 18 -178 54c-52.667 40 -79 94 -79 162c0 74 31.333 132.333 94 175
c55.333 37.333 121.666 56 198.999 56c102 0 179.333 -28 232 -84c50.667 -54.667 76 -133 76 -235zM425.002 417c0 33.333 -11.333 61.166 -34 83.499s-50.667 33.5 -84 33.5c-30 0 -55.167 -9.33301 -75.5 -28s-30.5 -42.667 -30.5 -72
c0 -32.667 9.83301 -58.167 29.5 -76.5s46.167 -27.5 79.5 -27.5c28.667 0 54 7.33301 76 22c26 16.667 39 38.334 39 65.001z" />
    <glyph glyph-name="colon" unicode=":" horiz-adv-x="260" 
d="M217 382c0 -23.333 -8.33301 -43.333 -25 -60s-36.667 -25 -60 -25s-43.333 8.33301 -60 25s-25 36.667 -25 60s8.33301 43.333 25 60s36.667 25 60 25s43.333 -8.33301 60 -25s25 -36.667 25 -60zM217 69c0 -23.333 -8.33301 -43.333 -25 -60s-36.667 -25 -60 -25
s-43.333 8.33301 -60 25s-25 36.667 -25 60s8.33301 43.333 25 60s36.667 25 60 25s43.333 -8.33301 60 -25s25 -36.667 25 -60z" />
    <glyph glyph-name="semicolon" unicode=";" horiz-adv-x="260" 
d="M217 382c0 -23.333 -8.33301 -43.333 -25 -60s-36.667 -25 -60 -25s-43.333 8.33301 -60 25s-25 36.667 -25 60s8.33301 43.333 25 60s36.667 25 60 25s43.333 -8.33301 60 -25s25 -36.667 25 -60zM202 131c-1.33301 -57.333 -7.33301 -104.002 -18 -140.002
c-11.333 -39.333 -32.333 -81.666 -63 -126.999l-54 23c19.333 46.667 29 87.334 29 122.001c0 31.333 -11.667 72 -35 122h141z" />
    <glyph glyph-name="less" unicode="&#x3c;" horiz-adv-x="584" 
d="M546 34l-516 228v52l516 232v-61l-443 -199l443 -194v-58z" />
    <glyph glyph-name="equal" unicode="=" horiz-adv-x="549" 
d="M513 349h-483v52h483v-52zM513 174h-483v51h483v-51z" />
    <glyph glyph-name="greater" unicode="&#x3e;" horiz-adv-x="596" 
d="M557 261l-517 -227v58l444 193l-444 200v61l517 -233v-52z" />
    <glyph glyph-name="question" unicode="?" horiz-adv-x="495" 
d="M457 494c0 -39.333 -15 -74.335 -45 -105.002c-10 -10 -38.333 -31.667 -85 -65c-31.333 -23.333 -48.333 -44 -51 -62c-1.33301 -7.33301 -1 -27 1 -59l-135 1c-0.666992 4 -1 10 -1 18c0 40.667 14.333 75.334 43 104.001l78 61c28.667 23.333 43 48.333 43 75
c0 62.667 -40 94.334 -120 95.001c-43.333 0.666992 -89 -9.33301 -137 -30v66c63.333 42 124 63 182 63s108.333 -12.333 151 -37c50.667 -29.333 76 -71 76 -125zM297 68.998c0 -23.333 -8.33301 -43.333 -25 -60s-36.667 -25 -60 -25s-43.333 8.33301 -60 25
s-25 36.667 -25 60s8.33301 43.333 25 60s36.667 25 60 25s43.333 -8.33301 60 -25s25 -36.667 25 -60z" />
    <glyph glyph-name="at" unicode="@" horiz-adv-x="948" 
d="M887 367c0 -78 -22 -150.334 -66 -217.001c-49.333 -74.667 -111.333 -112 -186 -112c-57.333 0 -86 28.667 -86 86c0 9.33301 0.666992 20.333 2 33l-1 2c-55.333 -81.333 -114.666 -122 -177.999 -122c-33.333 0 -59 12 -77 36s-27 53 -27 87
c0.666992 73.333 24 143.333 70 210c51.333 74 112 111 182 111c52.667 0 85 -27 97 -81l2 2l12 45l72 1l-76 -271c-5.33301 -19.333 -8 -36.666 -8 -51.999c0 -12 2.66699 -24 8 -36c7.33301 -15.333 17 -23 29 -23c36 0 73 22.667 111 68c30 36 53 74.833 69 116.5
s24 83.167 24 124.5c0 90 -32 163.333 -96 220c-61.333 54.667 -137.666 82 -228.999 82c-124 0 -226.333 -44.667 -307 -134c-78.667 -86.667 -118 -192.667 -118 -318c0 -112.667 37.333 -203.667 112 -273c72.667 -67.333 165.667 -101 279 -101
c146 0 261.667 62 347 186l20 -9c-39.333 -64.667 -92 -115 -158 -151s-137 -54 -213 -54c-124.667 0 -228.334 37.667 -311.001 113c-84.667 78 -127 179 -127 303c0 129.333 45.667 238.833 137 328.5s201.666 134.5 330.999 134.5c105.333 0 191 -29.333 257 -88
c68.667 -60.667 103 -143 103 -247zM597 371.999c0 22.667 -6.33301 42.833 -19 60.5s-30 26.5 -52 26.5c-46 0 -89.333 -38.667 -130 -116c-36 -68.667 -54 -128.667 -54 -180c0 -52.667 21.667 -79 65 -79c51.333 0 97 36 137 108c35.333 63.333 53 123.333 53 180z" />
    <glyph glyph-name="A" unicode="A" horiz-adv-x="712" 
d="M704 0h-200l-60 158h-239l-63 -158h-130l247 643h197zM398 277l-71 187l-75 -187h146z" />
    <glyph glyph-name="B" unicode="B" horiz-adv-x="620" 
d="M615 171c0 -57.333 -24.667 -101.334 -74 -132.001c-42 -26 -93.333 -39 -154 -39h-317v640h321c54 0 99.667 -10.667 137 -32c45.333 -26 68 -63.667 68 -113c0 -43.333 -16.333 -79.666 -49 -108.999c-28 -25.333 -65 -43.333 -111 -54v-2
c119.333 -17.333 179 -70.333 179 -159zM413 453.999c0 22 -9.33496 40.333 -28.002 55c-17.333 12.667 -37.666 19 -60.999 19c-8.66699 0 -19.667 -0.666992 -33 -2c-17.333 -1.33301 -28.333 -2 -33 -2v-144c32 -3.33301 51.667 -5 59 -5
c24.667 0 46.834 7.33301 66.501 22s29.5 33.667 29.5 57zM427.998 185.999c0 27.333 -10.333 49.333 -31 66c-18.667 14.667 -42 22.334 -70 23.001c-6.66699 0 -29.667 -1.66699 -69 -5v-152c36 -2.66699 63 -4 81 -4c24 0 44.833 6.16699 62.5 18.5
s26.5 30.166 26.5 53.499z" />
    <glyph glyph-name="C" unicode="C" horiz-adv-x="627" 
d="M600 34c-80.667 -33.333 -160 -50.001 -238 -50.001c-96.667 0 -177.5 31.833 -242.5 95.5s-97.5 143.834 -97.5 240.501c0 100 33.333 181.333 100 244c64.667 61.333 147.667 92 249 92c83.333 0 159 -20.667 227 -62v-109c-88 32.667 -159.333 47 -214 43
c-115.333 -8 -173 -77.333 -173 -208c0 -140.667 65.333 -211 196 -211c48.667 0 113 13.333 193 40v-115z" />
    <glyph glyph-name="D" unicode="D" horiz-adv-x="726" 
d="M710 343c0 -100.667 -30.833 -183 -92.5 -247s-142.834 -96 -243.501 -96h-304v640h331c92.667 0 167.334 -26.5 224.001 -79.5s85 -125.5 85 -217.5zM522 333c0 52.667 -14.001 96.334 -42.001 131.001c-30.667 37.333 -71.667 56 -123 56
c-12.667 0 -29 -0.666992 -49 -2c-26 -1.33301 -42.667 -2 -50 -2l-1 -390c24 -1.33301 60 -3 108 -5c56.667 -0.666992 98.334 21.666 125.001 66.999c21.333 36 32 84.333 32 145z" />
    <glyph glyph-name="E" unicode="E" horiz-adv-x="588" 
d="M567 0h-497v640h486v-120h-298v-137h271v-113h-271v-148h309v-122z" />
    <glyph glyph-name="F" unicode="F" horiz-adv-x="576" 
d="M556 520h-298v-137h271v-113h-271v-270h-188v640h486v-120z" />
    <glyph glyph-name="G" unicode="G" horiz-adv-x="675" 
d="M605 30c-69.333 -30.667 -150.333 -46.001 -243 -46.001c-96.667 0 -177.5 31.833 -242.5 95.5s-97.5 143.834 -97.5 240.501c0 100 33.333 181.333 100 244c64.667 61.333 147.667 92 249 92c81.333 0 157 -20.667 227 -62v-109c-66 30.667 -126.333 46 -181 46
c-12 0 -23 -1 -33 -3c-115.333 -22 -173 -91.333 -173 -208c0 -72 16.5 -125.167 49.5 -159.5s85.167 -51.5 156.5 -51.5v206h188v-285z" />
    <glyph glyph-name="H" unicode="H" horiz-adv-x="731" 
d="M668 0h-188v271h-222v-271h-188v640h188v-245h222v245h188v-640z" />
    <glyph glyph-name="I" unicode="I" horiz-adv-x="326" 
d="M258 0h-188v640h188v-640z" />
    <glyph glyph-name="J" unicode="J" horiz-adv-x="462" 
d="M393 -25c0 -140 -76.334 -210 -229.001 -210c-63.333 0 -120.333 12 -171 36v99c52.667 -16 97.334 -24 134.001 -24c37.333 0 61 18.333 71 55c4.66699 16 7 49.667 7 101v608h188v-665z" />
    <glyph glyph-name="K" unicode="K" horiz-adv-x="685" 
d="M673 0h-219l-196 275v-275h-188v640h188v-278l222 278h166l-233 -293z" />
    <glyph glyph-name="L" unicode="L" horiz-adv-x="553" 
d="M537 0h-467v640h188v-518h279v-122z" />
    <glyph glyph-name="M" unicode="M" horiz-adv-x="895" 
d="M826 0h-175v459l-147 -414h-139l-146 424v-469h-149v640h238l145 -408l147 408h226v-640z" />
    <glyph glyph-name="N" unicode="N" horiz-adv-x="737" 
d="M669 -3h-177l-276 414v-411h-147v640h197l255 -398v398h148v-643z" />
    <glyph glyph-name="O" unicode="O" horiz-adv-x="733" 
d="M712 319c0 -102.667 -31.6689 -184.167 -95.002 -244.5s-146.666 -90.5 -249.999 -90.5c-96.667 0 -178.334 31.833 -245.001 95.5s-100 143.5 -100 239.5c0 102.667 31.833 184.5 95.5 245.5s146.834 91.5 249.501 91.5s185.834 -30.667 249.501 -92
s95.5 -143 95.5 -245zM522.998 319c0 58 -11.334 105.333 -34.001 142c-27.333 44.667 -68 67 -122 67c-54.667 0 -95.667 -22.333 -123 -67c-22 -36 -33 -83.333 -33 -142s11 -106 33 -142c26.667 -43.333 67.667 -65 123 -65c54.667 0 95.334 22 122.001 66
c22.667 36 34 83 34 141z" />
    <glyph glyph-name="P" unicode="P" horiz-adv-x="623" 
d="M616 459c0 -75.333 -29.667 -134.001 -89 -176.001c-52.667 -37.333 -118 -56 -196 -56h-73v-227h-188v640h317c66.667 0 119.667 -13 159 -39c46.667 -31.333 70 -78.666 70 -141.999zM434 440.999c0 52.667 -32.667 79.001 -98 79.001
c-17.333 0 -43.333 -1.33301 -78 -4v-171c14 -2 35 -4 63 -6c30.667 -0.666992 57.167 8.66602 79.5 27.999s33.5 44 33.5 74z" />
    <glyph glyph-name="Q" unicode="Q" horiz-adv-x="733" 
d="M712 326c0 -73.333 -14.665 -136.667 -43.998 -190c-32 -58.667 -80 -101 -144 -127c20 -16 48.667 -31.5 86 -46.5s69.666 -24.167 96.999 -27.5l-166 -50c-78.667 30 -140 64.333 -184 103c-11.333 0 -28.333 1 -51 3c-91.333 12 -161.666 48 -210.999 108
c-48.667 58 -73 133.667 -73 227c0 102.667 31.667 183.334 95 242.001s146.666 88 249.999 88s186.666 -29.333 249.999 -88s95 -139.334 95 -242.001zM523.002 324.999c0 57.333 -11.332 103.667 -33.999 139c-27.333 42 -68 63 -122 63
c-54.667 0 -95.334 -21 -122.001 -63c-22.667 -34.667 -34 -81 -34 -139c0 -60.667 10.667 -110.334 32 -149.001c26.667 -49.333 68 -74 124 -74s97.333 24.667 124 74c21.333 38.667 32 88.334 32 149.001z" />
    <glyph glyph-name="R" unicode="R" horiz-adv-x="661" 
d="M672 0h-216.999l-170 259h-27v-259h-188v640h316c63.333 0 114.666 -11.333 153.999 -34c48 -28 72 -71.667 72 -131c0 -47.333 -14.5 -88.333 -43.5 -123s-66.5 -56 -112.5 -64zM427.001 448c0 49.333 -31.333 74 -94 74c-16.667 0 -41.667 -1.33301 -75 -4v-161
c44 -2 66.667 -3 68 -3c26 0 49.333 9.33301 70 28s31 40.667 31 66z" />
    <glyph glyph-name="S" unicode="S" horiz-adv-x="551" 
d="M530 186c0 -62.667 -30.666 -113.332 -91.999 -151.999c-52.667 -33.333 -112.334 -50 -179.001 -50c-75.333 0 -149 14.667 -221 44l-1 148c16.667 -16 51.667 -33 105 -51c51.333 -18 89.666 -27 114.999 -27c24.667 0 46.334 5 65.001 15c23.333 12.667 35 30 35 52
c0 26 -28.333 50 -85 72c-86.667 34.667 -139.667 58 -159 70c-56.667 37.333 -85 86.333 -85 147c0 62 27.667 112.333 83 151c48.667 34 105.667 51 171 51c56.667 0 120.334 -14.333 191.001 -43v-108c-79.333 20.667 -138.333 31 -177 31
c-22 0 -41.667 -4.66699 -59 -14c-21.333 -11.333 -32 -27 -32 -47c0 -16.667 28 -37 84 -61c77.333 -32.667 129.666 -59.334 156.999 -80.001c56 -40.667 84 -90 84 -148z" />
    <glyph glyph-name="T" unicode="T" horiz-adv-x="643" 
d="M635 512h-220v-512h-188v512h-220v129h628v-129z" />
    <glyph glyph-name="U" unicode="U" horiz-adv-x="705" 
d="M644 241c0 -171.333 -95 -257 -285 -257c-198.667 0 -298 85.667 -298 257v399h185v-404c0 -88.667 40.333 -133 121 -133c76 0 114 48.333 114 145v392h163v-399z" />
    <glyph glyph-name="V" unicode="V" horiz-adv-x="669" 
d="M661 640l-247 -643h-157l-248 643h200l151 -429l171 429h130z" />
    <glyph glyph-name="W" unicode="W" horiz-adv-x="938" 
d="M930 640l-177 -643h-157l-124 417l-115 -417h-157l-191 643h190l104 -399l111 399h181l104 -399l111 399h120z" />
    <glyph glyph-name="X" unicode="X" horiz-adv-x="666" 
d="M654 0h-203l-139 233l-148 -233h-152l205 321l-199 319h206l127 -225l148 225h151l-205 -305z" />
    <glyph glyph-name="Y" unicode="Y" 
d="M638 640l-221 -376v-264h-188v263l-220 377h200l138 -261l146 261h145z" />
    <glyph glyph-name="Z" unicode="Z" horiz-adv-x="559" 
d="M532 0h-505v117l290 398h-283v126h494v-132l-285 -385h289v-124z" />
    <glyph glyph-name="bracketleft" unicode="[" horiz-adv-x="305" 
d="M267 -64h-211v726h211v-86h-79v-553h79v-87z" />
    <glyph glyph-name="backslash" unicode="\" horiz-adv-x="477" 
d="M490 -48l-107 -24l-395 718l107 24z" />
    <glyph glyph-name="bracketright" unicode="]" horiz-adv-x="305" 
d="M249 -64h-210v87h78v553h-78v86h210v-726z" />
    <glyph glyph-name="asciicircum" unicode="^" horiz-adv-x="564" 
d="M523 197h-106l-136 266l-134 -266h-106l221 426h52z" />
    <glyph glyph-name="underscore" unicode="_" horiz-adv-x="456" 
d="M468 -81h-480v49h480v-49z" />
    <glyph glyph-name="grave" unicode="`" horiz-adv-x="415" 
d="M271 578h-59l-151 112h140z" />
    <glyph glyph-name="a" unicode="a" horiz-adv-x="567" 
d="M533 0c-11.333 0 -32.999 -0.999023 -64.999 -2.99902c-27.333 -1.33301 -49 -2 -65 -2c-21.333 0 -36.666 7.66699 -45.999 23c-6.66699 10 -12.334 27.333 -17.001 52c-14.667 -26.667 -36.334 -47.167 -65.001 -61.5s-58.667 -21.5 -90 -21.5
c-46 0 -84.667 12 -116 36c-34.667 26 -52 61.333 -52 106c0 75.333 35.667 127 107 155c42 16 109.667 25.333 203 28v27c0 46 -39.333 68.667 -118 68c-62.667 -0.666992 -115.667 -8.66699 -159 -24v78c65.333 40.667 140.333 61 225 61c60 0 111.333 -11.667 154 -35
c52 -28.667 78 -70.667 78 -126v-192c0 -38.667 0.666992 -61.334 2 -68.001c2 -12 7.66699 -18 17 -18h7v-83zM331.001 211.001c-0.666992 4.66699 -1 12.333 -1 23c-92.667 0 -139 -24.667 -139 -74c0 -44 19 -66 57 -66c55.333 0 83 39 83 117z" />
    <glyph glyph-name="b" unicode="b" horiz-adv-x="635" 
d="M612 270c0 -80 -16.668 -145 -50.001 -195c-38.667 -58.667 -96 -88 -172 -88c-62 0 -106 13.667 -132 41v-28h-188v697h188v-252c32.667 51.333 84.334 77 155.001 77c69.333 0 121 -26 155 -78c29.333 -43.333 44 -101.333 44 -174zM420.999 252
c0 83.333 -29.333 125 -88 125c-23.333 0 -41.666 -7.33301 -54.999 -22s-20 -34 -20 -58l-1 -179c26.667 -4.66699 50 -7 70 -7c31.333 0 55.666 16.667 72.999 50c14 26.667 21 57 21 91z" />
    <glyph glyph-name="c" unicode="c" horiz-adv-x="535" 
d="M501 14c-66 -18 -130.666 -26.999 -193.999 -26.999c-78 0 -144.833 25.833 -200.5 77.5s-83.5 116.5 -83.5 194.5c0 81.333 28.333 146.333 85 195c53.333 45.333 121 68 203 68c61.333 0 119 -17.333 173 -52v-97c-42.667 15.333 -91.334 23 -146.001 23
c-82 0 -123 -47 -123 -141c0 -44.667 11.833 -79.334 35.5 -104.001s57.834 -37 102.501 -37c33.333 0 82.666 3.33301 147.999 10v-110z" />
    <glyph glyph-name="d" unicode="d" horiz-adv-x="637" 
d="M577 0h-188l-1 48c-44.667 -40.667 -88.334 -61 -131.001 -61c-75.333 0 -132.666 29.333 -171.999 88c-33.333 50 -50 115 -50 195c0 72.667 14.667 130.667 44 174c34 52 85.667 78 155 78c26.667 0 55 -4.33301 85 -13c36 -11.333 59.333 -26 70 -44v232h188v-697z
M389 138v159c0 24 -6.66699 43.333 -20 58s-31.666 22 -54.999 22c-58.667 0 -88 -41.667 -88 -125c0 -34 7 -64.333 21 -91c17.333 -33.333 41.666 -50 72.999 -50c28 0 51 9 69 27z" />
    <glyph glyph-name="e" unicode="e" horiz-adv-x="579" 
d="M541 257c0 -10 -1.33105 -25.6689 -3.99805 -47.002h-338c4.66699 -37.333 22.667 -65.666 54 -84.999c27.333 -17.333 60.666 -26 99.999 -26c53.333 0 110.666 8.33301 171.999 25v-106c-65.333 -20.667 -136 -31 -212 -31c-84 0 -153 23.667 -207 71
c-57.333 49.333 -86 115.333 -86 198c0 86.667 25.333 153 76 199c48.667 44.667 117 67 205 67c78 0 138 -25 180 -75c40 -47.333 60 -110.666 60 -189.999zM390.002 311.998c-1.33301 28.667 -9.83301 52.167 -25.5 70.5s-37.5 27.5 -65.5 27.5
c-26 0 -48 -9.66699 -66 -29s-28.667 -42.333 -32 -69h189z" />
    <glyph glyph-name="f" unicode="f" horiz-adv-x="420" 
d="M405 408h-134.999v-408h-183l-1 408h-83v95h77c0 56 17 99.833 51 131.5s79.667 47.5 137 47.5c55.333 0 99.666 -13 132.999 -39v-82c-52 4 -78.333 6 -79 6c-35.333 0 -53 -21.333 -53 -64h136v-95z" />
    <glyph glyph-name="g" unicode="g" horiz-adv-x="649" 
d="M627 416c-25.333 5.33301 -49.3301 7.99902 -71.9971 7.99902c20.667 -26.667 31 -57.334 31 -92.001c0 -75.333 -28.667 -130.666 -86 -165.999c-47.333 -28.667 -111 -43 -191 -43c-30.667 0 -59.667 2.33301 -87 7c-12 -10.667 -18 -21 -18 -31
c0 -12 18.667 -19 56 -21c-12 0.666992 11.667 1 71 1c194.667 0 292 -44.333 292 -133c0 -63.333 -48.333 -110 -145 -140c-66.667 -21.333 -141.334 -32 -224.001 -32c-80.667 0 -158 17.667 -232 53v105c66 -35.333 155.667 -53 269 -53c100 0 150 17 150 51
c0 21.333 -22 35 -66 41c-14.667 2 -45.334 3 -92.001 3c-154.667 0 -232 24 -232 72c0 13.333 9.33301 34 28 62c15.333 22.667 30 41 44 55c-60.667 34.667 -91 91 -91 169c0 68.667 30.667 119.334 92 152.001c47.333 25.333 108.666 38 183.999 38
c10 0 24.833 -1.66699 44.5 -5s34.167 -5 43.5 -5c12 0 89 4.66699 231 14v-110zM407.003 323.999c0 29.333 -9.00098 54.333 -27.001 75s-41.667 31 -71 31c-31.333 0 -55.666 -9.66699 -72.999 -29s-26 -45 -26 -77c0 -77.333 33 -116 99 -116
c32.667 0 57.667 11.333 75 34c15.333 20.667 23 48 23 82z" />
    <glyph glyph-name="h" unicode="h" horiz-adv-x="643" 
d="M585 0h-188.001v313c0 52.667 -25 79 -75 79c-24.667 0 -46 -9 -64 -27v-365h-188v697h188v-242c56.667 44.667 112.334 67 167.001 67c49.333 0 88.333 -14.667 117 -44s43 -69 43 -119v-359z" />
    <glyph glyph-name="i" unicode="i" horiz-adv-x="321" 
d="M261 663c0 -26.667 -9.33301 -50.001 -28 -70.001s-41.667 -30 -69 -30s-51 9.33301 -71 28s-30 41.334 -30 68.001s9.33301 50.167 28 70.5s41.667 30.5 69 30.5c26.667 0 50.167 -9.33301 70.5 -28s30.5 -41.667 30.5 -69zM258 -0.000976562h-188v503h188v-503z" />
    <glyph glyph-name="j" unicode="j" horiz-adv-x="337" 
d="M276 663c0 -26.667 -9.33301 -50.001 -28 -70.001s-41.667 -30 -69 -30s-51 9.33301 -71 28s-30 41.334 -30 68.001s9.33301 50.167 28 70.5s41.667 30.5 69 30.5c26.667 0 50.167 -9.33301 70.5 -28s30.5 -41.667 30.5 -69zM273 -52.001
c0 -59.333 -16.833 -104.333 -50.5 -135s-80.5 -46 -140.5 -46c-47.333 0 -95.666 7.33301 -144.999 22v97c27.333 -8.66699 59 -13 95 -13c23.333 0 38.666 8.66699 45.999 26c4.66699 10 7 28.667 7 56v548h188v-555z" />
    <glyph glyph-name="k" unicode="k" horiz-adv-x="608" 
d="M606 0h-202l-146 226v-226h-188v697h188v-398l157 210h165l-173 -232z" />
    <glyph glyph-name="l" unicode="l" horiz-adv-x="321" 
d="M258 0h-188v697h188v-697z" />
    <glyph glyph-name="m" unicode="m" horiz-adv-x="953" 
d="M912 0h-188v313c0 52.667 -25 79 -75 79c-24.667 0 -46 -8 -64 -24v-368h-188v313c0 52.667 -25 79 -75 79c-24.667 0 -46 -9 -64 -27v-365h-188v503h188v-48c56.667 44.667 112 67 166 67c66.667 0 113.667 -25 141 -75c18 18 47.167 35 87.5 51s73.5 24 99.5 24
c49.333 0 88.333 -14.667 117 -44s43 -69 43 -119v-359z" />
    <glyph glyph-name="n" unicode="n" horiz-adv-x="643" 
d="M585 0h-188.001v313c0 52.667 -25 79 -75 79c-24.667 0 -46 -9 -64 -27v-365h-188v503h188v-48c56.667 44.667 112.334 67 167.001 67c49.333 0 88.333 -14.667 117 -44s43 -69 43 -119v-359z" />
    <glyph glyph-name="o" unicode="o" horiz-adv-x="623" 
d="M600 267c0 -92 -24.832 -161.667 -74.499 -209s-120.834 -71 -213.501 -71s-164 23.667 -214 71s-75 117 -75 209c0 85.333 27.333 150 82 194c50 40.667 119 61 207 61c80.667 0 148 -22 202 -66c57.333 -47.333 86 -110.333 86 -189zM414.001 256
c0 36.667 -7.66699 68.333 -23 95c-18.667 32 -45 48 -79 48c-36 0 -63 -15.667 -81 -47c-14.667 -25.333 -22 -57.333 -22 -96c0 -103.333 34.333 -155 103 -155c36.667 0 64 17.667 82 53c13.333 26.667 20 60.667 20 102z" />
    <glyph glyph-name="p" unicode="p" horiz-adv-x="637" 
d="M612 233c0 -72.667 -14.667 -130.667 -44 -174c-34 -52 -85.667 -78 -155 -78c-26.667 0 -55 4.33301 -85 13c-36 11.333 -59.333 26 -70 44v-232h-188v697h188l1 -48c44.667 40.667 88.334 61 131.001 61c75.333 0 132.666 -29.333 171.999 -88
c33.333 -50 50 -115 50 -195zM421 251c0 34 -7 64.667 -21 92c-17.333 32.667 -41.666 49 -72.999 49c-28 0 -51 -9 -69 -27v-159c0 -24 6.66699 -43.333 20 -58s31.666 -22 54.999 -22c58.667 0 88 41.667 88 125z" />
    <glyph glyph-name="q" unicode="q" horiz-adv-x="635" 
d="M578 -194h-187.998v252c-32.667 -51.333 -84.334 -77 -155.001 -77c-69.333 0 -121 26 -155 78c-29.333 43.333 -44 101.333 -44 174c0 80 16.667 145 50 195c39.333 58.667 96.666 88 171.999 88c62 0 106 -13.667 132 -41v28h188v-697zM391.002 385
c-26.667 4.66699 -50 7 -70 7c-31.333 0 -55.666 -16.333 -72.999 -49c-14 -27.333 -21 -58 -21 -92c0 -83.333 29.333 -125 88 -125c23.333 0 41.666 7.33301 54.999 22s20 34 20 58z" />
    <glyph glyph-name="r" unicode="r" horiz-adv-x="478" 
d="M425 353c-34.667 19.333 -65.3311 28.999 -91.998 28.999c-14 0 -28 -3.33301 -42 -10c-16 -7.33301 -27 -16.333 -33 -27v-345h-188v503h188v-48c15.333 20.667 36.166 37.334 62.499 50.001s52.166 19 77.499 19c6 0 15 -0.666992 27 -2v-169z" />
    <glyph glyph-name="s" unicode="s" horiz-adv-x="501" 
d="M478 158c0 -56 -25.332 -99.666 -75.999 -130.999c-42.667 -26.667 -94 -40 -154 -40c-86 0 -157.333 14 -214 42v115c75.333 -34 138.333 -51 189 -51c49.333 0 74 14 74 42c0 20.667 -23 38 -69 52c-67.333 20 -110 35.667 -128 47c-46 28 -69 69.667 -69 125
c0 57.333 26.667 100.333 80 129c41.333 22.667 93.666 34 156.999 34c32 0 63.667 -4.33301 95 -13c28 -7.33301 47.667 -15.666 59 -24.999v-91c-56.667 12 -104.667 18 -144 18c-16 0 -31 -3.66699 -45 -11c-16.667 -8.66699 -25 -20.334 -25 -35.001
c0 -18 23.333 -34 70 -48c68 -20.667 111.333 -36 130 -46c46.667 -26.667 70 -64.334 70 -113.001z" />
    <glyph glyph-name="t" unicode="t" horiz-adv-x="430" 
d="M405 408h-136.003v-235c0 -44.667 20 -67 60 -67c14.667 0 38.334 1 71.001 3v-83c-33.333 -26 -77.666 -39 -132.999 -39c-51.333 0 -94.666 14.333 -129.999 43c-38 30.667 -57 71 -57 121v257h-77v72c42.667 6 74.667 19.333 96 40c20 18.667 35.667 49.667 47 93
l124 12v-122h135v-95z" />
    <glyph glyph-name="u" unicode="u" horiz-adv-x="643" 
d="M574 0h-187.999v48c-56.667 -44.667 -112.334 -67 -167.001 -67c-49.333 0 -88.333 14.667 -117 44s-43 69 -43 119v359h188v-313c0 -52.667 25 -79 75 -79c24.667 0 46 9 64 27v365h188v-503z" />
    <glyph glyph-name="v" unicode="v" horiz-adv-x="583" 
d="M580 503l-216 -506h-152l-210 506h193l124 -323l139 323h122z" />
    <glyph glyph-name="w" unicode="w" horiz-adv-x="844" 
d="M834 503l-176 -506h-152l-88 257l-94 -257h-152l-170 506h183l94 -323l109 323h131l94 -323l109 323h112z" />
    <glyph glyph-name="x" unicode="x" horiz-adv-x="540" 
d="M541 0h-180l-104 166l-111 -166h-146l173 249l-166 255h192l86 -148l110 147h140l-167 -234z" />
    <glyph glyph-name="y" unicode="y" horiz-adv-x="581" 
d="M579 509l-329 -744h-179l145 257l-216 487h197l117 -323l152 323h113z" />
    <glyph glyph-name="z" unicode="z" horiz-adv-x="532" 
d="M499 0h-469v102l238 287h-231v120h458v-98l-242 -295h246v-116z" />
    <glyph glyph-name="braceleft" unicode="{" horiz-adv-x="296" 
d="M266 -99l-95 -0.000976562c-56 0 -84 19 -84 57v294c0 30.667 -15 50.667 -45 60v7c30 10 45 29.333 45 58v295c0 37.333 28 56 84 56h95v-48c-30 0 -49.333 -2 -58 -6c-13.333 -7.33301 -20 -24 -20 -50v-241c0 -18 -7.5 -33 -22.5 -45s-32.167 -19 -51.5 -21v-4
c19.333 -1.33301 36.5 -8.16602 51.5 -20.499s22.5 -27.833 22.5 -46.5v-240c0 -26 6.66699 -42.667 20 -50c8.66699 -4 28 -6 58 -6v-49z" />
    <glyph glyph-name="bar" unicode="|" horiz-adv-x="338" 
d="M185 -136h-32v920h32v-920z" />
    <glyph glyph-name="braceright" unicode="}" horiz-adv-x="266" 
d="M243 312c-30 -9.33301 -45 -29.3359 -45 -60.0029v-294c0 -38 -28 -57 -84 -57h-96v49c30.667 0 50 2 58 6c14 6.66699 21 23.334 21 50.001v240c0 18.667 8 34.334 24 47.001c14 12 30.667 18.667 50 20v4c-19.333 2 -36 8.66699 -50 20c-16 12 -24 27.333 -24 46v241
c0 26.667 -7 43.334 -21 50.001c-8 4 -27.333 6 -58 6v48h96c56 0 84 -18.667 84 -56v-296c0 -28.667 15 -48 45 -58v-6z" />
    <glyph glyph-name="asciitilde" unicode="~" horiz-adv-x="550" 
d="M477 280c-26.667 -18 -65.666 -27 -116.999 -27c-21.333 0 -52.833 5.33301 -94.5 16s-73.5 16 -95.5 16c-44 0 -77.667 -11 -101 -33l-1 76c27.333 18 66 27 116 27c22 0 53.833 -5.5 95.5 -16.5s73.167 -16.5 94.5 -16.5c41.333 0 75.666 11 102.999 33v-75z" />
    <glyph glyph-name="nonbreakingspace" unicode="&#xa0;" horiz-adv-x="456" 
 />
    <glyph glyph-name="exclamdown" unicode="&#xa1;" horiz-adv-x="248" 
d="M215 421c0 -23.333 -8.33301 -43.333 -25 -60s-36.667 -25 -60 -25s-43.333 8.33301 -60 25s-25 36.667 -25 60s8.33301 43.333 25 60s36.667 25 60 25s43.333 -8.33301 60 -25s25 -36.667 25 -60zM209 -150h-155l33 437h90z" />
    <glyph glyph-name="cent" unicode="&#xa2;" horiz-adv-x="535" 
d="M501 34c-44.667 -25.333 -97.332 -40.667 -157.999 -46v-54h-32v53c-80 0 -147.333 25.333 -202 76c-57.333 52 -86 117.333 -86 196c0 80.667 28 145.334 84 194.001c53.333 46 121.333 69 204 69v62h32v-64c40.667 -4 87.667 -17.333 141 -40v-136
c-38 33.333 -85 50.666 -141 51.999v-282h10c33.333 0 82.666 3.33301 147.999 10v-90zM311.002 117.999v275c-64 -9.33301 -96 -55 -96 -137c0 -76.667 32 -122.667 96 -138z" />
    <glyph glyph-name="sterling" unicode="&#xa3;" horiz-adv-x="600" 
d="M555 7c-7.33301 -4 -28.332 -7.66895 -62.999 -11.002c-29.333 -2.66699 -52 -4 -68 -4c-22 0 -55.333 2.33301 -100 7s-78.334 7 -101.001 7c-65.333 0 -111.333 -4.66699 -138 -14l-23 128c34 4.66699 56.333 23 67 55c5.33301 16.667 8.33301 48 9 94h-67v100h63
c-3.33301 14.667 -5 33.334 -5 56.001c0 64.667 21.5 119.334 64.5 164.001s96.833 67 161.5 67c80 0 145.333 -17.667 196 -53v-88c-52 10.667 -96.667 16 -134 16c-48 0 -79 -17 -93 -51c-8 -18.667 -12 -55.667 -12 -111h132v-100h-132c-2 -64 -35.667 -109 -101 -135
l1 -2c22 8 61.333 12 118 12c13.333 0 33.333 -1.16699 60 -3.5s46.667 -3.5 60 -3.5c14 0 32.667 2 56 6c28 4.66699 44.333 10 49 16v-152z" />
    <glyph glyph-name="yen" unicode="&#xa5;" 
d="M638 640l-164 -279h77v-52h-108l-26 -45v-39h134v-51h-134v-174h-188v174h-161v51h161v38l-27 46h-134v52h104l-163 279h200l138 -261l146 261h145z" />
    <glyph glyph-name="brokenbar" unicode="&#xa6;" horiz-adv-x="239" 
d="M149 686v-294h-59v294h59zM149 278v-294h-59v294h59z" />
    <glyph glyph-name="section" unicode="&#xa7;" horiz-adv-x="511" 
d="M438 78c0 -50 -20.334 -89.666 -61.001 -118.999c-36.667 -25.333 -81 -38 -133 -38c-57.333 0 -111 15.667 -161 47v80c18.667 -16 44.334 -29.333 77.001 -40c30.667 -10 59 -15 85 -15c24 0 44.667 6 62 18c20 12.667 30 30.334 30 53.001
c0 27.333 -22.333 49.666 -67 66.999c-78.667 30.667 -120.334 47.334 -125.001 50.001c-44.667 26.667 -67 65 -67 115c0 56.667 26.333 99.667 79 129c-52.667 27.333 -79 67.666 -79 120.999c0 47.333 19 85.666 57 114.999c35.333 26 77.333 39 126 39s98 -11 148 -33
v-62c-36 17.333 -73.667 26 -113 26c-29.333 0 -54.666 -5 -75.999 -15c-28 -12.667 -42 -31.667 -42 -57c0 -26.667 22.333 -48.667 67 -66c78 -30 120 -46.667 126 -50c44.667 -26.667 67 -65 67 -115c0 -56.667 -26 -100 -78 -130c52 -25.333 78 -65.333 78 -120z
M336.999 315.001c0 27.333 -20.667 49.001 -62 65.001c-64.667 -6 -97 -30 -97 -72c0 -26.667 21.333 -48.334 64 -65.001h3c24 0 44.667 6 62 18c20 13.333 30 31.333 30 54z" />
    <glyph glyph-name="dieresis" unicode="&#xa8;" horiz-adv-x="415" 
d="M363 628c0 -16.667 -6 -30.5 -18 -41.5s-26.333 -16.5 -43 -16.5c-17.333 0 -32.333 6 -45 18s-19 26.667 -19 44c0 16 6 29.5 18 40.5s26.333 16.5 43 16.5c17.333 0 32.333 -6 45 -18s19 -26.333 19 -43zM176 626c0 -16 -5.83105 -29.5 -17.498 -40.5
s-25.834 -16.5 -42.501 -16.5c-17.333 0 -32 6 -44 18s-18 26.333 -18 43s5.83301 30.5 17.5 41.5s25.5 16.5 41.5 16.5c17.333 0 32.166 -6 44.499 -18s18.5 -26.667 18.5 -44z" />
    <glyph glyph-name="copyright" unicode="&#xa9;" horiz-adv-x="775" 
d="M734 331c0 -95.333 -33.833 -176.833 -101.5 -244.5s-149.167 -101.5 -244.5 -101.5s-176.833 33.833 -244.5 101.5s-101.5 149.167 -101.5 244.5s33.833 176.666 101.5 243.999s149.167 101 244.5 101s176.833 -33.667 244.5 -101s101.5 -148.666 101.5 -243.999z
M699 331c0 85.333 -30.5 158.333 -91.5 219s-134.167 91 -219.5 91s-158.5 -30.333 -219.5 -91s-91.5 -133.667 -91.5 -219c0 -86 30.333 -159.333 91 -220s134 -91 220 -91c85.333 0 158.5 30.5 219.5 91.5s91.5 134.167 91.5 219.5zM560 206
c-44 -56.667 -99.0029 -84.667 -165.003 -84c-59.333 0 -107.333 18.5 -144 55.5s-55 84.833 -55 143.5c0 62 19.833 113.167 59.5 153.5s90.5 60.833 152.5 61.5c11.333 0 27.833 -2.5 49.5 -7.5s37.834 -7.5 48.501 -7.5c12.667 0 20.334 5 23.001 15h19l7 -132l-20 -1
c-8.66699 31.333 -23.667 56.666 -45 75.999c-23.333 20 -50.666 30 -81.999 30c-44 0 -79 -22 -105 -66c-22.667 -37.333 -34 -79.666 -34 -126.999c0 -46 10.333 -83.333 31 -112c24 -33.333 58 -50 102 -50c55.333 0 101 20.333 137 61z" />
    <glyph glyph-name="ordfeminine" unicode="&#xaa;" horiz-adv-x="343" 
d="M322 360c-44 -2 -65.667 -2.99902 -65 -2.99902c-15.333 0 -25.666 3.66699 -30.999 11c-3.33301 4.66699 -6.33301 15.667 -9 33c-32 -32 -67.333 -48 -106 -48c-26.667 0 -50 6.33301 -70 19c-22.667 15.333 -34 35.666 -34 60.999c0 44 24.333 73.667 73 89
c24.667 8 67 12.667 127 14v16c0 29.333 -21.667 44 -65 44c-36 0 -70.333 -5.66699 -103 -17v31c37.333 24.667 78.666 37 123.999 37c94.667 0 142 -29.333 142 -88v-106c0 -38.667 -0.333008 -52 -1 -40c1.33301 -18.667 7.33301 -27.667 18 -27v-26zM207 458.001
l-0.000976562 36c-21.333 -0.666992 -41.666 -4 -60.999 -10c-28 -8 -42 -19 -42 -33c0 -30 13.667 -45 41 -45c16.667 0 31.167 4.66699 43.5 14s18.5 22 18.5 38z" />
    <glyph glyph-name="guillemotleft" unicode="&#xab;" horiz-adv-x="459" 
d="M431 125l-82 -22l-130 175l130 175l82 -24l-71 -151zM238 125l-82 -22l-130 175l130 175l82 -24l-72 -151z" />
    <glyph glyph-name="minus" unicode="&#xad;" horiz-adv-x="500" 
d="M443 230v-49h-385v49h385z" />
    <glyph glyph-name="minus" unicode="&#x2212;" horiz-adv-x="500" 
d="M443 230v-49h-385v49h385z" />
    <glyph glyph-name="registered" unicode="&#xae;" horiz-adv-x="775" 
d="M733 328c0 -95.333 -33.833 -176.666 -101.5 -243.999s-149.167 -101 -244.5 -101s-176.666 33.667 -243.999 101s-101 148.666 -101 243.999s33.667 176.833 101 244.5s148.666 101.5 243.999 101.5s176.833 -33.833 244.5 -101.5s101.5 -149.167 101.5 -244.5zM698 328
c0 86 -30.333 159.333 -91 220s-134 91 -220 91s-159.167 -30.333 -219.5 -91s-90.5 -134 -90.5 -220s30.167 -159.333 90.5 -220s133.5 -91 219.5 -91s159.333 30.333 220 91s91 134 91 220zM586 136l-93 0.00195312l-138 187h-32v-140c0 -20 17.667 -30 53 -30v-17h-170
v16c18.667 0 31.667 3.5 39 10.5s11 19.5 11 37.5v271c0 21.333 -2.33301 34.833 -7 40.5s-17 8.5 -37 8.5v18h177c36 0 66.667 -8.66699 92 -26c29.333 -20 44 -47.333 44 -82c0 -26.667 -9.33301 -48.834 -28 -66.501s-42 -28.5 -70 -32.5l111 -149
c14 -18.667 30 -28.334 48 -29.001v-17zM459 428.002c0 50.667 -39 75.999 -117 75.999c-8.66699 0 -15 -0.333008 -19 -1l-1 -158c91.333 8.66699 137 36.334 137 83.001z" />
    <glyph glyph-name="macron" unicode="&#xaf;" horiz-adv-x="415" 
d="M360 583h-304v82h304v-82z" />
    <glyph glyph-name="macron" unicode="&#x2c9;" horiz-adv-x="415" 
d="M360 583h-304v82h304v-82z" />
    <glyph glyph-name="degree" unicode="&#xb0;" horiz-adv-x="321" 
d="M281 594c0 -33.333 -11.335 -61.999 -34.002 -85.999s-50.667 -36 -84 -36s-61.666 11.833 -84.999 35.5s-35 52.167 -35 85.5s11.833 61.666 35.5 84.999s51.834 35 84.501 35c32 0 59.667 -11.833 83 -35.5s35 -51.5 35 -83.5zM247.998 593.001
c0 23.333 -8.5 43.666 -25.5 60.999s-37.167 26 -60.5 26c-24 0 -44.333 -8.83301 -61 -26.5s-25 -38.5 -25 -62.5s8.5 -44.667 25.5 -62s37.5 -26 61.5 -26s44.167 8.83301 60.5 26.5s24.5 38.834 24.5 63.501z" />
    <glyph glyph-name="twosuperior" unicode="&#xb2;" horiz-adv-x="355" 
d="M19 289l-0.000976562 65c19.333 26.667 52 56.334 98 89.001l57 39c24.667 20 37 37 37 51c0 19.333 -18.667 29 -56 29c-33.333 0 -78.666 -11.333 -135.999 -34l-3 69c56 35.333 108.333 53 157 53c41.333 0 77 -7.33301 107 -22c40 -19.333 60 -48.333 60 -87
c0 -34.667 -18 -66.334 -54 -95.001l-98 -63l152 -1v-93h-321z" />
    <glyph glyph-name="threesuperior" unicode="&#xb3;" horiz-adv-x="355" 
d="M164 280c-43.333 0 -92.666 11.333 -147.999 34v72c58 -14 102.333 -21 133 -21c42 0 63 12 63 36c0 26 -29.333 39 -88 39c-14.667 0 -33.334 -1.66699 -56.001 -5v65c82 19.333 123 37.333 123 54c0 7.33301 -14.333 11 -43 11c-24 0 -64.667 -7.66699 -122 -23v62
c56.667 30 105 45 145 45c94 0 141 -31 141 -93c0 -25.333 -12.667 -47 -38 -65c43.333 -18.667 65 -48 65 -88c0 -42 -20 -74 -60 -96c-32 -18 -70.333 -27 -115 -27z" />
    <glyph glyph-name="acute" unicode="&#xb4;" horiz-adv-x="415" 
d="M355 690l-152 -112h-59l69 112h142z" />
    <glyph glyph-name="paragraph" unicode="&#xb6;" horiz-adv-x="470" 
d="M424 -82l-68.999 2.99902v707h-34v-707c-24 0 -48.667 -1 -74 -3v11c14 6.66699 21 26.334 21 59.001v640c-12.667 2.66699 -27 4 -43 4c-68.667 0 -103 -43.667 -103 -131c0 -43.333 10.333 -78.333 31 -105c12 -15.333 31 -30 57 -44
c20.667 -11.333 31 -20.666 31 -27.999c0 -12 -6.66699 -18 -20 -18c-9.33301 0 -26.333 4.33301 -51 13c-97.333 34 -146 96.667 -146 188c0 110.667 60.667 166 182 166c12.667 0 31.667 -0.5 57 -1.5s44 -1.5 56 -1.5s29.667 0.666992 53 2s40.666 2 51.999 2v-11
c-14 -8 -21 -27.667 -21 -59v-616c0 -32.667 7 -52.334 21 -59.001v-11z" />
    <glyph glyph-name="periodcentered" unicode="&#xb7;" horiz-adv-x="260" 
d="M217 289c0 -23.333 -8.33301 -43.333 -25 -60s-36.667 -25 -60 -25s-43.333 8.33301 -60 25s-25 36.667 -25 60s8.33301 43.333 25 60s36.667 25 60 25s43.333 -8.33301 60 -25s25 -36.667 25 -60z" />
    <glyph glyph-name="periodcentered" unicode="&#x2219;" horiz-adv-x="260" 
d="M217 289c0 -23.333 -8.33301 -43.333 -25 -60s-36.667 -25 -60 -25s-43.333 8.33301 -60 25s-25 36.667 -25 60s8.33301 43.333 25 60s36.667 25 60 25s43.333 -8.33301 60 -25s25 -36.667 25 -60z" />
    <glyph glyph-name="cedilla" unicode="&#xb8;" horiz-adv-x="470" 
d="M291 -94c0 -22.667 -8.16504 -40.833 -24.498 -54.5s-35.833 -20.5 -58.5 -20.5s-45 5 -67 15v32c3.33301 -0.666992 8.66602 -1 15.999 -1c41.333 0 62 12 62 36c0 16.667 -13.667 29.667 -41 39l47 48h50l-33 -33c33.333 -6.66699 49.666 -27 48.999 -61z" />
    <glyph glyph-name="onesuperior" unicode="&#xb9;" horiz-adv-x="355" 
d="M166 290v247.001l-101 -28v68c27.333 15.333 68.333 36.666 123 63.999h103v-351h-125z" />
    <glyph glyph-name="ordmasculine" unicode="&#xba;" horiz-adv-x="376" 
d="M366 502c0 -50.667 -17.665 -89 -52.998 -115c-30.667 -22.667 -72.334 -34 -125.001 -34s-94.334 11.333 -125.001 34c-34.667 26 -52 64.333 -52 115c0 96.667 59 145 177 145c50 0 91 -11.333 123 -34c36.667 -26 55 -63 55 -111zM264.002 501c0 58 -25.333 87 -76 87
c-50 0 -75 -29 -75 -87c0 -63.333 25 -95 75 -95c50.667 0 76 31.667 76 95z" />
    <glyph glyph-name="guillemotright" unicode="&#xbb;" horiz-adv-x="459" 
d="M433 278l-131 -175l-81 24l71 151l-71 152l81 23zM240 278l-132 -175l-81 24l72 151l-72 152l81 23z" />
    <glyph glyph-name="onequarter" unicode="&#xbc;" horiz-adv-x="793" 
d="M653 645l-461 -663l-85 15l461 662zM708 73l-1 -73h-124v73h-195l1 71l192 211h126l1 -198h49v-84h-49zM583 216l-54 -59h54v59zM138 290l1 247.001l-103 -28l1 68c27.333 15.333 68.333 36.666 123 63.999h103v-351h-125z" />
    <glyph glyph-name="onehalf" unicode="&#xbd;" horiz-adv-x="793" 
d="M647 645l-461 -663l-85 15l461 662zM442 0l-0.000976562 65c18.667 26.667 51.334 56.334 98.001 89.001l56 39c25.333 20 38 37 38 51c0 19.333 -18.667 29 -56 29c-33.333 0 -79 -11.333 -137 -34l-3 69c56 35.333 108.333 53 157 53c42 0 78 -7.33301 108 -22
c39.333 -19.333 59 -48.333 59 -87c0 -34.667 -17.667 -66.334 -53 -95.001l-99 -63l152 -1v-93h-320zM132.999 290l-0.000976562 247.001l-102 -28l1 68c26.667 15.333 67.334 36.666 122.001 63.999h103v-351h-124z" />
    <glyph glyph-name="threequarters" unicode="&#xbe;" horiz-adv-x="793" 
d="M672 645l-461 -663l-85 15l461 662zM165 280c-43.333 0 -92.667 11.333 -148 34v72c58 -14 102 -21 132 -21c42 0 63 12 63 36c0 26 -29 39 -87 39c-15.333 0 -34 -1.66699 -56 -5v65c81.333 19.333 122 37.333 122 54c0 7.33301 -14 11 -42 11
c-24 0 -64.667 -7.66699 -122 -23v62c56.667 30 105 45 145 45c94 0 141 -31 141 -93c0 -25.333 -12.667 -47 -38 -65c42.667 -18.667 64 -48 64 -88c0 -42 -19.667 -74 -59 -96c-32.667 -18 -71 -27 -115 -27zM726.999 73l-1 -73h-124v73h-194v71l192 211h126l1 -198h49
v-84h-49zM601.999 216l-53 -59h53v59z" />
    <glyph glyph-name="questiondown" unicode="&#xbf;" horiz-adv-x="495" 
d="M373 433c0 -23.333 -8.33301 -43.333 -25 -60s-36.667 -25 -60 -25s-43.333 8.33301 -60 25s-25 36.667 -25 60s8.33301 43.333 25 60s36.667 25 60 25s43.333 -8.33301 60 -25s25 -36.667 25 -60zM452 -91c-54.667 -42 -115.333 -63 -182 -63
c-58 0 -108.333 12.333 -151 37c-50.667 29.333 -76 71 -76 125c0 39.333 15 74.333 45 105c10 10 38.333 31.667 85 65c31.333 23.333 48.333 44 51 62c1.33301 7.33301 1 27 -1 59l135 -1c0.666992 -4 1 -10 1 -18c0 -40.667 -14.333 -75.334 -43 -104.001l-78 -61
c-28.667 -23.333 -43 -48.666 -43 -75.999c0 -30 11.667 -53.667 35 -71c21.333 -15.333 48 -23 80 -23c36.667 -0.666992 84 9.33301 142 30v-66z" />
    <glyph glyph-name="Agrave" unicode="&#xc0;" horiz-adv-x="712" 
d="M415 723h-59l-151 112h140zM704 0h-200l-60 158h-239l-63 -158h-130l247 643h197zM398 277l-71 187l-75 -187h146z" />
    <glyph glyph-name="Aacute" unicode="&#xc1;" horiz-adv-x="712" 
d="M499 835l-152 -112h-59l69 112h142zM704 0h-200l-60 158h-239l-63 -158h-130l247 643h197zM398 277l-71 187l-75 -187h146z" />
    <glyph glyph-name="Acircumflex" unicode="&#xc2;" horiz-adv-x="712" 
d="M487 723h-52l-83 60l-85 -60h-51l67 112h140zM704 0h-200l-60 158h-239l-63 -158h-130l247 643h197zM398 277l-71 187l-75 -187h146z" />
    <glyph glyph-name="Atilde" unicode="&#xc3;" horiz-adv-x="712" 
d="M485 729c-20.667 -16.667 -47.3301 -25 -79.9971 -25c-14.667 0 -35.834 5.33301 -63.501 16s-48.834 16 -63.501 16c-28 0 -50.667 -10.333 -68 -31v94c18 18 43.667 27 77 27c15.333 0 37.166 -5.66699 65.499 -17s49.5 -17 63.5 -17c25.333 0 48.333 10.333 69 31v-94
zM704.004 0h-200l-60 158h-239l-63 -158h-130l247 643h197zM398.004 277l-71 187l-75 -187h146z" />
    <glyph glyph-name="Adieresis" unicode="&#xc4;" horiz-adv-x="712" 
d="M507 773c0 -16.667 -6 -30.5 -18 -41.5s-26.333 -16.5 -43 -16.5c-17.333 0 -32.333 6 -45 18s-19 26.667 -19 44c0 16 6 29.5 18 40.5s26.333 16.5 43 16.5c17.333 0 32.333 -6 45 -18s19 -26.333 19 -43zM320 771c0 -16 -5.83105 -29.5 -17.498 -40.5
s-25.834 -16.5 -42.501 -16.5c-17.333 0 -32 6 -44 18s-18 26.333 -18 43s5.83301 30.5 17.5 41.5s25.5 16.5 41.5 16.5c17.333 0 32.166 -6 44.499 -18s18.5 -26.667 18.5 -44zM704.002 0h-200l-60 158h-239l-63 -158h-130l247 643h197zM398.002 277l-71 187l-75 -187h146z
" />
    <glyph glyph-name="Aring" unicode="&#xc5;" horiz-adv-x="712" 
d="M436 775c0 -22.667 -8.33301 -41.8301 -25 -57.4971s-36.334 -23.5 -59.001 -23.5c-23.333 0 -43.5 7.66699 -60.5 23s-25.5 34.666 -25.5 57.999s8.5 42.666 25.5 57.999s37.167 23 60.5 23c22.667 0 42.334 -7.83301 59.001 -23.5s25 -34.834 25 -57.501z
M704 0.00390625h-200l-60 158h-239l-63 -158h-130l247 643h197zM389 775.004c0 24 -12.334 36 -37.001 36c-10 0 -19 -3.5 -27 -10.5s-12 -15.5 -12 -25.5c0 -10.667 3.83301 -19.5 11.5 -26.5s16.834 -10.5 27.501 -10.5c24.667 0 37 12.333 37 37zM397.999 277.004
l-71 187l-75 -187h146z" />
    <glyph glyph-name="AE" unicode="&#xc6;" horiz-adv-x="941" 
d="M919 0h-497v158h-204l-97 -158h-130l383 640h534v-120h-298v-137h271v-113h-271v-148h309v-122zM422 277v215l-132 -215h132z" />
    <glyph glyph-name="Ccedilla" unicode="&#xc7;" horiz-adv-x="627" 
d="M303 -12c-82.667 13.333 -150.165 50.501 -202.498 111.501s-78.5 134.5 -78.5 220.5c0 100 33.333 181.333 100 244c64.667 61.333 147.667 92 249 92c83.333 0 159 -20.667 227 -62v-109c-88 32.667 -159.333 47 -214 43c-115.333 -8 -173 -77.333 -173 -208
c0 -140.667 65.333 -211 196 -211c48.667 0 113 13.333 193 40v-115c-80.667 -33.333 -160 -50 -238 -50h-13l-17 -17c33.333 -6.66699 49.666 -27 48.999 -61c0 -22.667 -8.16699 -40.834 -24.5 -54.501s-35.833 -20.5 -58.5 -20.5s-45 5 -67 15v32
c3.33301 -0.666992 8.66602 -1 15.999 -1c41.333 0 62 12 62 36c0 16.667 -13.667 29.667 -41 39z" />
    <glyph glyph-name="Egrave" unicode="&#xc8;" horiz-adv-x="588" 
d="M350 723h-59l-151 112h140zM567 0h-497v640h486v-120h-298v-137h271v-113h-271v-148h309v-122z" />
    <glyph glyph-name="Eacute" unicode="&#xc9;" horiz-adv-x="588" 
d="M434 835l-152 -112h-59l69 112h142zM567 0h-497v640h486v-120h-298v-137h271v-113h-271v-148h309v-122z" />
    <glyph glyph-name="Ecircumflex" unicode="&#xca;" horiz-adv-x="588" 
d="M452 723h-52l-83 60l-85 -60h-51l67 112h140zM567 0h-497v640h486v-120h-298v-137h271v-113h-271v-148h309v-122z" />
    <glyph glyph-name="Edieresis" unicode="&#xcb;" horiz-adv-x="588" 
d="M472 773c0 -16.667 -6 -30.5 -18 -41.5s-26.333 -16.5 -43 -16.5c-17.333 0 -32.333 6 -45 18s-19 26.667 -19 44c0 16 6 29.5 18 40.5s26.333 16.5 43 16.5c17.333 0 32.333 -6 45 -18s19 -26.333 19 -43zM285 771c0 -16 -5.83105 -29.5 -17.498 -40.5
s-25.834 -16.5 -42.501 -16.5c-17.333 0 -32 6 -44 18s-18 26.333 -18 43s5.83301 30.5 17.5 41.5s25.5 16.5 41.5 16.5c17.333 0 32.166 -6 44.499 -18s18.5 -26.667 18.5 -44zM567.002 0h-497v640h486v-120h-298v-137h271v-113h-271v-148h309v-122z" />
    <glyph glyph-name="Igrave" unicode="&#xcc;" horiz-adv-x="326" 
d="M244 723h-59l-151 112h140zM258 0h-188v640h188v-640z" />
    <glyph glyph-name="Iacute" unicode="&#xcd;" horiz-adv-x="326" 
d="M298 835l-152 -112h-59l69 112h142zM258 0h-188v640h188v-640z" />
    <glyph glyph-name="Icircumflex" unicode="&#xce;" horiz-adv-x="326" 
d="M296 723h-52l-83 60l-85 -60h-51l67 112h140zM258 0h-188v640h188v-640z" />
    <glyph glyph-name="Idieresis" unicode="&#xcf;" horiz-adv-x="326" 
d="M316 773c0 -16.667 -6 -30.5 -18 -41.5s-26.333 -16.5 -43 -16.5c-17.333 0 -32.333 6 -45 18s-19 26.667 -19 44c0 16 6 29.5 18 40.5s26.333 16.5 43 16.5c17.333 0 32.333 -6 45 -18s19 -26.333 19 -43zM129 771c0 -16 -5.83105 -29.5 -17.498 -40.5
s-25.834 -16.5 -42.501 -16.5c-17.333 0 -32 6 -44 18s-18 26.333 -18 43s5.83301 30.5 17.5 41.5s25.5 16.5 41.5 16.5c17.333 0 32.166 -6 44.499 -18s18.5 -26.667 18.5 -44zM258.002 0h-188v640h188v-640z" />
    <glyph glyph-name="Eth" unicode="&#xd0;" horiz-adv-x="726" 
d="M710 343c0 -100.667 -30.833 -183 -92.5 -247s-142.834 -96 -243.501 -96h-304v640h331c92.667 0 167.334 -26.5 224.001 -79.5s85 -125.5 85 -217.5zM522 333c0 52.667 -14.001 96.334 -42.001 131.001c-30.667 37.333 -71.667 56 -123 56
c-12.667 0 -29 -0.666992 -49 -2c-26 -1.33301 -42.667 -2 -50 -2l-1 -390c24 -1.33301 60 -3 108 -5c56.667 -0.666992 98.334 21.666 125.001 66.999c21.333 36 32 84.333 32 145z" />
    <glyph glyph-name="Ntilde" unicode="&#xd1;" horiz-adv-x="737" 
d="M508 729c-20.667 -16.667 -47.3301 -25 -79.9971 -25c-14.667 0 -35.834 5.33301 -63.501 16s-48.834 16 -63.501 16c-28 0 -50.667 -10.333 -68 -31v94c18 18 43.667 27 77 27c15.333 0 37.166 -5.66699 65.499 -17s49.5 -17 63.5 -17c25.333 0 48.333 10.333 69 31v-94
zM669.004 -3h-177l-276 414v-411h-147v640h197l255 -398v398h148v-643z" />
    <glyph glyph-name="Ograve" unicode="&#xd2;" horiz-adv-x="733" 
d="M426 723h-59l-151 112h140zM712 319c0 -102.667 -31.6689 -184.167 -95.002 -244.5s-146.666 -90.5 -249.999 -90.5c-96.667 0 -178.334 31.833 -245.001 95.5s-100 143.5 -100 239.5c0 102.667 31.833 184.5 95.5 245.5s146.834 91.5 249.501 91.5
s185.834 -30.667 249.501 -92s95.5 -143 95.5 -245zM522.998 319c0 58 -11.334 105.333 -34.001 142c-27.333 44.667 -68 67 -122 67c-54.667 0 -95.667 -22.333 -123 -67c-22 -36 -33 -83.333 -33 -142s11 -106 33 -142c26.667 -43.333 67.667 -65 123 -65
c54.667 0 95.334 22 122.001 66c22.667 36 34 83 34 141z" />
    <glyph glyph-name="Oacute" unicode="&#xd3;" horiz-adv-x="733" 
d="M510 835l-152 -112h-59l69 112h142zM712 319c0 -102.667 -31.6689 -184.167 -95.002 -244.5s-146.666 -90.5 -249.999 -90.5c-96.667 0 -178.334 31.833 -245.001 95.5s-100 143.5 -100 239.5c0 102.667 31.833 184.5 95.5 245.5s146.834 91.5 249.501 91.5
s185.834 -30.667 249.501 -92s95.5 -143 95.5 -245zM522.998 319c0 58 -11.334 105.333 -34.001 142c-27.333 44.667 -68 67 -122 67c-54.667 0 -95.667 -22.333 -123 -67c-22 -36 -33 -83.333 -33 -142s11 -106 33 -142c26.667 -43.333 67.667 -65 123 -65
c54.667 0 95.334 22 122.001 66c22.667 36 34 83 34 141z" />
    <glyph glyph-name="Ocircumflex" unicode="&#xd4;" horiz-adv-x="733" 
d="M498 723h-52l-83 60l-85 -60h-51l67 112h140zM712 319c0 -102.667 -31.6689 -184.167 -95.002 -244.5s-146.666 -90.5 -249.999 -90.5c-96.667 0 -178.334 31.833 -245.001 95.5s-100 143.5 -100 239.5c0 102.667 31.833 184.5 95.5 245.5s146.834 91.5 249.501 91.5
s185.834 -30.667 249.501 -92s95.5 -143 95.5 -245zM522.998 319c0 58 -11.334 105.333 -34.001 142c-27.333 44.667 -68 67 -122 67c-54.667 0 -95.667 -22.333 -123 -67c-22 -36 -33 -83.333 -33 -142s11 -106 33 -142c26.667 -43.333 67.667 -65 123 -65
c54.667 0 95.334 22 122.001 66c22.667 36 34 83 34 141z" />
    <glyph glyph-name="Otilde" unicode="&#xd5;" horiz-adv-x="733" 
d="M506 729c-20.667 -16.667 -47.3301 -25 -79.9971 -25c-14.667 0 -35.834 5.33301 -63.501 16s-48.834 16 -63.501 16c-28 0 -50.667 -10.333 -68 -31v94c18 18 43.667 27 77 27c15.333 0 37.166 -5.66699 65.499 -17s49.5 -17 63.5 -17c25.333 0 48.333 10.333 69 31v-94
zM712.004 319c0 -102.667 -31.6689 -184.167 -95.002 -244.5s-146.666 -90.5 -249.999 -90.5c-96.667 0 -178.334 31.833 -245.001 95.5s-100 143.5 -100 239.5c0 102.667 31.833 184.5 95.5 245.5s146.834 91.5 249.501 91.5s185.834 -30.667 249.501 -92
s95.5 -143 95.5 -245zM523.002 319c0 58 -11.334 105.333 -34.001 142c-27.333 44.667 -68 67 -122 67c-54.667 0 -95.667 -22.333 -123 -67c-22 -36 -33 -83.333 -33 -142s11 -106 33 -142c26.667 -43.333 67.667 -65 123 -65c54.667 0 95.334 22 122.001 66
c22.667 36 34 83 34 141z" />
    <glyph glyph-name="Odieresis" unicode="&#xd6;" horiz-adv-x="733" 
d="M518 773c0 -16.667 -6 -30.5 -18 -41.5s-26.333 -16.5 -43 -16.5c-17.333 0 -32.333 6 -45 18s-19 26.667 -19 44c0 16 6 29.5 18 40.5s26.333 16.5 43 16.5c17.333 0 32.333 -6 45 -18s19 -26.333 19 -43zM331 771c0 -16 -5.83105 -29.5 -17.498 -40.5
s-25.834 -16.5 -42.501 -16.5c-17.333 0 -32 6 -44 18s-18 26.333 -18 43s5.83301 30.5 17.5 41.5s25.5 16.5 41.5 16.5c17.333 0 32.166 -6 44.499 -18s18.5 -26.667 18.5 -44zM712.002 319c0 -102.667 -31.6689 -184.167 -95.002 -244.5s-146.666 -90.5 -249.999 -90.5
c-96.667 0 -178.334 31.833 -245.001 95.5s-100 143.5 -100 239.5c0 102.667 31.833 184.5 95.5 245.5s146.834 91.5 249.501 91.5s185.834 -30.667 249.501 -92s95.5 -143 95.5 -245zM523 319c0 58 -11.334 105.333 -34.001 142c-27.333 44.667 -68 67 -122 67
c-54.667 0 -95.667 -22.333 -123 -67c-22 -36 -33 -83.333 -33 -142s11 -106 33 -142c26.667 -43.333 67.667 -65 123 -65c54.667 0 95.334 22 122.001 66c22.667 36 34 83 34 141z" />
    <glyph glyph-name="multiply" unicode="&#xd7;" horiz-adv-x="500" 
d="M436 349l-148 -150l148 -149l-37 -39l-149 150l-148 -150l-37 39l147 149l-147 147l37 39l148 -148l149 150z" />
    <glyph glyph-name="Oslash" unicode="&#xd8;" horiz-adv-x="733" 
d="M712 319c0 -102.667 -31.6689 -184.166 -95.002 -244.499s-146.666 -90.5 -249.999 -90.5c-66.667 0 -126 15 -178 45l-56 -81l-36 29l54 77c-86 67.333 -129 155.666 -129 264.999c0 102.667 31.833 184.5 95.5 245.5s146.834 91.5 249.501 91.5
c64.667 0 122 -12.667 172 -38l50 72l37 -29l-46 -68c88 -60.667 132 -152 132 -274zM456.998 499.001c-23.333 19.333 -53.333 29 -90 29c-54.667 0 -95.667 -22.333 -123 -67c-22 -36 -33 -83.333 -33 -142c0 -54 9.66699 -99 29 -135zM522.998 319.001
c0 57.333 -11.667 105 -35 143l-217 -316c24.667 -22.667 56.667 -34 96 -34c54.667 0 95.667 22 123 66c22 36 33 83 33 141z" />
    <glyph glyph-name="Ugrave" unicode="&#xd9;" horiz-adv-x="705" 
d="M411 723h-59l-151 112h140zM644 241c0 -171.333 -95 -257 -285 -257c-91.333 0 -163 19.667 -215 59c-55.333 42 -83 108 -83 198v399h185v-404c0 -88.667 40.333 -133 121 -133c76 0 114 48.333 114 145v392h163v-399z" />
    <glyph glyph-name="Uacute" unicode="&#xda;" horiz-adv-x="705" 
d="M515 835l-152 -112h-59l69 112h142zM644 241c0 -171.333 -95 -257 -285 -257c-91.333 0 -163 19.667 -215 59c-55.333 42 -83 108 -83 198v399h185v-404c0 -88.667 40.333 -133 121 -133c76 0 114 48.333 114 145v392h163v-399z" />
    <glyph glyph-name="Ucircumflex" unicode="&#xdb;" horiz-adv-x="705" 
d="M503 723h-52l-83 60l-85 -60h-51l67 112h140zM644 241c0 -171.333 -95 -257 -285 -257c-91.333 0 -163 19.667 -215 59c-55.333 42 -83 108 -83 198v399h185v-404c0 -88.667 40.333 -133 121 -133c76 0 114 48.333 114 145v392h163v-399z" />
    <glyph glyph-name="Udieresis" unicode="&#xdc;" horiz-adv-x="705" 
d="M513 773c0 -16.667 -6 -30.5 -18 -41.5s-26.333 -16.5 -43 -16.5c-17.333 0 -32.333 6 -45 18s-19 26.667 -19 44c0 16 6 29.5 18 40.5s26.333 16.5 43 16.5c17.333 0 32.333 -6 45 -18s19 -26.333 19 -43zM326 771c0 -16 -5.83105 -29.5 -17.498 -40.5
s-25.834 -16.5 -42.501 -16.5c-17.333 0 -32 6 -44 18s-18 26.333 -18 43s5.83301 30.5 17.5 41.5s25.5 16.5 41.5 16.5c17.333 0 32.166 -6 44.499 -18s18.5 -26.667 18.5 -44zM644.002 241c0 -171.333 -95 -257 -285 -257c-91.333 0 -163 19.667 -215 59
c-55.333 42 -83 108 -83 198v399h185v-404c0 -88.667 40.333 -133 121 -133c76 0 114 48.333 114 145v392h163v-399z" />
    <glyph glyph-name="Yacute" unicode="&#xdd;" 
d="M638 640l-221 -376v-264h-188v263l-220 377h200l138 -261l146 261h145z" />
    <glyph glyph-name="Thorn" unicode="&#xde;" horiz-adv-x="623" 
d="M616 459c0 -75.333 -29.667 -134.001 -89 -176.001c-52.667 -37.333 -118 -56 -196 -56h-73v-227h-188v640h317c66.667 0 119.667 -13 159 -39c46.667 -31.333 70 -78.666 70 -141.999zM434 440.999c0 52.667 -32.667 79.001 -98 79.001
c-17.333 0 -43.333 -1.33301 -78 -4v-171c14 -2 35 -4 63 -6c30.667 -0.666992 57.167 8.66602 79.5 27.999s33.5 44 33.5 74z" />
    <glyph glyph-name="germandbls" unicode="&#xdf;" horiz-adv-x="666" 
d="M656 152c0 -50.667 -21.334 -90.6709 -64.001 -120.004c-38 -26.667 -83.333 -40 -136 -40c-52 0 -95.333 6.33301 -130 19v92c43.333 -4 78.333 -5.66699 105 -5c34.667 0.666992 52 17.334 52 50.001c0 24.667 -15.667 46.334 -47 65.001l-88 45
c-31.333 19.333 -47 43 -47 71c0 19.333 16.5 43.666 49.5 72.999s49.5 53.333 49.5 72c0 61.333 -21.667 92 -65 92c-28 0 -49.333 -11.333 -64 -34c-13.333 -19.333 -20 -43.666 -20 -72.999v-459l-190 1l1 468c0 70.667 27.667 125.334 83 164.001
c48.667 32.667 110 49 184 49c164.667 0 247 -48.333 247 -145c0 -37.333 -13.333 -68 -40 -92c-15.333 -12.667 -40.666 -26.667 -75.999 -42c-26.667 -12 -40 -22 -40 -30c0 -6 18 -17 54 -33l65 -28c26.667 -13.333 47 -26.666 61 -39.999
c37.333 -34.667 56 -74.667 56 -120z" />
    <glyph glyph-name="agrave" unicode="&#xe0;" horiz-adv-x="567" 
d="M340 578h-59l-151 112h140zM533 0c-11.333 0 -32.999 -0.999023 -64.999 -2.99902c-27.333 -1.33301 -49 -2 -65 -2c-21.333 0 -36.666 7.66699 -45.999 23c-6.66699 10 -12.334 27.333 -17.001 52c-14.667 -26.667 -36.334 -47.167 -65.001 -61.5
s-58.667 -21.5 -90 -21.5c-46 0 -84.667 12 -116 36c-34.667 26 -52 61.333 -52 106c0 75.333 35.667 127 107 155c42 16 109.667 25.333 203 28v27c0 46 -39.333 68.667 -118 68c-62.667 -0.666992 -115.667 -8.66699 -159 -24v78c65.333 40.667 140.333 61 225 61
c60 0 111.333 -11.667 154 -35c52 -28.667 78 -70.667 78 -126v-192c0 -38.667 0.666992 -61.334 2 -68.001c2 -12 7.66699 -18 17 -18h7v-83zM331.001 211.001c-0.666992 4.66699 -1 12.333 -1 23c-92.667 0 -139 -24.667 -139 -74c0 -44 19 -66 57 -66
c55.333 0 83 39 83 117z" />
    <glyph glyph-name="aacute" unicode="&#xe1;" horiz-adv-x="567" 
d="M424 690l-152 -112h-59l69 112h142zM533 0c-11.333 0 -32.999 -0.999023 -64.999 -2.99902c-27.333 -1.33301 -49 -2 -65 -2c-21.333 0 -36.666 7.66699 -45.999 23c-6.66699 10 -12.334 27.333 -17.001 52c-14.667 -26.667 -36.334 -47.167 -65.001 -61.5
s-58.667 -21.5 -90 -21.5c-46 0 -84.667 12 -116 36c-34.667 26 -52 61.333 -52 106c0 75.333 35.667 127 107 155c42 16 109.667 25.333 203 28v27c0 46 -39.333 68.667 -118 68c-62.667 -0.666992 -115.667 -8.66699 -159 -24v78c65.333 40.667 140.333 61 225 61
c60 0 111.333 -11.667 154 -35c52 -28.667 78 -70.667 78 -126v-192c0 -38.667 0.666992 -61.334 2 -68.001c2 -12 7.66699 -18 17 -18h7v-83zM331.001 211.001c-0.666992 4.66699 -1 12.333 -1 23c-92.667 0 -139 -24.667 -139 -74c0 -44 19 -66 57 -66
c55.333 0 83 39 83 117z" />
    <glyph glyph-name="acircumflex" unicode="&#xe2;" horiz-adv-x="567" 
d="M412 578h-52l-83 60l-85 -60h-51l67 112h140zM533 0c-11.333 0 -32.999 -0.999023 -64.999 -2.99902c-27.333 -1.33301 -49 -2 -65 -2c-21.333 0 -36.666 7.66699 -45.999 23c-6.66699 10 -12.334 27.333 -17.001 52c-14.667 -26.667 -36.334 -47.167 -65.001 -61.5
s-58.667 -21.5 -90 -21.5c-46 0 -84.667 12 -116 36c-34.667 26 -52 61.333 -52 106c0 75.333 35.667 127 107 155c42 16 109.667 25.333 203 28v27c0 46 -39.333 68.667 -118 68c-62.667 -0.666992 -115.667 -8.66699 -159 -24v78c65.333 40.667 140.333 61 225 61
c60 0 111.333 -11.667 154 -35c52 -28.667 78 -70.667 78 -126v-192c0 -38.667 0.666992 -61.334 2 -68.001c2 -12 7.66699 -18 17 -18h7v-83zM331.001 211.001c-0.666992 4.66699 -1 12.333 -1 23c-92.667 0 -139 -24.667 -139 -74c0 -44 19 -66 57 -66
c55.333 0 83 39 83 117z" />
    <glyph glyph-name="atilde" unicode="&#xe3;" horiz-adv-x="567" 
d="M430 604c-20.667 -16.667 -47.3301 -25 -79.9971 -25c-14.667 0 -35.834 5.33301 -63.501 16s-48.834 16 -63.501 16c-28 0 -50.667 -10.333 -68 -31v94c18 18 43.667 27 77 27c15.333 0 37.166 -5.66699 65.499 -17s49.5 -17 63.5 -17c25.333 0 48.333 10.333 69 31v-94
zM533.004 0c-11.333 0 -32.999 -0.999023 -64.999 -2.99902c-27.333 -1.33301 -49 -2 -65 -2c-21.333 0 -36.666 7.66699 -45.999 23c-6.66699 10 -12.334 27.333 -17.001 52c-14.667 -26.667 -36.334 -47.167 -65.001 -61.5s-58.667 -21.5 -90 -21.5
c-46 0 -84.667 12 -116 36c-34.667 26 -52 61.333 -52 106c0 75.333 35.667 127 107 155c42 16 109.667 25.333 203 28v27c0 46 -39.333 68.667 -118 68c-62.667 -0.666992 -115.667 -8.66699 -159 -24v78c65.333 40.667 140.333 61 225 61c60 0 111.333 -11.667 154 -35
c52 -28.667 78 -70.667 78 -126v-192c0 -38.667 0.666992 -61.334 2 -68.001c2 -12 7.66699 -18 17 -18h7v-83zM331.005 211.001c-0.666992 4.66699 -1 12.333 -1 23c-92.667 0 -139 -24.667 -139 -74c0 -44 19 -66 57 -66c55.333 0 83 39 83 117z" />
    <glyph glyph-name="adieresis" unicode="&#xe4;" horiz-adv-x="567" 
d="M432 628c0 -16.667 -6 -30.5 -18 -41.5s-26.333 -16.5 -43 -16.5c-17.333 0 -32.333 6 -45 18s-19 26.667 -19 44c0 16 6 29.5 18 40.5s26.333 16.5 43 16.5c17.333 0 32.333 -6 45 -18s19 -26.333 19 -43zM245 626c0 -16 -5.83105 -29.5 -17.498 -40.5
s-25.834 -16.5 -42.501 -16.5c-17.333 0 -32 6 -44 18s-18 26.333 -18 43s5.83301 30.5 17.5 41.5s25.5 16.5 41.5 16.5c17.333 0 32.166 -6 44.499 -18s18.5 -26.667 18.5 -44zM533.002 0c-11.333 0 -32.999 -0.999023 -64.999 -2.99902c-27.333 -1.33301 -49 -2 -65 -2
c-21.333 0 -36.666 7.66699 -45.999 23c-6.66699 10 -12.334 27.333 -17.001 52c-14.667 -26.667 -36.334 -47.167 -65.001 -61.5s-58.667 -21.5 -90 -21.5c-46 0 -84.667 12 -116 36c-34.667 26 -52 61.333 -52 106c0 75.333 35.667 127 107 155
c42 16 109.667 25.333 203 28v27c0 46 -39.333 68.667 -118 68c-62.667 -0.666992 -115.667 -8.66699 -159 -24v78c65.333 40.667 140.333 61 225 61c60 0 111.333 -11.667 154 -35c52 -28.667 78 -70.667 78 -126v-192c0 -38.667 0.666992 -61.334 2 -68.001
c2 -12 7.66699 -18 17 -18h7v-83zM331.003 211.001c-0.666992 4.66699 -1 12.333 -1 23c-92.667 0 -139 -24.667 -139 -74c0 -44 19 -66 57 -66c55.333 0 83 39 83 117z" />
    <glyph glyph-name="aring" unicode="&#xe5;" horiz-adv-x="567" 
d="M361 638c0 -22.667 -8.33301 -41.8301 -25 -57.4971s-36.334 -23.5 -59.001 -23.5c-23.333 0 -43.5 7.66699 -60.5 23s-25.5 34.666 -25.5 57.999s8.5 42.666 25.5 57.999s37.167 23 60.5 23c22.667 0 42.334 -7.83301 59.001 -23.5s25 -34.834 25 -57.501zM314 639.004
c0 24 -12.334 36 -37.001 36c-10 0 -19 -3.5 -27 -10.5s-12 -15.5 -12 -25.5c0 -10.667 3.83301 -19.5 11.5 -26.5s16.834 -10.5 27.501 -10.5c24.667 0 37 12.333 37 37zM532.999 0.00390625c-11.333 0 -32.999 -0.999023 -64.999 -2.99902c-27.333 -1.33301 -49 -2 -65 -2
c-21.333 0 -36.666 7.66699 -45.999 23c-6.66699 10 -12.334 27.333 -17.001 52c-14.667 -26.667 -36.334 -47.167 -65.001 -61.5s-58.667 -21.5 -90 -21.5c-46 0 -84.667 12 -116 36c-34.667 26 -52 61.333 -52 106c0 75.333 35.667 127 107 155
c42 16 109.667 25.333 203 28v27c0 46 -39.333 68.667 -118 68c-62.667 -0.666992 -115.667 -8.66699 -159 -24v78c65.333 40.667 140.333 61 225 61c60 0 111.333 -11.667 154 -35c52 -28.667 78 -70.667 78 -126v-192c0 -38.667 0.666992 -61.334 2 -68.001
c2 -12 7.66699 -18 17 -18h7v-83zM331 211.005c-0.666992 4.66699 -1 12.333 -1 23c-92.667 0 -139 -24.667 -139 -74c0 -44 19 -66 57 -66c55.333 0 83 39 83 117z" />
    <glyph glyph-name="ae" unicode="&#xe6;" horiz-adv-x="870" 
d="M850 257c0 -10 -1.33105 -25.6689 -3.99805 -47.002h-338c4.66699 -37.333 22.667 -65.666 54 -84.999c27.333 -17.333 60.666 -26 99.999 -26c53.333 0 110.666 8.33301 171.999 25v-106c-54.667 -20.667 -125 -31 -211 -31c-92 0 -165.667 27.333 -221 82
c-70.667 -54.667 -143 -82 -217 -82c-45.333 0 -84 12 -116 36c-34.667 26.667 -52 62 -52 106c0 75.333 35.667 127 107 155c42 16 109.667 25.333 203 28v27c0 46 -39.333 69 -118 69c-60.667 0 -113.667 -8.33301 -159 -25v78c65.333 40.667 140.333 61 225 61
c65.333 0 120 -13.667 164 -41c44.667 27.333 101.667 41 171 41c78 0 138 -25 180 -75c40 -47.333 60 -110.666 60 -189.999zM699.002 311.998c-1.33301 28.667 -9.83301 52.167 -25.5 70.5s-37.5 27.5 -65.5 27.5c-26 0 -48 -9.66699 -66 -29s-28.667 -42.333 -32 -69h189
zM358.002 131.998c-15.333 28.667 -24.666 62.667 -27.999 102c-92.667 -4 -139 -28.667 -139 -74c0 -44 19.333 -66 58 -66c29.333 0 65.666 12.667 108.999 38z" />
    <glyph glyph-name="ccedilla" unicode="&#xe7;" horiz-adv-x="535" 
d="M274 -11c-71.333 7.33301 -130.996 36.1689 -178.996 86.502s-72 111.5 -72 183.5c0 81.333 28.333 146.333 85 195c53.333 45.333 121 68 203 68c61.333 0 119 -17.333 173 -52v-97c-42.667 15.333 -91.334 23 -146.001 23c-82 0 -123 -47 -123 -141
c0 -44.667 11.833 -79.334 35.5 -104.001s57.834 -37 102.501 -37c33.333 0 82.666 3.33301 147.999 10v-110c-66.667 -18 -126.334 -27 -179.001 -27l-20 -20c33.333 -6.66699 49.666 -27 48.999 -61c0 -22.667 -8.16699 -40.834 -24.5 -54.501s-35.833 -20.5 -58.5 -20.5
s-45 5 -67 15v32c3.33301 -0.666992 8.66602 -1 15.999 -1c41.333 0 62 12 62 36c0 16.667 -13.667 29.667 -41 39z" />
    <glyph glyph-name="egrave" unicode="&#xe8;" horiz-adv-x="579" 
d="M346 578h-59l-151 112h140zM541 257c0 -10 -1.33105 -25.6689 -3.99805 -47.002h-338c4.66699 -37.333 22.667 -65.666 54 -84.999c27.333 -17.333 60.666 -26 99.999 -26c53.333 0 110.666 8.33301 171.999 25v-106c-65.333 -20.667 -136 -31 -212 -31
c-84 0 -153 23.667 -207 71c-57.333 49.333 -86 115.333 -86 198c0 86.667 25.333 153 76 199c48.667 44.667 117 67 205 67c78 0 138 -25 180 -75c40 -47.333 60 -110.666 60 -189.999zM390.002 311.998c-1.33301 28.667 -9.83301 52.167 -25.5 70.5s-37.5 27.5 -65.5 27.5
c-26 0 -48 -9.66699 -66 -29s-28.667 -42.333 -32 -69h189z" />
    <glyph glyph-name="eacute" unicode="&#xe9;" horiz-adv-x="579" 
d="M430 690l-152 -112h-59l69 112h142zM541 257c0 -10 -1.33105 -25.6689 -3.99805 -47.002h-338c4.66699 -37.333 22.667 -65.666 54 -84.999c27.333 -17.333 60.666 -26 99.999 -26c53.333 0 110.666 8.33301 171.999 25v-106c-65.333 -20.667 -136 -31 -212 -31
c-84 0 -153 23.667 -207 71c-57.333 49.333 -86 115.333 -86 198c0 86.667 25.333 153 76 199c48.667 44.667 117 67 205 67c78 0 138 -25 180 -75c40 -47.333 60 -110.666 60 -189.999zM390.002 311.998c-1.33301 28.667 -9.83301 52.167 -25.5 70.5s-37.5 27.5 -65.5 27.5
c-26 0 -48 -9.66699 -66 -29s-28.667 -42.333 -32 -69h189z" />
    <glyph glyph-name="ecircumflex" unicode="&#xea;" horiz-adv-x="579" 
d="M418 578h-52l-83 60l-85 -60h-51l67 112h140zM541 257c0 -10 -1.33105 -25.6689 -3.99805 -47.002h-338c4.66699 -37.333 22.667 -65.666 54 -84.999c27.333 -17.333 60.666 -26 99.999 -26c53.333 0 110.666 8.33301 171.999 25v-106c-65.333 -20.667 -136 -31 -212 -31
c-84 0 -153 23.667 -207 71c-57.333 49.333 -86 115.333 -86 198c0 86.667 25.333 153 76 199c48.667 44.667 117 67 205 67c78 0 138 -25 180 -75c40 -47.333 60 -110.666 60 -189.999zM390.002 311.998c-1.33301 28.667 -9.83301 52.167 -25.5 70.5s-37.5 27.5 -65.5 27.5
c-26 0 -48 -9.66699 -66 -29s-28.667 -42.333 -32 -69h189z" />
    <glyph glyph-name="edieresis" unicode="&#xeb;" horiz-adv-x="579" 
d="M448 628c0 -16.667 -6 -30.5 -18 -41.5s-26.333 -16.5 -43 -16.5c-17.333 0 -32.333 6 -45 18s-19 26.667 -19 44c0 16 6 29.5 18 40.5s26.333 16.5 43 16.5c17.333 0 32.333 -6 45 -18s19 -26.333 19 -43zM261 626c0 -16 -5.83105 -29.5 -17.498 -40.5
s-25.834 -16.5 -42.501 -16.5c-17.333 0 -32 6 -44 18s-18 26.333 -18 43s5.83301 30.5 17.5 41.5s25.5 16.5 41.5 16.5c17.333 0 32.166 -6 44.499 -18s18.5 -26.667 18.5 -44zM541.002 257c0 -10 -1.33105 -25.6689 -3.99805 -47.002h-338
c4.66699 -37.333 22.667 -65.666 54 -84.999c27.333 -17.333 60.666 -26 99.999 -26c53.333 0 110.666 8.33301 171.999 25v-106c-65.333 -20.667 -136 -31 -212 -31c-84 0 -153 23.667 -207 71c-57.333 49.333 -86 115.333 -86 198c0 86.667 25.333 153 76 199
c48.667 44.667 117 67 205 67c78 0 138 -25 180 -75c40 -47.333 60 -110.666 60 -189.999zM390.004 311.998c-1.33301 28.667 -9.83301 52.167 -25.5 70.5s-37.5 27.5 -65.5 27.5c-26 0 -48 -9.66699 -66 -29s-28.667 -42.333 -32 -69h189z" />
    <glyph glyph-name="igrave" unicode="&#xec;" horiz-adv-x="321" 
d="M231 578h-59l-151 112h140zM258 0h-188v503h188v-503z" />
    <glyph glyph-name="iacute" unicode="&#xed;" horiz-adv-x="321" 
d="M295 690l-152 -112h-59l69 112h142zM258 0h-188v503h188v-503z" />
    <glyph glyph-name="icircumflex" unicode="&#xee;" horiz-adv-x="321" 
d="M293 578h-52l-83 60l-85 -60h-51l67 112h140zM258 0h-188v503h188v-503z" />
    <glyph glyph-name="idieresis" unicode="&#xef;" horiz-adv-x="321" 
d="M313 628c0 -16.667 -6 -30.5 -18 -41.5s-26.333 -16.5 -43 -16.5c-17.333 0 -32.333 6 -45 18s-19 26.667 -19 44c0 16 6 29.5 18 40.5s26.333 16.5 43 16.5c17.333 0 32.333 -6 45 -18s19 -26.333 19 -43zM126 626c0 -16 -5.83105 -29.5 -17.498 -40.5
s-25.834 -16.5 -42.501 -16.5c-17.333 0 -32 6 -44 18s-18 26.333 -18 43s5.83301 30.5 17.5 41.5s25.5 16.5 41.5 16.5c17.333 0 32.166 -6 44.499 -18s18.5 -26.667 18.5 -44zM258.002 0h-188v503h188v-503z" />
    <glyph glyph-name="eth" unicode="&#xf0;" horiz-adv-x="623" 
d="M414 256c0 36.667 -7.66699 68.333 -23 95c-18.667 32 -45 48 -79 48c-36 0 -63 -15.667 -81 -47c-14.667 -25.333 -22 -57.333 -22 -96c0 -103.333 34.333 -155 103 -155c36.667 0 64 17.667 82 53c13.333 26.667 20 60.667 20 102zM339 520.999
c-22.667 30 -49.332 54 -79.999 72l-26 -40l-62 35l25 37c-8 2.66699 -22.333 5.66699 -43 9l26 55c22.667 -2.66699 40.667 -5.66699 54 -9l23 33l65 -24l-19 -29c86 -32.667 156.333 -83 211 -151c58 -73.333 87 -154 87 -242c0 -92 -24.833 -161.667 -74.5 -209
s-120.834 -71 -213.501 -71s-164 23.667 -214 71s-75 117 -75 209c0 85.333 27.333 150 82 194c50 40.667 119 61 207 61c8.66699 0 17.667 -0.333008 27 -1z" />
    <glyph glyph-name="ntilde" unicode="&#xf1;" horiz-adv-x="643" 
d="M479 604c-20.667 -16.667 -47.3301 -25 -79.9971 -25c-14.667 0 -35.834 5.33301 -63.501 16s-48.834 16 -63.501 16c-28 0 -50.667 -10.333 -68 -31v94c18 18 43.667 27 77 27c15.333 0 37.166 -5.66699 65.499 -17s49.5 -17 63.5 -17c25.333 0 48.333 10.333 69 31v-94
zM585.004 0h-188.001v313c0 52.667 -25 79 -75 79c-24.667 0 -46 -9 -64 -27v-365h-188v503h188v-48c56.667 44.667 112.334 67 167.001 67c49.333 0 88.333 -14.667 117 -44s43 -69 43 -119v-359z" />
    <glyph glyph-name="ograve" unicode="&#xf2;" horiz-adv-x="623" 
d="M369 578h-59l-151 112h140zM600 267c0 -92 -24.832 -161.667 -74.499 -209s-120.834 -71 -213.501 -71s-164 23.667 -214 71s-75 117 -75 209c0 85.333 27.333 150 82 194c50 40.667 119 61 207 61c80.667 0 148 -22 202 -66c57.333 -47.333 86 -110.333 86 -189z
M414.001 256c0 36.667 -7.66699 68.333 -23 95c-18.667 32 -45 48 -79 48c-36 0 -63 -15.667 -81 -47c-14.667 -25.333 -22 -57.333 -22 -96c0 -103.333 34.333 -155 103 -155c36.667 0 64 17.667 82 53c13.333 26.667 20 60.667 20 102z" />
    <glyph glyph-name="oacute" unicode="&#xf3;" horiz-adv-x="623" 
d="M453 690l-152 -112h-59l69 112h142zM600 267c0 -92 -24.832 -161.667 -74.499 -209s-120.834 -71 -213.501 -71s-164 23.667 -214 71s-75 117 -75 209c0 85.333 27.333 150 82 194c50 40.667 119 61 207 61c80.667 0 148 -22 202 -66c57.333 -47.333 86 -110.333 86 -189
zM414.001 256c0 36.667 -7.66699 68.333 -23 95c-18.667 32 -45 48 -79 48c-36 0 -63 -15.667 -81 -47c-14.667 -25.333 -22 -57.333 -22 -96c0 -103.333 34.333 -155 103 -155c36.667 0 64 17.667 82 53c13.333 26.667 20 60.667 20 102z" />
    <glyph glyph-name="ocircumflex" unicode="&#xf4;" horiz-adv-x="623" 
d="M441 578h-52l-83 60l-85 -60h-51l67 112h140zM600 267c0 -92 -24.832 -161.667 -74.499 -209s-120.834 -71 -213.501 -71s-164 23.667 -214 71s-75 117 -75 209c0 85.333 27.333 150 82 194c50 40.667 119 61 207 61c80.667 0 148 -22 202 -66
c57.333 -47.333 86 -110.333 86 -189zM414.001 256c0 36.667 -7.66699 68.333 -23 95c-18.667 32 -45 48 -79 48c-36 0 -63 -15.667 -81 -47c-14.667 -25.333 -22 -57.333 -22 -96c0 -103.333 34.333 -155 103 -155c36.667 0 64 17.667 82 53
c13.333 26.667 20 60.667 20 102z" />
    <glyph glyph-name="otilde" unicode="&#xf5;" horiz-adv-x="623" 
d="M459 614c-20.667 -16.667 -47.3301 -25 -79.9971 -25c-14.667 0 -35.834 5.33301 -63.501 16s-48.834 16 -63.501 16c-28 0 -50.667 -10.333 -68 -31v94c18 18 43.667 27 77 27c15.333 0 37.166 -5.66699 65.499 -17s49.5 -17 63.5 -17c25.333 0 48.333 10.333 69 31v-94
zM600.004 267c0 -92 -24.832 -161.667 -74.499 -209s-120.834 -71 -213.501 -71s-164 23.667 -214 71s-75 117 -75 209c0 85.333 27.333 150 82 194c50 40.667 119 61 207 61c80.667 0 148 -22 202 -66c57.333 -47.333 86 -110.333 86 -189zM414.005 256
c0 36.667 -7.66699 68.333 -23 95c-18.667 32 -45 48 -79 48c-36 0 -63 -15.667 -81 -47c-14.667 -25.333 -22 -57.333 -22 -96c0 -103.333 34.333 -155 103 -155c36.667 0 64 17.667 82 53c13.333 26.667 20 60.667 20 102z" />
    <glyph glyph-name="odieresis" unicode="&#xf6;" horiz-adv-x="623" 
d="M461 628c0 -16.667 -6 -30.5 -18 -41.5s-26.333 -16.5 -43 -16.5c-17.333 0 -32.333 6 -45 18s-19 26.667 -19 44c0 16 6 29.5 18 40.5s26.333 16.5 43 16.5c17.333 0 32.333 -6 45 -18s19 -26.333 19 -43zM274 626c0 -16 -5.83105 -29.5 -17.498 -40.5
s-25.834 -16.5 -42.501 -16.5c-17.333 0 -32 6 -44 18s-18 26.333 -18 43s5.83301 30.5 17.5 41.5s25.5 16.5 41.5 16.5c17.333 0 32.166 -6 44.499 -18s18.5 -26.667 18.5 -44zM600.002 267c0 -92 -24.832 -161.667 -74.499 -209s-120.834 -71 -213.501 -71
s-164 23.667 -214 71s-75 117 -75 209c0 85.333 27.333 150 82 194c50 40.667 119 61 207 61c80.667 0 148 -22 202 -66c57.333 -47.333 86 -110.333 86 -189zM414.003 256c0 36.667 -7.66699 68.333 -23 95c-18.667 32 -45 48 -79 48c-36 0 -63 -15.667 -81 -47
c-14.667 -25.333 -22 -57.333 -22 -96c0 -103.333 34.333 -155 103 -155c36.667 0 64 17.667 82 53c13.333 26.667 20 60.667 20 102z" />
    <glyph glyph-name="oslash" unicode="&#xf8;" horiz-adv-x="623" 
d="M600 267c0 -92 -24.833 -161.667 -74.5 -209s-121.167 -71 -214.5 -71c-58 0 -108 9.33301 -150 28l-31 -44l-27 21l27 40c-71.333 46 -107 124.333 -107 235c0 85.333 27.333 150 82 194c50 40.667 119 61 207 61c50 0 96 -9 138 -27l22 33l28 -23l-18 -26
c78.667 -47.333 118 -118 118 -212zM369 378c-16 14 -35 21 -57 21c-36 0 -63 -15.667 -81 -47c-14.667 -25.333 -22 -57.333 -22 -96c0 -35.333 4.66699 -65.333 14 -90zM414 256c0 34.667 -7.33301 65.667 -22 93l-150 -217c18 -20.667 41.333 -31 70 -31
c36.667 0 64 17.667 82 53c13.333 26.667 20 60.667 20 102z" />
    <glyph glyph-name="ugrave" unicode="&#xf9;" horiz-adv-x="643" 
d="M379 578h-59l-151 112h140zM574 0h-187.999v48c-56.667 -44.667 -112.334 -67 -167.001 -67c-49.333 0 -88.333 14.667 -117 44s-43 69 -43 119v359h188v-313c0 -52.667 25 -79 75 -79c24.667 0 46 9 64 27v365h188v-503z" />
    <glyph glyph-name="uacute" unicode="&#xfa;" horiz-adv-x="643" 
d="M463 690l-152 -112h-59l69 112h142zM574 0h-187.999v48c-56.667 -44.667 -112.334 -67 -167.001 -67c-49.333 0 -88.333 14.667 -117 44s-43 69 -43 119v359h188v-313c0 -52.667 25 -79 75 -79c24.667 0 46 9 64 27v365h188v-503z" />
    <glyph glyph-name="ucircumflex" unicode="&#xfb;" horiz-adv-x="643" 
d="M451 578h-52l-83 60l-85 -60h-51l67 112h140zM574 0h-187.999v48c-56.667 -44.667 -112.334 -67 -167.001 -67c-49.333 0 -88.333 14.667 -117 44s-43 69 -43 119v359h188v-313c0 -52.667 25 -79 75 -79c24.667 0 46 9 64 27v365h188v-503z" />
    <glyph glyph-name="udieresis" unicode="&#xfc;" horiz-adv-x="643" 
d="M471 628c0 -16.667 -6 -30.5 -18 -41.5s-26.333 -16.5 -43 -16.5c-17.333 0 -32.333 6 -45 18s-19 26.667 -19 44c0 16 6 29.5 18 40.5s26.333 16.5 43 16.5c17.333 0 32.333 -6 45 -18s19 -26.333 19 -43zM284 626c0 -16 -5.83105 -29.5 -17.498 -40.5
s-25.834 -16.5 -42.501 -16.5c-17.333 0 -32 6 -44 18s-18 26.333 -18 43s5.83301 30.5 17.5 41.5s25.5 16.5 41.5 16.5c17.333 0 32.166 -6 44.499 -18s18.5 -26.667 18.5 -44zM574.002 0h-187.999v48c-56.667 -44.667 -112.334 -67 -167.001 -67
c-49.333 0 -88.333 14.667 -117 44s-43 69 -43 119v359h188v-313c0 -52.667 25 -79 75 -79c24.667 0 46 9 64 27v365h188v-503z" />
    <glyph glyph-name="yacute" unicode="&#xfd;" horiz-adv-x="581" 
d="M579 509l-329 -744h-179l145 257l-216 487h197l117 -323l152 323h113z" />
    <glyph glyph-name="thorn" unicode="&#xfe;" horiz-adv-x="637" 
d="M612 233c0 -72.667 -14.667 -130.667 -44 -174c-34 -52 -85.667 -78 -155 -78c-26.667 0 -55 4.33301 -85 13c-36 11.333 -59.333 26 -70 44v-232h-188v697h188l1 -48c44.667 40.667 88.334 61 131.001 61c75.333 0 132.666 -29.333 171.999 -88
c33.333 -50 50 -115 50 -195zM421 251c0 34 -7 64.667 -21 92c-17.333 32.667 -41.666 49 -72.999 49c-28 0 -51 -9 -69 -27v-159c0 -24 6.66699 -43.333 20 -58s31.666 -22 54.999 -22c58.667 0 88 41.667 88 125z" />
    <glyph glyph-name="ydieresis" unicode="&#xff;" horiz-adv-x="581" 
d="M449 628c0 -16.667 -6 -30.5 -18 -41.5s-26.333 -16.5 -43 -16.5c-17.333 0 -32.333 6 -45 18s-19 26.667 -19 44c0 16 6 29.5 18 40.5s26.333 16.5 43 16.5c17.333 0 32.333 -6 45 -18s19 -26.333 19 -43zM262 626c0 -16 -5.83105 -29.5 -17.498 -40.5
s-25.834 -16.5 -42.501 -16.5c-17.333 0 -32 6 -44 18s-18 26.333 -18 43s5.83301 30.5 17.5 41.5s25.5 16.5 41.5 16.5c17.333 0 32.166 -6 44.499 -18s18.5 -26.667 18.5 -44zM579.002 509l-329 -744h-179l145 257l-216 487h197l117 -323l152 323h113z" />
    <glyph glyph-name="dotlessi" unicode="&#x131;" horiz-adv-x="321" 
d="M258 0h-188v503h188v-503z" />
    <glyph glyph-name="Lslash" unicode="&#x141;" horiz-adv-x="553" 
d="M537 0h-467v640h188v-518h279v-122z" />
    <glyph glyph-name="lslash" unicode="&#x142;" horiz-adv-x="321" 
d="M258 0h-188v697h188v-697z" />
    <glyph glyph-name="OE" unicode="&#x152;" horiz-adv-x="1058" 
d="M1022 0h-497.001v15c-49.333 -20.667 -102 -31 -158 -31c-96.667 0 -178.334 31.833 -245.001 95.5s-100 143.5 -100 239.5c0 102.667 31.833 184.5 95.5 245.5s146.834 91.5 249.501 91.5c58.667 0 111.334 -10.333 158.001 -31v15h486v-120h-298v-137h271v-113h-271
v-148h309v-122zM522.999 319c0 58 -11.334 105.333 -34.001 142c-27.333 44.667 -68 67 -122 67c-54.667 0 -95.667 -22.333 -123 -67c-22 -36 -33 -83.333 -33 -142s11 -106 33 -142c26.667 -43.333 67.667 -65 123 -65c54.667 0 95.334 22 122.001 66
c22.667 36 34 83 34 141z" />
    <glyph glyph-name="oe" unicode="&#x153;" horiz-adv-x="960" 
d="M936 257c0 -10 -1.33203 -25.668 -3.99902 -47.001h-336l-1 -5c6 -35.333 24.333 -62.333 55 -81c26.667 -16.667 59.334 -25 98.001 -25c53.333 0 110.666 8.33301 171.999 25v-106c-68.667 -20.667 -139.334 -31 -212.001 -31c-76.667 0 -141.334 20 -194.001 60
c-48.667 -40 -116 -60 -202 -60c-92.667 0 -164 23.667 -214 71s-75 117 -75 209c0 85.333 27.333 150 82 194c50 40.667 119 61 207 61c76.667 0 140 -19 190 -57c48.667 38 113.334 57 194.001 57c78 0 138 -25 180 -75c40 -47.333 60 -110.666 60 -189.999z
M785.001 311.999c-1.33301 28.667 -9.83301 52.167 -25.5 70.5s-37.5 27.5 -65.5 27.5c-26 0 -48 -9.66699 -66 -29s-28.667 -42.333 -32 -69h189zM414.001 256.999c0 36.667 -7.66699 68.333 -23 95c-18.667 32 -45 48 -79 48c-36 0 -63 -15.667 -81 -47
c-14.667 -25.333 -22 -57.333 -22 -96c0 -103.333 34.333 -155 103 -155c36.667 0 64 17.667 82 53c13.333 26.667 20 60.667 20 102z" />
    <glyph glyph-name="Scaron" unicode="&#x160;" horiz-adv-x="551" 
d="M530 186c0 -62.667 -30.666 -113.332 -91.999 -151.999c-52.667 -33.333 -112.334 -50 -179.001 -50c-75.333 0 -149 14.667 -221 44l-1 148c16.667 -16 51.667 -33 105 -51c51.333 -18 89.666 -27 114.999 -27c24.667 0 46.334 5 65.001 15c23.333 12.667 35 30 35 52
c0 26 -28.333 50 -85 72c-86.667 34.667 -139.667 58 -159 70c-56.667 37.333 -85 86.333 -85 147c0 62 27.667 112.333 83 151c48.667 34 105.667 51 171 51c56.667 0 120.334 -14.333 191.001 -43v-108c-79.333 20.667 -138.333 31 -177 31
c-22 0 -41.667 -4.66699 -59 -14c-21.333 -11.333 -32 -27 -32 -47c0 -16.667 28 -37 84 -61c77.333 -32.667 129.666 -59.334 156.999 -80.001c56 -40.667 84 -90 84 -148z" />
    <glyph glyph-name="scaron" unicode="&#x161;" horiz-adv-x="501" 
d="M478 158c0 -56 -25.332 -99.666 -75.999 -130.999c-42.667 -26.667 -94 -40 -154 -40c-86 0 -157.333 14 -214 42v115c75.333 -34 138.333 -51 189 -51c49.333 0 74 14 74 42c0 20.667 -23 38 -69 52c-67.333 20 -110 35.667 -128 47c-46 28 -69 69.667 -69 125
c0 57.333 26.667 100.333 80 129c41.333 22.667 93.666 34 156.999 34c32 0 63.667 -4.33301 95 -13c28 -7.33301 47.667 -15.666 59 -24.999v-91c-56.667 12 -104.667 18 -144 18c-16 0 -31 -3.66699 -45 -11c-16.667 -8.66699 -25 -20.334 -25 -35.001
c0 -18 23.333 -34 70 -48c68 -20.667 111.333 -36 130 -46c46.667 -26.667 70 -64.334 70 -113.001z" />
    <glyph glyph-name="Ydieresis" unicode="&#x178;" 
d="M473 773c0 -16.667 -6 -30.5 -18 -41.5s-26.333 -16.5 -43 -16.5c-17.333 0 -32.333 6 -45 18s-19 26.667 -19 44c0 16 6 29.5 18 40.5s26.333 16.5 43 16.5c17.333 0 32.333 -6 45 -18s19 -26.333 19 -43zM286 771c0 -16 -5.83105 -29.5 -17.498 -40.5
s-25.834 -16.5 -42.501 -16.5c-17.333 0 -32 6 -44 18s-18 26.333 -18 43s5.83301 30.5 17.5 41.5s25.5 16.5 41.5 16.5c17.333 0 32.166 -6 44.499 -18s18.5 -26.667 18.5 -44zM638.002 640l-221 -376v-264h-188v263l-220 377h200l138 -261l146 261h145z" />
    <glyph glyph-name="Zcaron" unicode="&#x17d;" horiz-adv-x="559" 
d="M532 0h-505v117l290 398h-283v126h494v-132l-285 -385h289v-124z" />
    <glyph glyph-name="zcaron" unicode="&#x17e;" horiz-adv-x="532" 
d="M499 0h-469v102l238 287h-231v120h458v-98l-242 -295h246v-116z" />
    <glyph glyph-name="circumflex" unicode="&#x2c6;" horiz-adv-x="415" 
d="M343 578h-52l-83 60l-85 -60h-51l67 112h140z" />
    <glyph glyph-name="caron" unicode="&#x2c7;" horiz-adv-x="415" 
d="M343 690l-67 -112h-140l-64 112h51l84 -60l84 60h52z" />
    <glyph glyph-name="breve" unicode="&#x2d8;" horiz-adv-x="415" 
d="M353 690c-2.66699 -36 -18.1689 -64.5 -46.502 -85.5s-61.166 -31.5 -98.499 -31.5s-69.666 10 -96.999 30c-30 22 -46 51 -48 87h65c9.33301 -26 36 -39 80 -39c42.667 0 69 13 79 39h66z" />
    <glyph glyph-name="dotaccent" unicode="&#x2d9;" horiz-adv-x="415" 
d="M276 631c0 -18 -6.66797 -33.001 -20.001 -45.001s-29 -18 -47 -18c-19.333 0 -36.166 6.83301 -50.499 20.5s-21.5 29.834 -21.5 48.501c0 18 6.66699 33.333 20 46s29.333 19 48 19c19.333 0 36 -7 50 -21s21 -30.667 21 -50z" />
    <glyph glyph-name="ring" unicode="&#x2da;" horiz-adv-x="415" 
d="M292 638c0 -22.667 -8.33301 -41.8301 -25 -57.4971s-36.334 -23.5 -59.001 -23.5c-23.333 0 -43.5 7.66699 -60.5 23s-25.5 34.666 -25.5 57.999s8.5 42.666 25.5 57.999s37.167 23 60.5 23c22.667 0 42.334 -7.83301 59.001 -23.5s25 -34.834 25 -57.501zM245 638.004
c0 24 -12.334 36 -37.001 36c-10 0 -19 -3.5 -27 -10.5s-12 -15.5 -12 -25.5c0 -10.667 3.83301 -19.5 11.5 -26.5s16.834 -10.5 27.501 -10.5c24.667 0 37 12.333 37 37z" />
    <glyph glyph-name="ogonek" unicode="&#x2db;" horiz-adv-x="415" 
d="M302 -99c-25.333 -21.333 -54.666 -31.998 -87.999 -31.998c-22 0 -41.667 3.66699 -59 11c-22.667 9.33301 -34 23.666 -34 42.999c0 31.333 24.333 57.666 73 78.999h59v-1c-29.333 -24 -44 -44.333 -44 -61c0 -17.333 11.667 -26 35 -26
c17.333 0 31.666 6.33301 42.999 19z" />
    <glyph glyph-name="tilde" unicode="&#x2dc;" horiz-adv-x="351" 
d="M311 584c-20.667 -16.667 -47.3301 -25 -79.9971 -25c-14.667 0 -35.834 5.33301 -63.501 16s-48.834 16 -63.501 16c-28 0 -50.667 -10.333 -68 -31v94c18 18 43.667 27 77 27c15.333 0 37.166 -5.66699 65.499 -17s49.5 -17 63.5 -17c25.333 0 48.333 10.333 69 31v-94
z" />
    <glyph glyph-name="hungarumlaut" unicode="&#x2dd;" horiz-adv-x="415" 
d="M431 690l-140 -112h-87l106 112h121zM256 690l-139 -112h-89l106 112h122z" />
    <glyph glyph-name="endash" unicode="&#x2013;" horiz-adv-x="456" 
d="M468 218h-480v119h480v-119z" />
    <glyph glyph-name="emdash" unicode="&#x2014;" horiz-adv-x="936" 
d="M948 218h-960v119h960v-119z" />
    <glyph glyph-name="quoteleft" unicode="&#x2018;" horiz-adv-x="224" 
d="M179 435l-141 -0.000976562c1.33301 56.667 7.5 103.834 18.5 141.501s31.833 79.5 62.5 125.5l54 -23c-19.333 -46.667 -29 -87.334 -29 -122.001c0 -19.333 5 -41.666 15 -66.999c12 -28.667 18.667 -47 20 -55z" />
    <glyph glyph-name="quoteright" unicode="&#x2019;" horiz-adv-x="224" 
d="M202 701c-1.33301 -57.333 -7.33301 -104.001 -18 -140.001c-11.333 -39.333 -32.333 -81.666 -63 -126.999l-54 23c19.333 46.667 29 87.334 29 122.001c0 19.333 -5 41.666 -15 66.999c-12 28.667 -18.667 47 -20 55h141z" />
    <glyph glyph-name="quotesinglbase" unicode="&#x201a;" horiz-adv-x="260" 
d="M202 131c-1.33301 -57.333 -7.33301 -104.001 -18 -140.001c-11.333 -39.333 -32.333 -81.666 -63 -126.999l-54 23c19.333 46.667 29 87.334 29 122.001c0 19.333 -5 41.666 -15 66.999c-12 28.667 -18.667 47 -20 55h141z" />
    <glyph glyph-name="quotedblleft" unicode="&#x201c;" horiz-adv-x="421" 
d="M369 435l-141 -0.000976562c1.33301 56.667 7.5 103.834 18.5 141.501s31.833 79.5 62.5 125.5l54 -23c-19.333 -46.667 -29 -87.334 -29 -122.001c0 -19.333 5 -41.666 15 -66.999c12 -28.667 18.667 -47 20 -55zM179 434.999l-141 -0.000976562
c1.33301 56.667 7.5 103.834 18.5 141.501s31.833 79.5 62.5 125.5l54 -23c-19.333 -46.667 -29 -87.334 -29 -122.001c0 -19.333 5 -41.666 15 -66.999c12 -28.667 18.667 -47 20 -55z" />
    <glyph glyph-name="quotedblright" unicode="&#x201d;" horiz-adv-x="421" 
d="M392 701c-1.33301 -57.333 -7.33301 -104.001 -18 -140.001c-11.333 -39.333 -32.333 -81.666 -63 -126.999l-54 23c19.333 46.667 29 87.334 29 122.001c0 19.333 -5 41.666 -15 66.999c-12 28.667 -18.667 47 -20 55h141zM202 700.999
c-1.33301 -57.333 -7.33301 -104.001 -18 -140.001c-11.333 -39.333 -32.333 -81.666 -63 -126.999l-54 23c19.333 46.667 29 87.334 29 122.001c0 19.333 -5 41.666 -15 66.999c-12 28.667 -18.667 47 -20 55h141z" />
    <glyph glyph-name="quotedblbase" unicode="&#x201e;" horiz-adv-x="447" 
d="M392 131c-1.33301 -57.333 -7.33301 -104.001 -18 -140.001c-11.333 -39.333 -32.333 -81.666 -63 -126.999l-54 23c19.333 46.667 29 87.334 29 122.001c0 19.333 -5 41.666 -15 66.999c-12 28.667 -18.667 47 -20 55h141zM202 130.999
c-1.33301 -57.333 -7.33301 -104.001 -18 -140.001c-11.333 -39.333 -32.333 -81.666 -63 -126.999l-54 23c19.333 46.667 29 87.334 29 122.001c0 19.333 -5 41.666 -15 66.999c-12 28.667 -18.667 47 -20 55h141z" />
    <glyph glyph-name="dagger" unicode="&#x2020;" horiz-adv-x="545" 
d="M504 337l-162 5l5 -406h-150l5 406l-162 -5l3 123l159 -5l-5 187h151l-6 -187l159 5z" />
    <glyph glyph-name="daggerdbl" unicode="&#x2021;" horiz-adv-x="545" 
d="M497 98l-154 5l5 -168h-151l5 168l-152 -5l-3 123l155 -5v143l-155 -5l3 123l152 -5l-5 168h151l-5 -168l154 5l-2 -123l-152 5v-143l152 5z" />
    <glyph glyph-name="bullet" unicode="&#x2022;" horiz-adv-x="519" 
d="M432 288c0 -46.667 -17 -86 -51 -118s-74.667 -48 -122 -48c-46.667 0 -87.167 16 -121.5 48s-51.5 71.333 -51.5 118s17 86 51 118s74.667 48 122 48c48 0 88.833 -15.833 122.5 -47.5s50.5 -71.167 50.5 -118.5z" />
    <glyph glyph-name="ellipsis" unicode="&#x2026;" horiz-adv-x="890" 
d="M827 69c0 -23.333 -8.33301 -43.333 -25 -60s-36.667 -25 -60 -25s-43.333 8.33301 -60 25s-25 36.667 -25 60s8.33301 43.333 25 60s36.667 25 60 25s43.333 -8.33301 60 -25s25 -36.667 25 -60zM527 69c0 -23.333 -8.33301 -43.333 -25 -60s-36.667 -25 -60 -25
s-43.333 8.33301 -60 25s-25 36.667 -25 60s8.33301 43.333 25 60s36.667 25 60 25s43.333 -8.33301 60 -25s25 -36.667 25 -60zM217 69c0 -23.333 -8.33301 -43.333 -25 -60s-36.667 -25 -60 -25s-43.333 8.33301 -60 25s-25 36.667 -25 60s8.33301 43.333 25 60
s36.667 25 60 25s43.333 -8.33301 60 -25s25 -36.667 25 -60z" />
    <glyph glyph-name="perthousand" unicode="&#x2030;" horiz-adv-x="1032" 
d="M301 485c0 -48.667 -12.332 -88.332 -36.999 -118.999c-27.333 -32.667 -65 -49 -113 -49c-48.667 0 -86.167 15.667 -112.5 47s-39.5 71.666 -39.5 120.999c0 50.667 12.833 90.5 38.5 119.5s63.5 43.5 113.5 43.5c49.333 0 86.666 -14.667 111.999 -44s38 -69 38 -119z
M613.001 645.002l-459 -663l-83 15l460 663zM1033 158.002c0 -48.667 -12.667 -88 -38 -118c-26.667 -32 -64 -48 -112 -48c-48.667 0 -86.667 15.667 -114 47c-25.333 29.333 -38 69 -38 119c0 51.333 12.833 91.5 38.5 120.5s63.5 43.5 113.5 43.5s88 -15.333 114 -46
c24 -28 36 -67.333 36 -118zM691.001 158.002c0 -48.667 -12.667 -88 -38 -118c-26.667 -32 -64 -48 -112 -48c-48.667 0 -86.667 15.667 -114 47c-25.333 29.333 -38 69 -38 119c0 51.333 12.833 91.5 38.5 120.5s63.5 43.5 113.5 43.5s88 -15.333 114 -46
c24 -28 36 -67.333 36 -118zM193.001 485.002c0 53.333 -14 80 -42 80c-29.333 0 -44 -26.667 -44 -80c0 -56.667 14.667 -85 44 -85c28 0 42 28.333 42 85zM924.001 158.002c0 53.333 -13.667 80 -41 80c-29.333 0 -44 -26.667 -44 -80c0 -56 14.667 -84 44 -84
c27.333 0 41 28 41 84zM582.001 158.002c0 53.333 -13.667 80 -41 80c-29.333 0 -44 -26.667 -44 -80c0 -56 14.667 -84 44 -84c27.333 0 41 28 41 84z" />
    <glyph glyph-name="guilsinglleft" unicode="&#x2039;" horiz-adv-x="268" 
d="M240 125l-82 -22l-131 175l131 175l82 -24l-73 -151z" />
    <glyph glyph-name="guilsinglright" unicode="&#x203a;" horiz-adv-x="268" 
d="M241 278l-131 -175l-82 24l73 151l-73 152l82 23z" />
    <glyph glyph-name="fraction" unicode="&#x2044;" horiz-adv-x="502" 
d="M515 641l-401 -713l-126 29l401 713z" />
    <glyph glyph-name="Euro" unicode="&#x20ac;" 
d="M377 294l-10.999 -42h-70c11.333 -92 56.333 -138 135 -138c33.333 0 82.666 3.33301 147.999 10v-110c-66 -18 -130.667 -27 -194 -27c-74.667 0 -136.667 21.333 -186 64c-54 46.667 -85.667 113.667 -95 201h-37l11 42h23v12c0 12 0.333008 24 1 36h-35l11 42h29
c12 88 44.667 156.333 98 205c50 45.333 111.333 68 184 68c61.333 0 119 -17.333 173 -52v-97c-42 15.333 -90.667 23 -146 23c-66 0 -105.333 -49 -118 -147h103l-11 -42h-96c-0.666992 -14.667 -1 -28 -1 -40v-8h84z" />
    <glyph glyph-name="trademark" unicode="&#x2122;" horiz-adv-x="935" 
d="M909 280l-177.001 0.000976562v18c20.667 0.666992 34.334 3.33398 41.001 8.00098c9.33301 6 14 18.667 14 38v258l-142 -322h-17l-146 312l-1 -247c0 -22 4.33301 -35.667 13 -41c6.66699 -4 21.334 -6 44.001 -6v-18h-139v18c19.333 0 32.333 2.33301 39 7
c9.33301 6.66699 14 19.667 14 39v254c0 22 -3.33301 36 -10 42s-21.334 9 -44.001 9v18h126l133 -283l128 283h124v-18c-19.333 0 -32.333 -2.33301 -39 -7c-8.66699 -6.66699 -13 -19.334 -13 -38.001v-259c0 -19.333 3.66699 -31.833 11 -37.5s21 -8.83398 41 -9.50098
v-18zM365.999 570.001l-15.999 -1c-2 33.333 -15.667 55 -41 65c-13.333 4.66699 -41 7.33398 -83 8.00098v-297c0 -18.667 3.66699 -31 11 -37s20.666 -9.33301 39.999 -10v-18h-171v18c19.333 1.33301 32.5 4.83301 39.5 10.5s10.5 17.5 10.5 35.5v298
c-42 -0.666992 -69.333 -3.33398 -82 -8.00098c-24 -9.33301 -37.667 -31 -41 -65l-17 1l7 97h336z" />
    <glyph glyph-name="apple" unicode="&#xf000;" horiz-adv-x="812" 
d="M738 336c0 -92.667 -32.5 -171.833 -97.5 -237.5s-143.833 -98.5 -236.5 -98.5c-92 -0 -170.667 32.833 -236 98.5s-98 144.5 -98 236.5s32.333 170.667 97 236s143 98 235 98s171 -32.5 237 -97.5s99 -143.5 99 -235.5zM570 336.001c0 66.667 -12 129.001 -36 187.001
c-32 75.333 -76.667 113 -134 113c-22 0 -43.667 -8.33301 -65 -25c-34 -26.667 -59.667 -69 -77 -127c-14.667 -46.667 -22 -96.667 -22 -150c0 -66.667 12.333 -128.667 37 -186c32 -75.333 76.667 -113 134 -113c54 0 96.333 39 127 117c24 59.333 36 120.666 36 183.999
zM485 535.002c0 -22 -8.16602 -40.667 -24.499 -56s-35.5 -23 -57.5 -23s-40.5 8 -55.5 24s-22.5 35 -22.5 57s8.16699 40.333 24.5 55s35.5 22 57.5 22c21.333 0 39.666 -7.83301 54.999 -23.5s23 -34.167 23 -55.5z" />
    <glyph glyph-name="fi" unicode="&#xf001;" horiz-adv-x="726" 
d="M671 663c0 -26.667 -9.33301 -50.001 -28 -70.001s-41.667 -30 -69 -30s-51 9.33301 -71 28s-30 41.334 -30 68.001s9.33301 50.167 28 70.5s41.667 30.5 69 30.5c26.667 0 50.167 -9.33301 70.5 -28s30.5 -41.667 30.5 -69zM405 407.999h-134.999v-408h-183l-1 408h-83
v95h77c0 56 17 99.833 51 131.5s79.667 47.5 137 47.5c55.333 0 99.666 -13 132.999 -39v-82c-52 4 -78.333 6 -79 6c-35.333 0 -53 -21.333 -53 -64h136v-95zM668.001 -0.000976562h-188v503h188v-503z" />
    <glyph glyph-name="fl" unicode="&#xf002;" horiz-adv-x="756" 
d="M688 0h-188v697h188v-697zM405 408h-134.999v-408h-183l-1 408h-83v95h77c0 56 17 99.833 51 131.5s79.667 47.5 137 47.5c55.333 0 99.666 -13 132.999 -39v-82c-52 4 -78.333 6 -79 6c-35.333 0 -53 -21.333 -53 -64h136v-95z" />
    <glyph glyph-name="NULL" horiz-adv-x="0" 
 />
    <glyph glyph-name="nonmarkingreturn" horiz-adv-x="210" 
 />
    </font>
</defs>
</svg>
